ISO-10303-21;
HEADER;
/* Generated by software containing ST-Developer
 * from STEP Tools, Inc. (www.steptools.com) 
 */

FILE_DESCRIPTION(
/* description */ (''),
/* implementation_level */ '2;1');

FILE_NAME(
/* name */ 'kyra_lid.step',
/* time_stamp */ '2025-07-08T02:56:27+05:30',
/* author */ (''),
/* organization */ (''),
/* preprocessor_version */ 'ST-DEVELOPER v20.1',
/* originating_system */ 'Autodesk Translation Framework v14.10.0.0',
/* authorisation */ '');

FILE_SCHEMA (('AUTOMOTIVE_DESIGN { 1 0 10303 214 3 1 1 }'));
ENDSEC;

DATA;
#10=MECHANICAL_DESIGN_GEOMETRIC_PRESENTATION_REPRESENTATION('',(#13),#273);
#11=SHAPE_REPRESENTATION_RELATIONSHIP('SRR','None',#280,#12);
#12=ADVANCED_BREP_SHAPE_REPRESENTATION('',(#14),#272);
#13=STYLED_ITEM('',(#289),#14);
#14=MANIFOLD_SOLID_BREP('kyra_lid',#161);
#15=FACE_OUTER_BOUND('',#27,.T.);
#16=FACE_OUTER_BOUND('',#28,.T.);
#17=FACE_OUTER_BOUND('',#29,.T.);
#18=FACE_OUTER_BOUND('',#30,.T.);
#19=FACE_OUTER_BOUND('',#31,.T.);
#20=FACE_OUTER_BOUND('',#32,.T.);
#21=FACE_OUTER_BOUND('',#33,.T.);
#22=FACE_OUTER_BOUND('',#34,.T.);
#23=FACE_OUTER_BOUND('',#35,.T.);
#24=FACE_OUTER_BOUND('',#36,.T.);
#25=FACE_OUTER_BOUND('',#37,.T.);
#26=FACE_OUTER_BOUND('',#38,.T.);
#27=EDGE_LOOP('',(#101,#102,#103));
#28=EDGE_LOOP('',(#104,#105,#106));
#29=EDGE_LOOP('',(#107,#108,#109));
#30=EDGE_LOOP('',(#110,#111,#112));
#31=EDGE_LOOP('',(#113,#114,#115));
#32=EDGE_LOOP('',(#116,#117,#118));
#33=EDGE_LOOP('',(#119,#120,#121));
#34=EDGE_LOOP('',(#122,#123,#124));
#35=EDGE_LOOP('',(#125,#126,#127));
#36=EDGE_LOOP('',(#128,#129,#130));
#37=EDGE_LOOP('',(#131,#132,#133));
#38=EDGE_LOOP('',(#134,#135,#136));
#39=LINE('',#235,#57);
#40=LINE('',#237,#58);
#41=LINE('',#238,#59);
#42=LINE('',#241,#60);
#43=LINE('',#242,#61);
#44=LINE('',#245,#62);
#45=LINE('',#247,#63);
#46=LINE('',#248,#64);
#47=LINE('',#250,#65);
#48=LINE('',#253,#66);
#49=LINE('',#255,#67);
#50=LINE('',#256,#68);
#51=LINE('',#258,#69);
#52=LINE('',#260,#70);
#53=LINE('',#261,#71);
#54=LINE('',#263,#72);
#55=LINE('',#265,#73);
#56=LINE('',#268,#74);
#57=VECTOR('',#191,10.);
#58=VECTOR('',#192,10.);
#59=VECTOR('',#193,10.);
#60=VECTOR('',#196,10.);
#61=VECTOR('',#197,10.);
#62=VECTOR('',#200,10.);
#63=VECTOR('',#201,10.);
#64=VECTOR('',#202,10.);
#65=VECTOR('',#205,10.);
#66=VECTOR('',#208,10.);
#67=VECTOR('',#209,10.);
#68=VECTOR('',#210,10.);
#69=VECTOR('',#213,10.);
#70=VECTOR('',#216,10.);
#71=VECTOR('',#217,10.);
#72=VECTOR('',#220,10.);
#73=VECTOR('',#223,10.);
#74=VECTOR('',#228,10.);
#75=VERTEX_POINT('',#233);
#76=VERTEX_POINT('',#234);
#77=VERTEX_POINT('',#236);
#78=VERTEX_POINT('',#240);
#79=VERTEX_POINT('',#244);
#80=VERTEX_POINT('',#246);
#81=VERTEX_POINT('',#252);
#82=VERTEX_POINT('',#254);
#83=EDGE_CURVE('',#75,#76,#39,.T.);
#84=EDGE_CURVE('',#75,#77,#40,.T.);
#85=EDGE_CURVE('',#77,#76,#41,.T.);
#86=EDGE_CURVE('',#75,#78,#42,.T.);
#87=EDGE_CURVE('',#78,#76,#43,.T.);
#88=EDGE_CURVE('',#77,#79,#44,.T.);
#89=EDGE_CURVE('',#80,#77,#45,.T.);
#90=EDGE_CURVE('',#80,#79,#46,.T.);
#91=EDGE_CURVE('',#79,#76,#47,.T.);
#92=EDGE_CURVE('',#81,#80,#48,.T.);
#93=EDGE_CURVE('',#82,#80,#49,.T.);
#94=EDGE_CURVE('',#82,#81,#50,.T.);
#95=EDGE_CURVE('',#81,#79,#51,.T.);
#96=EDGE_CURVE('',#82,#78,#52,.T.);
#97=EDGE_CURVE('',#82,#75,#53,.T.);
#98=EDGE_CURVE('',#81,#78,#54,.T.);
#99=EDGE_CURVE('',#81,#76,#55,.T.);
#100=EDGE_CURVE('',#75,#80,#56,.T.);
#101=ORIENTED_EDGE('',*,*,#83,.F.);
#102=ORIENTED_EDGE('',*,*,#84,.T.);
#103=ORIENTED_EDGE('',*,*,#85,.T.);
#104=ORIENTED_EDGE('',*,*,#86,.F.);
#105=ORIENTED_EDGE('',*,*,#83,.T.);
#106=ORIENTED_EDGE('',*,*,#87,.F.);
#107=ORIENTED_EDGE('',*,*,#88,.F.);
#108=ORIENTED_EDGE('',*,*,#89,.F.);
#109=ORIENTED_EDGE('',*,*,#90,.T.);
#110=ORIENTED_EDGE('',*,*,#85,.F.);
#111=ORIENTED_EDGE('',*,*,#88,.T.);
#112=ORIENTED_EDGE('',*,*,#91,.T.);
#113=ORIENTED_EDGE('',*,*,#92,.T.);
#114=ORIENTED_EDGE('',*,*,#93,.F.);
#115=ORIENTED_EDGE('',*,*,#94,.T.);
#116=ORIENTED_EDGE('',*,*,#90,.F.);
#117=ORIENTED_EDGE('',*,*,#92,.F.);
#118=ORIENTED_EDGE('',*,*,#95,.T.);
#119=ORIENTED_EDGE('',*,*,#96,.F.);
#120=ORIENTED_EDGE('',*,*,#97,.T.);
#121=ORIENTED_EDGE('',*,*,#86,.T.);
#122=ORIENTED_EDGE('',*,*,#94,.F.);
#123=ORIENTED_EDGE('',*,*,#96,.T.);
#124=ORIENTED_EDGE('',*,*,#98,.F.);
#125=ORIENTED_EDGE('',*,*,#99,.T.);
#126=ORIENTED_EDGE('',*,*,#91,.F.);
#127=ORIENTED_EDGE('',*,*,#95,.F.);
#128=ORIENTED_EDGE('',*,*,#87,.T.);
#129=ORIENTED_EDGE('',*,*,#99,.F.);
#130=ORIENTED_EDGE('',*,*,#98,.T.);
#131=ORIENTED_EDGE('',*,*,#100,.T.);
#132=ORIENTED_EDGE('',*,*,#89,.T.);
#133=ORIENTED_EDGE('',*,*,#84,.F.);
#134=ORIENTED_EDGE('',*,*,#93,.T.);
#135=ORIENTED_EDGE('',*,*,#100,.F.);
#136=ORIENTED_EDGE('',*,*,#97,.F.);
#137=PLANE('',#175);
#138=PLANE('',#176);
#139=PLANE('',#177);
#140=PLANE('',#178);
#141=PLANE('',#179);
#142=PLANE('',#180);
#143=PLANE('',#181);
#144=PLANE('',#182);
#145=PLANE('',#183);
#146=PLANE('',#184);
#147=PLANE('',#185);
#148=PLANE('',#186);
#149=ADVANCED_FACE('',(#15),#137,.T.);
#150=ADVANCED_FACE('',(#16),#138,.T.);
#151=ADVANCED_FACE('',(#17),#139,.T.);
#152=ADVANCED_FACE('',(#18),#140,.T.);
#153=ADVANCED_FACE('',(#19),#141,.T.);
#154=ADVANCED_FACE('',(#20),#142,.T.);
#155=ADVANCED_FACE('',(#21),#143,.T.);
#156=ADVANCED_FACE('',(#22),#144,.T.);
#157=ADVANCED_FACE('',(#23),#145,.T.);
#158=ADVANCED_FACE('',(#24),#146,.T.);
#159=ADVANCED_FACE('',(#25),#147,.T.);
#160=ADVANCED_FACE('',(#26),#148,.T.);
#161=CLOSED_SHELL('',(#149,#150,#151,#152,#153,#154,#155,#156,#157,#158,
#159,#160));
#162=DERIVED_UNIT_ELEMENT(#164,1.);
#163=DERIVED_UNIT_ELEMENT(#275,-3.);
#164=(
MASS_UNIT()
NAMED_UNIT(*)
SI_UNIT(.KILO.,.GRAM.)
);
#165=DERIVED_UNIT((#162,#163));
#166=MEASURE_REPRESENTATION_ITEM('density measure',
POSITIVE_RATIO_MEASURE(7850.),#165);
#167=PROPERTY_DEFINITION_REPRESENTATION(#172,#169);
#168=PROPERTY_DEFINITION_REPRESENTATION(#173,#170);
#169=REPRESENTATION('material name',(#171),#272);
#170=REPRESENTATION('density',(#166),#272);
#171=DESCRIPTIVE_REPRESENTATION_ITEM('Steel','Steel');
#172=PROPERTY_DEFINITION('material property','material name',#282);
#173=PROPERTY_DEFINITION('material property','density of part',#282);
#174=AXIS2_PLACEMENT_3D('',#231,#187,#188);
#175=AXIS2_PLACEMENT_3D('',#232,#189,#190);
#176=AXIS2_PLACEMENT_3D('',#239,#194,#195);
#177=AXIS2_PLACEMENT_3D('',#243,#198,#199);
#178=AXIS2_PLACEMENT_3D('',#249,#203,#204);
#179=AXIS2_PLACEMENT_3D('',#251,#206,#207);
#180=AXIS2_PLACEMENT_3D('',#257,#211,#212);
#181=AXIS2_PLACEMENT_3D('',#259,#214,#215);
#182=AXIS2_PLACEMENT_3D('',#262,#218,#219);
#183=AXIS2_PLACEMENT_3D('',#264,#221,#222);
#184=AXIS2_PLACEMENT_3D('',#266,#224,#225);
#185=AXIS2_PLACEMENT_3D('',#267,#226,#227);
#186=AXIS2_PLACEMENT_3D('',#269,#229,#230);
#187=DIRECTION('axis',(0.,0.,1.));
#188=DIRECTION('refdir',(1.,0.,0.));
#189=DIRECTION('center_axis',(0.,1.,0.));
#190=DIRECTION('ref_axis',(0.,0.,1.));
#191=DIRECTION('',(0.99997310862508,0.,-0.00733362302644646));
#192=DIRECTION('',(1.,0.,0.));
#193=DIRECTION('',(0.,0.,-1.));
#194=DIRECTION('center_axis',(0.,1.,0.));
#195=DIRECTION('ref_axis',(0.,0.,1.));
#196=DIRECTION('',(0.,0.,-1.));
#197=DIRECTION('',(1.,0.,0.));
#198=DIRECTION('center_axis',(1.,0.,0.));
#199=DIRECTION('ref_axis',(0.,0.,-1.));
#200=DIRECTION('',(0.,-0.999861242302292,-0.0166582154421443));
#201=DIRECTION('',(0.,1.,0.));
#202=DIRECTION('',(0.,0.,-1.));
#203=DIRECTION('center_axis',(1.,0.,0.));
#204=DIRECTION('ref_axis',(0.,0.,-1.));
#205=DIRECTION('',(0.,1.,0.));
#206=DIRECTION('center_axis',(0.,-1.,0.));
#207=DIRECTION('ref_axis',(0.,0.,-1.));
#208=DIRECTION('',(0.99997310862508,0.,0.00733362302644646));
#209=DIRECTION('',(1.,0.,0.));
#210=DIRECTION('',(0.,0.,-1.));
#211=DIRECTION('center_axis',(0.,-1.,0.));
#212=DIRECTION('ref_axis',(0.,0.,-1.));
#213=DIRECTION('',(1.,0.,0.));
#214=DIRECTION('center_axis',(-1.,0.,0.));
#215=DIRECTION('ref_axis',(0.,0.,1.));
#216=DIRECTION('',(0.,0.999861242302292,-0.0166582154421443));
#217=DIRECTION('',(0.,1.,0.));
#218=DIRECTION('center_axis',(-1.,0.,0.));
#219=DIRECTION('ref_axis',(0.,0.,1.));
#220=DIRECTION('',(0.,1.,0.));
#221=DIRECTION('center_axis',(0.,0.,-1.));
#222=DIRECTION('ref_axis',(-1.,0.,0.));
#223=DIRECTION('',(0.915250455276791,0.402885348598862,0.));
#224=DIRECTION('center_axis',(0.,0.,-1.));
#225=DIRECTION('ref_axis',(-1.,0.,0.));
#226=DIRECTION('center_axis',(0.,0.,1.));
#227=DIRECTION('ref_axis',(1.,0.,0.));
#228=DIRECTION('',(0.915250455276791,-0.402885348598862,0.));
#229=DIRECTION('center_axis',(0.,0.,1.));
#230=DIRECTION('ref_axis',(1.,0.,0.));
#231=CARTESIAN_POINT('',(0.,0.,0.));
#232=CARTESIAN_POINT('Origin',(75.4736185073853,86.7021179199219,1.10442161560059));
#233=CARTESIAN_POINT('',(-75.1186800003052,86.7021179199219,1.10442161560059));
#234=CARTESIAN_POINT('',(75.4736185073853,86.7021179199219,4.76837158203125E-6));
#235=CARTESIAN_POINT('',(-75.1186800003052,86.7021179199219,1.10442161560059));
#236=CARTESIAN_POINT('',(75.4736185073853,86.7021179199219,1.10442161560059));
#237=CARTESIAN_POINT('',(-75.1186800003052,86.7021179199219,1.10442161560059));
#238=CARTESIAN_POINT('',(75.4736185073853,86.7021179199219,1.10442161560059));
#239=CARTESIAN_POINT('Origin',(75.4736185073853,86.7021179199219,4.76837158203125E-6));
#240=CARTESIAN_POINT('',(-75.1186800003052,86.7021179199219,4.76837158203125E-6));
#241=CARTESIAN_POINT('',(-75.1186800003052,86.7021179199219,1.10442161560059));
#242=CARTESIAN_POINT('',(-75.1186800003052,86.7021179199219,4.76837158203125E-6));
#243=CARTESIAN_POINT('Origin',(75.4736185073853,20.4126882553101,1.10442161560059));
#244=CARTESIAN_POINT('',(75.4736185073853,20.4126882553101,4.76837158203125E-6));
#245=CARTESIAN_POINT('',(75.4736185073853,86.7021179199219,1.10442161560059));
#246=CARTESIAN_POINT('',(75.4736185073853,20.4126882553101,1.10442161560059));
#247=CARTESIAN_POINT('',(75.4736185073853,20.4126882553101,1.10442161560059));
#248=CARTESIAN_POINT('',(75.4736185073853,20.4126882553101,1.10442161560059));
#249=CARTESIAN_POINT('Origin',(75.4736185073853,20.4126882553101,4.76837158203125E-6));
#250=CARTESIAN_POINT('',(75.4736185073853,20.4126882553101,4.76837158203125E-6));
#251=CARTESIAN_POINT('Origin',(-75.1186800003052,20.4126882553101,1.10442161560059));
#252=CARTESIAN_POINT('',(-75.1186800003052,20.4126882553101,4.76837158203125E-6));
#253=CARTESIAN_POINT('',(-75.1186800003052,20.4126882553101,4.76837158203125E-6));
#254=CARTESIAN_POINT('',(-75.1186800003052,20.4126882553101,1.10442161560059));
#255=CARTESIAN_POINT('',(-75.1186800003052,20.4126882553101,1.10442161560059));
#256=CARTESIAN_POINT('',(-75.1186800003052,20.4126882553101,1.10442161560059));
#257=CARTESIAN_POINT('Origin',(-75.1186800003052,20.4126882553101,4.76837158203125E-6));
#258=CARTESIAN_POINT('',(-75.1186800003052,20.4126882553101,4.76837158203125E-6));
#259=CARTESIAN_POINT('Origin',(-75.1186800003052,86.7021179199219,1.10442161560059));
#260=CARTESIAN_POINT('',(-75.1186800003052,20.4126882553101,1.10442161560059));
#261=CARTESIAN_POINT('',(-75.1186800003052,20.4126882553101,1.10442161560059));
#262=CARTESIAN_POINT('Origin',(-75.1186800003052,86.7021179199219,4.76837158203125E-6));
#263=CARTESIAN_POINT('',(-75.1186800003052,20.4126882553101,4.76837158203125E-6));
#264=CARTESIAN_POINT('Origin',(75.4736185073853,20.4126882553101,4.76837158203125E-6));
#265=CARTESIAN_POINT('',(-75.1186800003052,20.4126882553101,4.76837158203125E-6));
#266=CARTESIAN_POINT('Origin',(-75.1186800003052,20.4126882553101,4.76837158203125E-6));
#267=CARTESIAN_POINT('Origin',(75.4736185073853,86.7021179199219,1.10442161560059));
#268=CARTESIAN_POINT('',(-75.1186800003052,86.7021179199219,1.10442161560059));
#269=CARTESIAN_POINT('Origin',(-75.1186800003052,86.7021179199219,1.10442161560059));
#270=UNCERTAINTY_MEASURE_WITH_UNIT(LENGTH_MEASURE(0.01),#274,
'DISTANCE_ACCURACY_VALUE',
'Maximum model space distance between geometric entities at asserted c
onnectivities');
#271=UNCERTAINTY_MEASURE_WITH_UNIT(LENGTH_MEASURE(0.01),#274,
'DISTANCE_ACCURACY_VALUE',
'Maximum model space distance between geometric entities at asserted c
onnectivities');
#272=(
GEOMETRIC_REPRESENTATION_CONTEXT(3)
GLOBAL_UNCERTAINTY_ASSIGNED_CONTEXT((#270))
GLOBAL_UNIT_ASSIGNED_CONTEXT((#274,#276,#277))
REPRESENTATION_CONTEXT('','3D')
);
#273=(
GEOMETRIC_REPRESENTATION_CONTEXT(3)
GLOBAL_UNCERTAINTY_ASSIGNED_CONTEXT((#271))
GLOBAL_UNIT_ASSIGNED_CONTEXT((#274,#276,#277))
REPRESENTATION_CONTEXT('','3D')
);
#274=(
LENGTH_UNIT()
NAMED_UNIT(*)
SI_UNIT(.MILLI.,.METRE.)
);
#275=(
LENGTH_UNIT()
NAMED_UNIT(*)
SI_UNIT($,.METRE.)
);
#276=(
NAMED_UNIT(*)
PLANE_ANGLE_UNIT()
SI_UNIT($,.RADIAN.)
);
#277=(
NAMED_UNIT(*)
SI_UNIT($,.STERADIAN.)
SOLID_ANGLE_UNIT()
);
#278=SHAPE_DEFINITION_REPRESENTATION(#279,#280);
#279=PRODUCT_DEFINITION_SHAPE('',$,#282);
#280=SHAPE_REPRESENTATION('',(#174),#272);
#281=PRODUCT_DEFINITION_CONTEXT('part definition',#286,'design');
#282=PRODUCT_DEFINITION('2025-07-08-02-55-50-116','(Unsaved)',#283,#281);
#283=PRODUCT_DEFINITION_FORMATION('',$,#288);
#284=PRODUCT_RELATED_PRODUCT_CATEGORY('(Unsaved)','(Unsaved)',(#288));
#285=APPLICATION_PROTOCOL_DEFINITION('international standard',
'automotive_design',2009,#286);
#286=APPLICATION_CONTEXT(
'Core Data for Automotive Mechanical Design Process');
#287=PRODUCT_CONTEXT('part definition',#286,'mechanical');
#288=PRODUCT('2025-07-08-02-55-50-116','(Unsaved)',$,(#287));
#289=PRESENTATION_STYLE_ASSIGNMENT((#290));
#290=SURFACE_STYLE_USAGE(.BOTH.,#291);
#291=SURFACE_SIDE_STYLE('',(#292));
#292=SURFACE_STYLE_FILL_AREA(#293);
#293=FILL_AREA_STYLE('Steel - Satin',(#294));
#294=FILL_AREA_STYLE_COLOUR('Steel - Satin',#295);
#295=COLOUR_RGB('Steel - Satin',0.627450980392157,0.627450980392157,0.627450980392157);
ENDSEC;
END-ISO-10303-21;
