ISO-10303-21;
HEADER;
/* Generated by software containing ST-Developer
 * from STEP Tools, Inc. (www.steptools.com) 
 */

FILE_DESCRIPTION(
/* description */ (''),
/* implementation_level */ '2;1');

FILE_NAME(
/* name */ 'usbhub_dummy.step',
/* time_stamp */ '2025-08-16T21:48:14+05:30',
/* author */ (''),
/* organization */ (''),
/* preprocessor_version */ 'ST-DEVELOPER v20.1',
/* originating_system */ 'Autodesk Translation Framework v14.10.0.0',
/* authorisation */ '');

FILE_SCHEMA (('AUTOMOTIVE_DESIGN { 1 0 10303 214 3 1 1 }'));
ENDSEC;

DATA;
#10=MECHANICAL_DESIGN_GEOMETRIC_PRESENTATION_REPRESENTATION('',(#1172,#1173,
#1174,#1175,#1176,#1177,#1178,#1179,#1180,#1181,#1182,#1183,#1184,#1185,
#1186,#1187,#1188,#1189,#1190,#1191,#1192,#1193,#1194,#1195,#1196,#1197,
#1198,#1199,#1200,#1201,#1202,#1203,#1204,#1205,#1206,#1207,#1208,#1209,
#1210,#1211,#1212,#1213,#1214,#1215,#1216,#1217,#1218,#1219,#1220,#1221,
#1222,#1223,#1224,#1225,#1226,#1227,#1228,#1229,#1230,#1231,#1232,#1233,
#1234,#1235,#1236,#1237),#2167);
#11=SHAPE_REPRESENTATION_RELATIONSHIP('SRR','None',#2174,#12);
#12=ADVANCED_BREP_SHAPE_REPRESENTATION('',(#13),#2166);
#13=MANIFOLD_SOLID_BREP('Body1',#1304);
#14=TOROIDAL_SURFACE('',#1425,1.75,0.5);
#15=TOROIDAL_SURFACE('',#1429,1.95,0.2);
#16=ELLIPSE('',#1396,2.82842712474617,2.);
#17=ELLIPSE('',#1397,2.82842712474617,2.);
#18=ELLIPSE('',#1399,2.82842712474617,2.);
#19=ELLIPSE('',#1401,2.82842712474617,2.);
#20=ELLIPSE('',#1405,2.82842712474619,2.);
#21=ELLIPSE('',#1406,2.82842712474619,2.);
#22=ELLIPSE('',#1413,2.82842712474619,2.);
#23=ELLIPSE('',#1414,2.82842712474619,2.);
#24=B_SPLINE_CURVE_WITH_KNOTS('',3,(#2084,#2085,#2086,#2087),
 .UNSPECIFIED.,.F.,.F.,(4,4),(-0.639025469276348,-0.594646051638782),
 .UNSPECIFIED.);
#25=B_SPLINE_CURVE_WITH_KNOTS('',3,(#2091,#2092,#2093,#2094),
 .UNSPECIFIED.,.F.,.F.,(4,4),(-0.683404886913915,-0.639025469276348),
 .UNSPECIFIED.);
#26=B_SPLINE_CURVE_WITH_KNOTS('',3,(#2106,#2107,#2108,#2109),
 .UNSPECIFIED.,.F.,.F.,(4,4),(-0.683404886913913,-0.639025469276349),
 .UNSPECIFIED.);
#27=B_SPLINE_CURVE_WITH_KNOTS('',3,(#2110,#2111,#2112,#2113),
 .UNSPECIFIED.,.F.,.F.,(4,4),(-0.639025469276349,-0.594646051638914),
 .UNSPECIFIED.);
#28=B_SPLINE_CURVE_WITH_KNOTS('',3,(#2122,#2123,#2124,#2125),
 .UNSPECIFIED.,.F.,.F.,(4,4),(-0.859556186227298,-0.815176768589732),
 .UNSPECIFIED.);
#29=B_SPLINE_CURVE_WITH_KNOTS('',3,(#2128,#2129,#2130,#2131),
 .UNSPECIFIED.,.F.,.F.,(4,4),(-0.903935603864867,-0.859556186227298),
 .UNSPECIFIED.);
#30=B_SPLINE_CURVE_WITH_KNOTS('',3,(#2133,#2134,#2135,#2136),
 .UNSPECIFIED.,.F.,.F.,(4,4),(-0.903935603864736,-0.859556186227299),
 .UNSPECIFIED.);
#31=B_SPLINE_CURVE_WITH_KNOTS('',3,(#2138,#2139,#2140,#2141),
 .UNSPECIFIED.,.F.,.F.,(4,4),(-0.859556186227298,-0.81517676858973),
 .UNSPECIFIED.);
#32=CONICAL_SURFACE('',#1391,3.66666666666666,0.785398163397455);
#33=CONICAL_SURFACE('',#1402,4.16666666666667,0.785398163397455);
#34=CONICAL_SURFACE('',#1408,3.66666666666667,0.785398163397448);
#35=CONICAL_SURFACE('',#1410,3.66666666666666,0.785398163397448);
#36=CYLINDRICAL_SURFACE('',#1332,4.);
#37=CYLINDRICAL_SURFACE('',#1340,4.16666666666667);
#38=CYLINDRICAL_SURFACE('',#1343,4.16666666666667);
#39=CYLINDRICAL_SURFACE('',#1346,4.);
#40=CYLINDRICAL_SURFACE('',#1356,1.75);
#41=CYLINDRICAL_SURFACE('',#1415,0.2);
#42=CYLINDRICAL_SURFACE('',#1416,0.2);
#43=CYLINDRICAL_SURFACE('',#1417,0.2);
#44=CYLINDRICAL_SURFACE('',#1418,0.2);
#45=CYLINDRICAL_SURFACE('',#1419,0.2);
#46=CYLINDRICAL_SURFACE('',#1420,0.2);
#47=CYLINDRICAL_SURFACE('',#1421,2.);
#48=CYLINDRICAL_SURFACE('',#1422,2.);
#49=CYLINDRICAL_SURFACE('',#1423,2.);
#50=CYLINDRICAL_SURFACE('',#1424,2.);
#51=FACE_BOUND('',#169,.T.);
#52=FACE_BOUND('',#170,.T.);
#53=FACE_BOUND('',#173,.T.);
#54=FACE_BOUND('',#185,.T.);
#55=FACE_BOUND('',#193,.T.);
#56=FACE_BOUND('',#194,.T.);
#57=FACE_BOUND('',#196,.T.);
#58=FACE_BOUND('',#198,.T.);
#59=FACE_BOUND('',#199,.T.);
#60=CIRCLE('',#1321,0.2);
#61=CIRCLE('',#1322,0.2);
#62=CIRCLE('',#1326,3.66666666666666);
#63=CIRCLE('',#1327,3.66666666666666);
#64=CIRCLE('',#1328,0.2);
#65=CIRCLE('',#1329,0.2);
#66=CIRCLE('',#1330,0.2);
#67=CIRCLE('',#1331,0.2);
#68=CIRCLE('',#1333,4.);
#69=CIRCLE('',#1334,4.);
#70=CIRCLE('',#1338,4.);
#71=CIRCLE('',#1341,4.16666666666667);
#72=CIRCLE('',#1342,4.16666666666667);
#73=CIRCLE('',#1344,4.16666666666667);
#74=CIRCLE('',#1345,4.16666666666667);
#75=CIRCLE('',#1347,4.);
#76=CIRCLE('',#1351,3.66666666666666);
#77=CIRCLE('',#1352,3.66666666666667);
#78=CIRCLE('',#1353,2.25);
#79=CIRCLE('',#1357,1.75);
#80=CIRCLE('',#1358,1.75);
#81=CIRCLE('',#1364,0.2);
#82=CIRCLE('',#1365,0.2);
#83=CIRCLE('',#1366,0.2);
#84=CIRCLE('',#1367,0.2);
#85=CIRCLE('',#1368,0.2);
#86=CIRCLE('',#1369,0.2);
#87=CIRCLE('',#1392,104.889902355628);
#88=CIRCLE('',#1393,104.889902355906);
#89=CIRCLE('',#1395,104.889902356475);
#90=CIRCLE('',#1400,104.889902356171);
#91=CIRCLE('',#1404,104.889902355938);
#92=CIRCLE('',#1407,104.889902356239);
#93=CIRCLE('',#1409,104.889902355548);
#94=CIRCLE('',#1411,104.889902356099);
#95=CIRCLE('',#1426,2.08333333333333);
#96=CIRCLE('',#1427,2.08333333333333);
#97=CIRCLE('',#1428,0.5);
#98=CIRCLE('',#1430,0.2);
#99=FACE_OUTER_BOUND('',#165,.T.);
#100=FACE_OUTER_BOUND('',#166,.T.);
#101=FACE_OUTER_BOUND('',#167,.T.);
#102=FACE_OUTER_BOUND('',#168,.T.);
#103=FACE_OUTER_BOUND('',#171,.T.);
#104=FACE_OUTER_BOUND('',#172,.T.);
#105=FACE_OUTER_BOUND('',#174,.T.);
#106=FACE_OUTER_BOUND('',#175,.T.);
#107=FACE_OUTER_BOUND('',#176,.T.);
#108=FACE_OUTER_BOUND('',#177,.T.);
#109=FACE_OUTER_BOUND('',#178,.T.);
#110=FACE_OUTER_BOUND('',#179,.T.);
#111=FACE_OUTER_BOUND('',#180,.T.);
#112=FACE_OUTER_BOUND('',#181,.T.);
#113=FACE_OUTER_BOUND('',#182,.T.);
#114=FACE_OUTER_BOUND('',#183,.T.);
#115=FACE_OUTER_BOUND('',#184,.T.);
#116=FACE_OUTER_BOUND('',#186,.T.);
#117=FACE_OUTER_BOUND('',#187,.T.);
#118=FACE_OUTER_BOUND('',#188,.T.);
#119=FACE_OUTER_BOUND('',#189,.T.);
#120=FACE_OUTER_BOUND('',#190,.T.);
#121=FACE_OUTER_BOUND('',#191,.T.);
#122=FACE_OUTER_BOUND('',#192,.T.);
#123=FACE_OUTER_BOUND('',#195,.T.);
#124=FACE_OUTER_BOUND('',#197,.T.);
#125=FACE_OUTER_BOUND('',#200,.T.);
#126=FACE_OUTER_BOUND('',#201,.T.);
#127=FACE_OUTER_BOUND('',#202,.T.);
#128=FACE_OUTER_BOUND('',#203,.T.);
#129=FACE_OUTER_BOUND('',#204,.T.);
#130=FACE_OUTER_BOUND('',#205,.T.);
#131=FACE_OUTER_BOUND('',#206,.T.);
#132=FACE_OUTER_BOUND('',#207,.T.);
#133=FACE_OUTER_BOUND('',#208,.T.);
#134=FACE_OUTER_BOUND('',#209,.T.);
#135=FACE_OUTER_BOUND('',#210,.T.);
#136=FACE_OUTER_BOUND('',#211,.T.);
#137=FACE_OUTER_BOUND('',#212,.T.);
#138=FACE_OUTER_BOUND('',#213,.T.);
#139=FACE_OUTER_BOUND('',#214,.T.);
#140=FACE_OUTER_BOUND('',#215,.T.);
#141=FACE_OUTER_BOUND('',#216,.T.);
#142=FACE_OUTER_BOUND('',#217,.T.);
#143=FACE_OUTER_BOUND('',#218,.T.);
#144=FACE_OUTER_BOUND('',#219,.T.);
#145=FACE_OUTER_BOUND('',#220,.T.);
#146=FACE_OUTER_BOUND('',#221,.T.);
#147=FACE_OUTER_BOUND('',#222,.T.);
#148=FACE_OUTER_BOUND('',#223,.T.);
#149=FACE_OUTER_BOUND('',#224,.T.);
#150=FACE_OUTER_BOUND('',#225,.T.);
#151=FACE_OUTER_BOUND('',#226,.T.);
#152=FACE_OUTER_BOUND('',#227,.T.);
#153=FACE_OUTER_BOUND('',#228,.T.);
#154=FACE_OUTER_BOUND('',#229,.T.);
#155=FACE_OUTER_BOUND('',#230,.T.);
#156=FACE_OUTER_BOUND('',#231,.T.);
#157=FACE_OUTER_BOUND('',#232,.T.);
#158=FACE_OUTER_BOUND('',#233,.T.);
#159=FACE_OUTER_BOUND('',#234,.T.);
#160=FACE_OUTER_BOUND('',#235,.T.);
#161=FACE_OUTER_BOUND('',#236,.T.);
#162=FACE_OUTER_BOUND('',#237,.T.);
#163=FACE_OUTER_BOUND('',#238,.T.);
#164=FACE_OUTER_BOUND('',#239,.T.);
#165=EDGE_LOOP('',(#775,#776,#777,#778,#779,#780));
#166=EDGE_LOOP('',(#781,#782,#783,#784,#785,#786));
#167=EDGE_LOOP('',(#787,#788,#789,#790,#791,#792));
#168=EDGE_LOOP('',(#793,#794,#795,#796));
#169=EDGE_LOOP('',(#797,#798,#799,#800));
#170=EDGE_LOOP('',(#801,#802,#803,#804));
#171=EDGE_LOOP('',(#805,#806,#807,#808));
#172=EDGE_LOOP('',(#809,#810,#811,#812));
#173=EDGE_LOOP('',(#813,#814,#815,#816,#817,#818,#819,#820));
#174=EDGE_LOOP('',(#821,#822,#823,#824));
#175=EDGE_LOOP('',(#825,#826,#827,#828));
#176=EDGE_LOOP('',(#829,#830,#831,#832));
#177=EDGE_LOOP('',(#833,#834,#835,#836,#837,#838,#839,#840));
#178=EDGE_LOOP('',(#841,#842,#843,#844,#845,#846,#847,#848));
#179=EDGE_LOOP('',(#849,#850,#851,#852));
#180=EDGE_LOOP('',(#853,#854,#855,#856));
#181=EDGE_LOOP('',(#857,#858,#859,#860));
#182=EDGE_LOOP('',(#861,#862,#863,#864));
#183=EDGE_LOOP('',(#865,#866,#867,#868));
#184=EDGE_LOOP('',(#869,#870,#871,#872));
#185=EDGE_LOOP('',(#873));
#186=EDGE_LOOP('',(#874,#875,#876,#877));
#187=EDGE_LOOP('',(#878,#879,#880,#881));
#188=EDGE_LOOP('',(#882,#883,#884,#885));
#189=EDGE_LOOP('',(#886));
#190=EDGE_LOOP('',(#887,#888,#889,#890));
#191=EDGE_LOOP('',(#891,#892,#893,#894));
#192=EDGE_LOOP('',(#895,#896,#897,#898));
#193=EDGE_LOOP('',(#899,#900,#901,#902));
#194=EDGE_LOOP('',(#903,#904,#905,#906));
#195=EDGE_LOOP('',(#907,#908,#909,#910,#911,#912,#913,#914));
#196=EDGE_LOOP('',(#915,#916,#917,#918,#919,#920));
#197=EDGE_LOOP('',(#921,#922,#923,#924));
#198=EDGE_LOOP('',(#925,#926,#927,#928));
#199=EDGE_LOOP('',(#929,#930,#931,#932));
#200=EDGE_LOOP('',(#933,#934,#935,#936));
#201=EDGE_LOOP('',(#937,#938,#939,#940));
#202=EDGE_LOOP('',(#941,#942,#943,#944));
#203=EDGE_LOOP('',(#945,#946,#947,#948));
#204=EDGE_LOOP('',(#949,#950,#951,#952));
#205=EDGE_LOOP('',(#953,#954,#955,#956));
#206=EDGE_LOOP('',(#957,#958,#959,#960));
#207=EDGE_LOOP('',(#961,#962,#963,#964));
#208=EDGE_LOOP('',(#965,#966,#967,#968));
#209=EDGE_LOOP('',(#969,#970,#971,#972));
#210=EDGE_LOOP('',(#973,#974,#975,#976));
#211=EDGE_LOOP('',(#977,#978,#979,#980));
#212=EDGE_LOOP('',(#981,#982,#983,#984));
#213=EDGE_LOOP('',(#985,#986,#987,#988));
#214=EDGE_LOOP('',(#989,#990,#991,#992));
#215=EDGE_LOOP('',(#993,#994,#995,#996));
#216=EDGE_LOOP('',(#997,#998,#999,#1000));
#217=EDGE_LOOP('',(#1001,#1002,#1003,#1004));
#218=EDGE_LOOP('',(#1005,#1006,#1007,#1008));
#219=EDGE_LOOP('',(#1009,#1010,#1011,#1012));
#220=EDGE_LOOP('',(#1013,#1014,#1015,#1016,#1017,#1018));
#221=EDGE_LOOP('',(#1019,#1020,#1021,#1022,#1023,#1024));
#222=EDGE_LOOP('',(#1025,#1026,#1027,#1028,#1029,#1030));
#223=EDGE_LOOP('',(#1031,#1032,#1033,#1034,#1035,#1036));
#224=EDGE_LOOP('',(#1037,#1038,#1039,#1040,#1041,#1042,#1043,#1044,#1045,
#1046));
#225=EDGE_LOOP('',(#1047,#1048,#1049,#1050,#1051,#1052));
#226=EDGE_LOOP('',(#1053,#1054,#1055,#1056,#1057,#1058));
#227=EDGE_LOOP('',(#1059,#1060,#1061,#1062,#1063,#1064,#1065,#1066,#1067,
#1068));
#228=EDGE_LOOP('',(#1069,#1070,#1071,#1072));
#229=EDGE_LOOP('',(#1073,#1074,#1075,#1076));
#230=EDGE_LOOP('',(#1077,#1078,#1079,#1080));
#231=EDGE_LOOP('',(#1081,#1082,#1083,#1084));
#232=EDGE_LOOP('',(#1085,#1086,#1087,#1088));
#233=EDGE_LOOP('',(#1089,#1090,#1091,#1092));
#234=EDGE_LOOP('',(#1093,#1094,#1095,#1096,#1097,#1098));
#235=EDGE_LOOP('',(#1099,#1100,#1101,#1102,#1103,#1104));
#236=EDGE_LOOP('',(#1105,#1106,#1107,#1108,#1109,#1110));
#237=EDGE_LOOP('',(#1111,#1112,#1113,#1114,#1115,#1116));
#238=EDGE_LOOP('',(#1117,#1118,#1119,#1120,#1121));
#239=EDGE_LOOP('',(#1122,#1123,#1124,#1125,#1126));
#240=LINE('',#1784,#361);
#241=LINE('',#1786,#362);
#242=LINE('',#1788,#363);
#243=LINE('',#1790,#364);
#244=LINE('',#1792,#365);
#245=LINE('',#1793,#366);
#246=LINE('',#1797,#367);
#247=LINE('',#1799,#368);
#248=LINE('',#1801,#369);
#249=LINE('',#1803,#370);
#250=LINE('',#1805,#371);
#251=LINE('',#1806,#372);
#252=LINE('',#1811,#373);
#253=LINE('',#1813,#374);
#254=LINE('',#1817,#375);
#255=LINE('',#1819,#376);
#256=LINE('',#1821,#377);
#257=LINE('',#1822,#378);
#258=LINE('',#1825,#379);
#259=LINE('',#1827,#380);
#260=LINE('',#1829,#381);
#261=LINE('',#1830,#382);
#262=LINE('',#1833,#383);
#263=LINE('',#1835,#384);
#264=LINE('',#1837,#385);
#265=LINE('',#1838,#386);
#266=LINE('',#1840,#387);
#267=LINE('',#1841,#388);
#268=LINE('',#1845,#389);
#269=LINE('',#1849,#390);
#270=LINE('',#1853,#391);
#271=LINE('',#1857,#392);
#272=LINE('',#1861,#393);
#273=LINE('',#1869,#394);
#274=LINE('',#1872,#395);
#275=LINE('',#1875,#396);
#276=LINE('',#1877,#397);
#277=LINE('',#1878,#398);
#278=LINE('',#1881,#399);
#279=LINE('',#1883,#400);
#280=LINE('',#1884,#401);
#281=LINE('',#1888,#402);
#282=LINE('',#1890,#403);
#283=LINE('',#1892,#404);
#284=LINE('',#1894,#405);
#285=LINE('',#1898,#406);
#286=LINE('',#1900,#407);
#287=LINE('',#1901,#408);
#288=LINE('',#1904,#409);
#289=LINE('',#1906,#410);
#290=LINE('',#1908,#411);
#291=LINE('',#1910,#412);
#292=LINE('',#1911,#413);
#293=LINE('',#1917,#414);
#294=LINE('',#1920,#415);
#295=LINE('',#1926,#416);
#296=LINE('',#1929,#417);
#297=LINE('',#1932,#418);
#298=LINE('',#1935,#419);
#299=LINE('',#1938,#420);
#300=LINE('',#1939,#421);
#301=LINE('',#1942,#422);
#302=LINE('',#1943,#423);
#303=LINE('',#1947,#424);
#304=LINE('',#1951,#425);
#305=LINE('',#1956,#426);
#306=LINE('',#1958,#427);
#307=LINE('',#1963,#428);
#308=LINE('',#1969,#429);
#309=LINE('',#1970,#430);
#310=LINE('',#1971,#431);
#311=LINE('',#1975,#432);
#312=LINE('',#1976,#433);
#313=LINE('',#1977,#434);
#314=LINE('',#1980,#435);
#315=LINE('',#1982,#436);
#316=LINE('',#1983,#437);
#317=LINE('',#1986,#438);
#318=LINE('',#1988,#439);
#319=LINE('',#1990,#440);
#320=LINE('',#1991,#441);
#321=LINE('',#1994,#442);
#322=LINE('',#1996,#443);
#323=LINE('',#1998,#444);
#324=LINE('',#1999,#445);
#325=LINE('',#2008,#446);
#326=LINE('',#2011,#447);
#327=LINE('',#2012,#448);
#328=LINE('',#2015,#449);
#329=LINE('',#2017,#450);
#330=LINE('',#2019,#451);
#331=LINE('',#2020,#452);
#332=LINE('',#2023,#453);
#333=LINE('',#2025,#454);
#334=LINE('',#2027,#455);
#335=LINE('',#2028,#456);
#336=LINE('',#2030,#457);
#337=LINE('',#2031,#458);
#338=LINE('',#2033,#459);
#339=LINE('',#2035,#460);
#340=LINE('',#2038,#461);
#341=LINE('',#2039,#462);
#342=LINE('',#2041,#463);
#343=LINE('',#2043,#464);
#344=LINE('',#2047,#465);
#345=LINE('',#2049,#466);
#346=LINE('',#2050,#467);
#347=LINE('',#2053,#468);
#348=LINE('',#2054,#469);
#349=LINE('',#2057,#470);
#350=LINE('',#2058,#471);
#351=LINE('',#2060,#472);
#352=LINE('',#2063,#473);
#353=LINE('',#2065,#474);
#354=LINE('',#2066,#475);
#355=LINE('',#2069,#476);
#356=LINE('',#2070,#477);
#357=LINE('',#2073,#478);
#358=LINE('',#2074,#479);
#359=LINE('',#2076,#480);
#360=LINE('',#2080,#481);
#361=VECTOR('',#1435,2.6);
#362=VECTOR('',#1436,13.5);
#363=VECTOR('',#1437,1.25);
#364=VECTOR('',#1438,12.9);
#365=VECTOR('',#1439,1.35);
#366=VECTOR('',#1440,0.599999999999996);
#367=VECTOR('',#1443,1.25);
#368=VECTOR('',#1444,13.5);
#369=VECTOR('',#1445,2.6);
#370=VECTOR('',#1446,0.599999999999996);
#371=VECTOR('',#1447,1.35);
#372=VECTOR('',#1448,12.9);
#373=VECTOR('',#1453,11.4);
#374=VECTOR('',#1456,11.8);
#375=VECTOR('',#1459,11.6);
#376=VECTOR('',#1460,13.);
#377=VECTOR('',#1461,11.6);
#378=VECTOR('',#1462,13.);
#379=VECTOR('',#1463,2.);
#380=VECTOR('',#1464,3.);
#381=VECTOR('',#1465,2.);
#382=VECTOR('',#1466,3.);
#383=VECTOR('',#1467,2.);
#384=VECTOR('',#1468,3.);
#385=VECTOR('',#1469,2.);
#386=VECTOR('',#1470,3.);
#387=VECTOR('',#1473,11.8);
#388=VECTOR('',#1474,11.8);
#389=VECTOR('',#1477,13.8524795081046);
#390=VECTOR('',#1480,13.8524795081045);
#391=VECTOR('',#1483,2.6);
#392=VECTOR('',#1486,11.6);
#393=VECTOR('',#1489,2.6);
#394=VECTOR('',#1498,0.25);
#395=VECTOR('',#1501,0.25);
#396=VECTOR('',#1504,14.5);
#397=VECTOR('',#1505,0.353553390593277);
#398=VECTOR('',#1506,14.75);
#399=VECTOR('',#1509,14.75);
#400=VECTOR('',#1510,0.353553390593274);
#401=VECTOR('',#1511,14.5);
#402=VECTOR('',#1514,13.3333333333333);
#403=VECTOR('',#1515,31.);
#404=VECTOR('',#1516,2.66666666666667);
#405=VECTOR('',#1517,14.5);
#406=VECTOR('',#1520,14.5);
#407=VECTOR('',#1521,2.66666666666667);
#408=VECTOR('',#1522,31.);
#409=VECTOR('',#1525,2.66666666666667);
#410=VECTOR('',#1526,31.);
#411=VECTOR('',#1527,13.3333333333333);
#412=VECTOR('',#1528,31.);
#413=VECTOR('',#1529,2.66666666666667);
#414=VECTOR('',#1534,31.);
#415=VECTOR('',#1537,31.);
#416=VECTOR('',#1542,31.);
#417=VECTOR('',#1545,31.);
#418=VECTOR('',#1548,0.25);
#419=VECTOR('',#1551,0.25);
#420=VECTOR('',#1554,14.75);
#421=VECTOR('',#1555,0.353553390593274);
#422=VECTOR('',#1558,0.353553390593274);
#423=VECTOR('',#1559,14.75);
#424=VECTOR('',#1562,13.8524795081046);
#425=VECTOR('',#1565,13.8524795081046);
#426=VECTOR('',#1572,8.);
#427=VECTOR('',#1575,8.);
#428=VECTOR('',#1580,1.75);
#429=VECTOR('',#1587,2.6);
#430=VECTOR('',#1588,13.);
#431=VECTOR('',#1589,13.);
#432=VECTOR('',#1592,2.6);
#433=VECTOR('',#1593,13.);
#434=VECTOR('',#1594,13.);
#435=VECTOR('',#1597,13.);
#436=VECTOR('',#1598,11.6);
#437=VECTOR('',#1599,13.);
#438=VECTOR('',#1600,3.);
#439=VECTOR('',#1601,2.);
#440=VECTOR('',#1602,3.);
#441=VECTOR('',#1603,2.);
#442=VECTOR('',#1604,3.);
#443=VECTOR('',#1605,2.);
#444=VECTOR('',#1606,3.);
#445=VECTOR('',#1607,2.);
#446=VECTOR('',#1620,11.4);
#447=VECTOR('',#1625,13.5);
#448=VECTOR('',#1626,13.5);
#449=VECTOR('',#1627,3.);
#450=VECTOR('',#1628,2.);
#451=VECTOR('',#1629,3.);
#452=VECTOR('',#1630,2.);
#453=VECTOR('',#1631,3.);
#454=VECTOR('',#1632,2.);
#455=VECTOR('',#1633,3.);
#456=VECTOR('',#1634,2.);
#457=VECTOR('',#1637,0.1);
#458=VECTOR('',#1638,0.1);
#459=VECTOR('',#1641,0.1);
#460=VECTOR('',#1644,0.1);
#461=VECTOR('',#1649,0.1);
#462=VECTOR('',#1650,0.1);
#463=VECTOR('',#1653,0.1);
#464=VECTOR('',#1656,0.1);
#465=VECTOR('',#1661,0.0999999999999995);
#466=VECTOR('',#1662,2.);
#467=VECTOR('',#1663,0.1);
#468=VECTOR('',#1666,3.);
#469=VECTOR('',#1667,0.1);
#470=VECTOR('',#1670,2.);
#471=VECTOR('',#1671,0.1);
#472=VECTOR('',#1674,3.);
#473=VECTOR('',#1677,0.0999999999999998);
#474=VECTOR('',#1678,2.);
#475=VECTOR('',#1679,0.1);
#476=VECTOR('',#1682,3.);
#477=VECTOR('',#1683,0.1);
#478=VECTOR('',#1686,2.);
#479=VECTOR('',#1687,0.1);
#480=VECTOR('',#1690,3.);
#481=VECTOR('',#1697,11.8);
#482=VERTEX_POINT('',#1782);
#483=VERTEX_POINT('',#1783);
#484=VERTEX_POINT('',#1785);
#485=VERTEX_POINT('',#1787);
#486=VERTEX_POINT('',#1789);
#487=VERTEX_POINT('',#1791);
#488=VERTEX_POINT('',#1795);
#489=VERTEX_POINT('',#1796);
#490=VERTEX_POINT('',#1798);
#491=VERTEX_POINT('',#1800);
#492=VERTEX_POINT('',#1802);
#493=VERTEX_POINT('',#1804);
#494=VERTEX_POINT('',#1808);
#495=VERTEX_POINT('',#1810);
#496=VERTEX_POINT('',#1815);
#497=VERTEX_POINT('',#1816);
#498=VERTEX_POINT('',#1818);
#499=VERTEX_POINT('',#1820);
#500=VERTEX_POINT('',#1823);
#501=VERTEX_POINT('',#1824);
#502=VERTEX_POINT('',#1826);
#503=VERTEX_POINT('',#1828);
#504=VERTEX_POINT('',#1831);
#505=VERTEX_POINT('',#1832);
#506=VERTEX_POINT('',#1834);
#507=VERTEX_POINT('',#1836);
#508=VERTEX_POINT('',#1843);
#509=VERTEX_POINT('',#1844);
#510=VERTEX_POINT('',#1846);
#511=VERTEX_POINT('',#1848);
#512=VERTEX_POINT('',#1851);
#513=VERTEX_POINT('',#1852);
#514=VERTEX_POINT('',#1854);
#515=VERTEX_POINT('',#1856);
#516=VERTEX_POINT('',#1858);
#517=VERTEX_POINT('',#1860);
#518=VERTEX_POINT('',#1865);
#519=VERTEX_POINT('',#1866);
#520=VERTEX_POINT('',#1868);
#521=VERTEX_POINT('',#1870);
#522=VERTEX_POINT('',#1874);
#523=VERTEX_POINT('',#1876);
#524=VERTEX_POINT('',#1880);
#525=VERTEX_POINT('',#1882);
#526=VERTEX_POINT('',#1886);
#527=VERTEX_POINT('',#1887);
#528=VERTEX_POINT('',#1889);
#529=VERTEX_POINT('',#1891);
#530=VERTEX_POINT('',#1893);
#531=VERTEX_POINT('',#1895);
#532=VERTEX_POINT('',#1897);
#533=VERTEX_POINT('',#1899);
#534=VERTEX_POINT('',#1903);
#535=VERTEX_POINT('',#1905);
#536=VERTEX_POINT('',#1907);
#537=VERTEX_POINT('',#1909);
#538=VERTEX_POINT('',#1913);
#539=VERTEX_POINT('',#1914);
#540=VERTEX_POINT('',#1916);
#541=VERTEX_POINT('',#1918);
#542=VERTEX_POINT('',#1922);
#543=VERTEX_POINT('',#1923);
#544=VERTEX_POINT('',#1925);
#545=VERTEX_POINT('',#1927);
#546=VERTEX_POINT('',#1931);
#547=VERTEX_POINT('',#1933);
#548=VERTEX_POINT('',#1937);
#549=VERTEX_POINT('',#1941);
#550=VERTEX_POINT('',#1945);
#551=VERTEX_POINT('',#1946);
#552=VERTEX_POINT('',#1948);
#553=VERTEX_POINT('',#1950);
#554=VERTEX_POINT('',#1953);
#555=VERTEX_POINT('',#1960);
#556=VERTEX_POINT('',#1962);
#557=VERTEX_POINT('',#1967);
#558=VERTEX_POINT('',#1968);
#559=VERTEX_POINT('',#1973);
#560=VERTEX_POINT('',#1974);
#561=VERTEX_POINT('',#1979);
#562=VERTEX_POINT('',#1981);
#563=VERTEX_POINT('',#1984);
#564=VERTEX_POINT('',#1985);
#565=VERTEX_POINT('',#1987);
#566=VERTEX_POINT('',#1989);
#567=VERTEX_POINT('',#1992);
#568=VERTEX_POINT('',#1993);
#569=VERTEX_POINT('',#1995);
#570=VERTEX_POINT('',#1997);
#571=VERTEX_POINT('',#2005);
#572=VERTEX_POINT('',#2007);
#573=VERTEX_POINT('',#2013);
#574=VERTEX_POINT('',#2014);
#575=VERTEX_POINT('',#2016);
#576=VERTEX_POINT('',#2018);
#577=VERTEX_POINT('',#2021);
#578=VERTEX_POINT('',#2022);
#579=VERTEX_POINT('',#2024);
#580=VERTEX_POINT('',#2026);
#581=VERTEX_POINT('',#2046);
#582=VERTEX_POINT('',#2048);
#583=VERTEX_POINT('',#2052);
#584=VERTEX_POINT('',#2056);
#585=VERTEX_POINT('',#2062);
#586=VERTEX_POINT('',#2064);
#587=VERTEX_POINT('',#2068);
#588=VERTEX_POINT('',#2072);
#589=VERTEX_POINT('',#2083);
#590=VERTEX_POINT('',#2089);
#591=VERTEX_POINT('',#2096);
#592=VERTEX_POINT('',#2101);
#593=VERTEX_POINT('',#2115);
#594=VERTEX_POINT('',#2118);
#595=VERTEX_POINT('',#2126);
#596=VERTEX_POINT('',#2137);
#597=VERTEX_POINT('',#2157);
#598=VERTEX_POINT('',#2158);
#599=EDGE_CURVE('',#482,#483,#240,.T.);
#600=EDGE_CURVE('',#483,#484,#241,.F.);
#601=EDGE_CURVE('',#485,#484,#242,.T.);
#602=EDGE_CURVE('',#486,#485,#243,.T.);
#603=EDGE_CURVE('',#487,#486,#244,.T.);
#604=EDGE_CURVE('',#487,#482,#245,.T.);
#605=EDGE_CURVE('',#488,#489,#246,.T.);
#606=EDGE_CURVE('',#488,#490,#247,.T.);
#607=EDGE_CURVE('',#490,#491,#248,.T.);
#608=EDGE_CURVE('',#492,#491,#249,.T.);
#609=EDGE_CURVE('',#493,#492,#250,.T.);
#610=EDGE_CURVE('',#493,#489,#251,.T.);
#611=EDGE_CURVE('',#484,#494,#60,.T.);
#612=EDGE_CURVE('',#494,#495,#252,.T.);
#613=EDGE_CURVE('',#495,#488,#61,.T.);
#614=EDGE_CURVE('',#485,#489,#253,.T.);
#615=EDGE_CURVE('',#496,#497,#254,.T.);
#616=EDGE_CURVE('',#496,#498,#255,.T.);
#617=EDGE_CURVE('',#498,#499,#256,.T.);
#618=EDGE_CURVE('',#499,#497,#257,.F.);
#619=EDGE_CURVE('',#500,#501,#258,.T.);
#620=EDGE_CURVE('',#501,#502,#259,.T.);
#621=EDGE_CURVE('',#502,#503,#260,.T.);
#622=EDGE_CURVE('',#503,#500,#261,.T.);
#623=EDGE_CURVE('',#504,#505,#262,.T.);
#624=EDGE_CURVE('',#505,#506,#263,.T.);
#625=EDGE_CURVE('',#506,#507,#264,.T.);
#626=EDGE_CURVE('',#507,#504,#265,.T.);
#627=EDGE_CURVE('',#492,#487,#266,.T.);
#628=EDGE_CURVE('',#491,#482,#267,.T.);
#629=EDGE_CURVE('',#508,#509,#268,.T.);
#630=EDGE_CURVE('',#509,#510,#62,.F.);
#631=EDGE_CURVE('',#510,#511,#269,.T.);
#632=EDGE_CURVE('',#511,#508,#63,.F.);
#633=EDGE_CURVE('',#512,#513,#270,.T.);
#634=EDGE_CURVE('',#512,#514,#64,.T.);
#635=EDGE_CURVE('',#515,#514,#271,.T.);
#636=EDGE_CURVE('',#515,#516,#65,.T.);
#637=EDGE_CURVE('',#517,#516,#272,.T.);
#638=EDGE_CURVE('',#517,#499,#66,.T.);
#639=EDGE_CURVE('',#498,#513,#67,.T.);
#640=EDGE_CURVE('',#518,#519,#68,.T.);
#641=EDGE_CURVE('',#520,#519,#273,.T.);
#642=EDGE_CURVE('',#521,#520,#69,.T.);
#643=EDGE_CURVE('',#521,#518,#274,.T.);
#644=EDGE_CURVE('',#521,#522,#275,.T.);
#645=EDGE_CURVE('',#522,#523,#276,.T.);
#646=EDGE_CURVE('',#523,#518,#277,.T.);
#647=EDGE_CURVE('',#519,#524,#278,.T.);
#648=EDGE_CURVE('',#524,#525,#279,.T.);
#649=EDGE_CURVE('',#520,#525,#280,.T.);
#650=EDGE_CURVE('',#526,#527,#281,.T.);
#651=EDGE_CURVE('',#527,#528,#282,.T.);
#652=EDGE_CURVE('',#528,#529,#283,.T.);
#653=EDGE_CURVE('',#530,#529,#284,.T.);
#654=EDGE_CURVE('',#531,#530,#70,.T.);
#655=EDGE_CURVE('',#531,#532,#285,.T.);
#656=EDGE_CURVE('',#532,#533,#286,.T.);
#657=EDGE_CURVE('',#533,#526,#287,.T.);
#658=EDGE_CURVE('',#525,#534,#288,.T.);
#659=EDGE_CURVE('',#534,#535,#289,.T.);
#660=EDGE_CURVE('',#535,#536,#290,.T.);
#661=EDGE_CURVE('',#536,#537,#291,.T.);
#662=EDGE_CURVE('',#537,#522,#292,.T.);
#663=EDGE_CURVE('',#538,#539,#71,.F.);
#664=EDGE_CURVE('',#539,#540,#293,.F.);
#665=EDGE_CURVE('',#540,#541,#72,.T.);
#666=EDGE_CURVE('',#541,#538,#294,.T.);
#667=EDGE_CURVE('',#542,#543,#73,.T.);
#668=EDGE_CURVE('',#543,#544,#295,.T.);
#669=EDGE_CURVE('',#544,#545,#74,.F.);
#670=EDGE_CURVE('',#545,#542,#296,.F.);
#671=EDGE_CURVE('',#546,#530,#297,.T.);
#672=EDGE_CURVE('',#547,#546,#75,.T.);
#673=EDGE_CURVE('',#547,#531,#298,.T.);
#674=EDGE_CURVE('',#547,#548,#299,.T.);
#675=EDGE_CURVE('',#548,#532,#300,.F.);
#676=EDGE_CURVE('',#529,#549,#301,.F.);
#677=EDGE_CURVE('',#549,#546,#302,.T.);
#678=EDGE_CURVE('',#550,#551,#303,.T.);
#679=EDGE_CURVE('',#551,#552,#76,.T.);
#680=EDGE_CURVE('',#552,#553,#304,.T.);
#681=EDGE_CURVE('',#553,#550,#77,.T.);
#682=EDGE_CURVE('',#554,#554,#78,.T.);
#683=EDGE_CURVE('',#549,#548,#305,.F.);
#684=EDGE_CURVE('',#523,#524,#306,.T.);
#685=EDGE_CURVE('',#555,#555,#79,.F.);
#686=EDGE_CURVE('',#555,#556,#307,.T.);
#687=EDGE_CURVE('',#556,#556,#80,.T.);
#688=EDGE_CURVE('',#557,#558,#308,.T.);
#689=EDGE_CURVE('',#557,#512,#309,.T.);
#690=EDGE_CURVE('',#513,#558,#310,.F.);
#691=EDGE_CURVE('',#559,#560,#311,.T.);
#692=EDGE_CURVE('',#559,#517,#312,.T.);
#693=EDGE_CURVE('',#516,#560,#313,.F.);
#694=EDGE_CURVE('',#514,#561,#314,.F.);
#695=EDGE_CURVE('',#562,#561,#315,.T.);
#696=EDGE_CURVE('',#562,#515,#316,.T.);
#697=EDGE_CURVE('',#563,#564,#317,.T.);
#698=EDGE_CURVE('',#565,#563,#318,.T.);
#699=EDGE_CURVE('',#566,#565,#319,.T.);
#700=EDGE_CURVE('',#564,#566,#320,.T.);
#701=EDGE_CURVE('',#567,#568,#321,.T.);
#702=EDGE_CURVE('',#569,#567,#322,.T.);
#703=EDGE_CURVE('',#570,#569,#323,.T.);
#704=EDGE_CURVE('',#568,#570,#324,.T.);
#705=EDGE_CURVE('',#561,#557,#81,.T.);
#706=EDGE_CURVE('',#558,#496,#82,.T.);
#707=EDGE_CURVE('',#497,#559,#83,.T.);
#708=EDGE_CURVE('',#560,#562,#84,.T.);
#709=EDGE_CURVE('',#490,#571,#85,.F.);
#710=EDGE_CURVE('',#572,#571,#325,.T.);
#711=EDGE_CURVE('',#572,#483,#86,.F.);
#712=EDGE_CURVE('',#494,#572,#326,.T.);
#713=EDGE_CURVE('',#571,#495,#327,.F.);
#714=EDGE_CURVE('',#573,#574,#328,.T.);
#715=EDGE_CURVE('',#574,#575,#329,.T.);
#716=EDGE_CURVE('',#575,#576,#330,.T.);
#717=EDGE_CURVE('',#576,#573,#331,.T.);
#718=EDGE_CURVE('',#577,#578,#332,.T.);
#719=EDGE_CURVE('',#578,#579,#333,.T.);
#720=EDGE_CURVE('',#579,#580,#334,.T.);
#721=EDGE_CURVE('',#580,#577,#335,.T.);
#722=EDGE_CURVE('',#579,#567,#336,.T.);
#723=EDGE_CURVE('',#578,#569,#337,.T.);
#724=EDGE_CURVE('',#577,#570,#338,.T.);
#725=EDGE_CURVE('',#580,#568,#339,.T.);
#726=EDGE_CURVE('',#575,#563,#340,.T.);
#727=EDGE_CURVE('',#574,#565,#341,.T.);
#728=EDGE_CURVE('',#573,#566,#342,.T.);
#729=EDGE_CURVE('',#576,#564,#343,.T.);
#730=EDGE_CURVE('',#581,#504,#344,.T.);
#731=EDGE_CURVE('',#581,#582,#345,.T.);
#732=EDGE_CURVE('',#582,#505,#346,.T.);
#733=EDGE_CURVE('',#582,#583,#347,.T.);
#734=EDGE_CURVE('',#583,#506,#348,.T.);
#735=EDGE_CURVE('',#583,#584,#349,.T.);
#736=EDGE_CURVE('',#584,#507,#350,.T.);
#737=EDGE_CURVE('',#584,#581,#351,.T.);
#738=EDGE_CURVE('',#585,#500,#352,.T.);
#739=EDGE_CURVE('',#585,#586,#353,.T.);
#740=EDGE_CURVE('',#586,#501,#354,.T.);
#741=EDGE_CURVE('',#586,#587,#355,.T.);
#742=EDGE_CURVE('',#587,#502,#356,.T.);
#743=EDGE_CURVE('',#587,#588,#357,.T.);
#744=EDGE_CURVE('',#588,#503,#358,.T.);
#745=EDGE_CURVE('',#588,#585,#359,.T.);
#746=EDGE_CURVE('',#486,#493,#360,.T.);
#747=EDGE_CURVE('',#540,#589,#24,.T.);
#748=EDGE_CURVE('',#508,#589,#87,.F.);
#749=EDGE_CURVE('',#590,#511,#88,.T.);
#750=EDGE_CURVE('',#590,#541,#25,.T.);
#751=EDGE_CURVE('',#591,#510,#89,.F.);
#752=EDGE_CURVE('',#591,#527,#16,.T.);
#753=EDGE_CURVE('',#526,#590,#17,.T.);
#754=EDGE_CURVE('',#535,#592,#18,.F.);
#755=EDGE_CURVE('',#509,#592,#90,.F.);
#756=EDGE_CURVE('',#589,#536,#19,.F.);
#757=EDGE_CURVE('',#592,#543,#26,.T.);
#758=EDGE_CURVE('',#542,#591,#27,.T.);
#759=EDGE_CURVE('',#593,#550,#91,.T.);
#760=EDGE_CURVE('',#593,#534,#20,.T.);
#761=EDGE_CURVE('',#537,#594,#21,.T.);
#762=EDGE_CURVE('',#551,#594,#92,.T.);
#763=EDGE_CURVE('',#544,#593,#28,.T.);
#764=EDGE_CURVE('',#595,#553,#93,.T.);
#765=EDGE_CURVE('',#595,#545,#29,.T.);
#766=EDGE_CURVE('',#594,#539,#30,.T.);
#767=EDGE_CURVE('',#538,#596,#31,.T.);
#768=EDGE_CURVE('',#552,#596,#94,.F.);
#769=EDGE_CURVE('',#528,#595,#22,.F.);
#770=EDGE_CURVE('',#596,#533,#23,.F.);
#771=EDGE_CURVE('',#597,#598,#95,.T.);
#772=EDGE_CURVE('',#598,#597,#96,.T.);
#773=EDGE_CURVE('',#597,#554,#97,.T.);
#774=EDGE_CURVE('',#598,#555,#98,.T.);
#775=ORIENTED_EDGE('',*,*,#599,.T.);
#776=ORIENTED_EDGE('',*,*,#600,.T.);
#777=ORIENTED_EDGE('',*,*,#601,.F.);
#778=ORIENTED_EDGE('',*,*,#602,.F.);
#779=ORIENTED_EDGE('',*,*,#603,.F.);
#780=ORIENTED_EDGE('',*,*,#604,.T.);
#781=ORIENTED_EDGE('',*,*,#605,.F.);
#782=ORIENTED_EDGE('',*,*,#606,.T.);
#783=ORIENTED_EDGE('',*,*,#607,.T.);
#784=ORIENTED_EDGE('',*,*,#608,.F.);
#785=ORIENTED_EDGE('',*,*,#609,.F.);
#786=ORIENTED_EDGE('',*,*,#610,.T.);
#787=ORIENTED_EDGE('',*,*,#601,.T.);
#788=ORIENTED_EDGE('',*,*,#611,.T.);
#789=ORIENTED_EDGE('',*,*,#612,.T.);
#790=ORIENTED_EDGE('',*,*,#613,.T.);
#791=ORIENTED_EDGE('',*,*,#605,.T.);
#792=ORIENTED_EDGE('',*,*,#614,.F.);
#793=ORIENTED_EDGE('',*,*,#615,.F.);
#794=ORIENTED_EDGE('',*,*,#616,.T.);
#795=ORIENTED_EDGE('',*,*,#617,.T.);
#796=ORIENTED_EDGE('',*,*,#618,.T.);
#797=ORIENTED_EDGE('',*,*,#619,.T.);
#798=ORIENTED_EDGE('',*,*,#620,.T.);
#799=ORIENTED_EDGE('',*,*,#621,.T.);
#800=ORIENTED_EDGE('',*,*,#622,.T.);
#801=ORIENTED_EDGE('',*,*,#623,.T.);
#802=ORIENTED_EDGE('',*,*,#624,.T.);
#803=ORIENTED_EDGE('',*,*,#625,.T.);
#804=ORIENTED_EDGE('',*,*,#626,.T.);
#805=ORIENTED_EDGE('',*,*,#604,.F.);
#806=ORIENTED_EDGE('',*,*,#627,.F.);
#807=ORIENTED_EDGE('',*,*,#608,.T.);
#808=ORIENTED_EDGE('',*,*,#628,.T.);
#809=ORIENTED_EDGE('',*,*,#629,.T.);
#810=ORIENTED_EDGE('',*,*,#630,.T.);
#811=ORIENTED_EDGE('',*,*,#631,.T.);
#812=ORIENTED_EDGE('',*,*,#632,.T.);
#813=ORIENTED_EDGE('',*,*,#633,.F.);
#814=ORIENTED_EDGE('',*,*,#634,.T.);
#815=ORIENTED_EDGE('',*,*,#635,.F.);
#816=ORIENTED_EDGE('',*,*,#636,.T.);
#817=ORIENTED_EDGE('',*,*,#637,.F.);
#818=ORIENTED_EDGE('',*,*,#638,.T.);
#819=ORIENTED_EDGE('',*,*,#617,.F.);
#820=ORIENTED_EDGE('',*,*,#639,.T.);
#821=ORIENTED_EDGE('',*,*,#640,.T.);
#822=ORIENTED_EDGE('',*,*,#641,.F.);
#823=ORIENTED_EDGE('',*,*,#642,.F.);
#824=ORIENTED_EDGE('',*,*,#643,.T.);
#825=ORIENTED_EDGE('',*,*,#644,.T.);
#826=ORIENTED_EDGE('',*,*,#645,.T.);
#827=ORIENTED_EDGE('',*,*,#646,.T.);
#828=ORIENTED_EDGE('',*,*,#643,.F.);
#829=ORIENTED_EDGE('',*,*,#647,.T.);
#830=ORIENTED_EDGE('',*,*,#648,.T.);
#831=ORIENTED_EDGE('',*,*,#649,.F.);
#832=ORIENTED_EDGE('',*,*,#641,.T.);
#833=ORIENTED_EDGE('',*,*,#650,.T.);
#834=ORIENTED_EDGE('',*,*,#651,.T.);
#835=ORIENTED_EDGE('',*,*,#652,.T.);
#836=ORIENTED_EDGE('',*,*,#653,.F.);
#837=ORIENTED_EDGE('',*,*,#654,.F.);
#838=ORIENTED_EDGE('',*,*,#655,.T.);
#839=ORIENTED_EDGE('',*,*,#656,.T.);
#840=ORIENTED_EDGE('',*,*,#657,.T.);
#841=ORIENTED_EDGE('',*,*,#658,.T.);
#842=ORIENTED_EDGE('',*,*,#659,.T.);
#843=ORIENTED_EDGE('',*,*,#660,.T.);
#844=ORIENTED_EDGE('',*,*,#661,.T.);
#845=ORIENTED_EDGE('',*,*,#662,.T.);
#846=ORIENTED_EDGE('',*,*,#644,.F.);
#847=ORIENTED_EDGE('',*,*,#642,.T.);
#848=ORIENTED_EDGE('',*,*,#649,.T.);
#849=ORIENTED_EDGE('',*,*,#663,.T.);
#850=ORIENTED_EDGE('',*,*,#664,.T.);
#851=ORIENTED_EDGE('',*,*,#665,.T.);
#852=ORIENTED_EDGE('',*,*,#666,.T.);
#853=ORIENTED_EDGE('',*,*,#667,.T.);
#854=ORIENTED_EDGE('',*,*,#668,.T.);
#855=ORIENTED_EDGE('',*,*,#669,.T.);
#856=ORIENTED_EDGE('',*,*,#670,.T.);
#857=ORIENTED_EDGE('',*,*,#671,.F.);
#858=ORIENTED_EDGE('',*,*,#672,.F.);
#859=ORIENTED_EDGE('',*,*,#673,.T.);
#860=ORIENTED_EDGE('',*,*,#654,.T.);
#861=ORIENTED_EDGE('',*,*,#674,.T.);
#862=ORIENTED_EDGE('',*,*,#675,.T.);
#863=ORIENTED_EDGE('',*,*,#655,.F.);
#864=ORIENTED_EDGE('',*,*,#673,.F.);
#865=ORIENTED_EDGE('',*,*,#653,.T.);
#866=ORIENTED_EDGE('',*,*,#676,.T.);
#867=ORIENTED_EDGE('',*,*,#677,.T.);
#868=ORIENTED_EDGE('',*,*,#671,.T.);
#869=ORIENTED_EDGE('',*,*,#678,.T.);
#870=ORIENTED_EDGE('',*,*,#679,.T.);
#871=ORIENTED_EDGE('',*,*,#680,.T.);
#872=ORIENTED_EDGE('',*,*,#681,.T.);
#873=ORIENTED_EDGE('',*,*,#682,.F.);
#874=ORIENTED_EDGE('',*,*,#683,.T.);
#875=ORIENTED_EDGE('',*,*,#674,.F.);
#876=ORIENTED_EDGE('',*,*,#672,.T.);
#877=ORIENTED_EDGE('',*,*,#677,.F.);
#878=ORIENTED_EDGE('',*,*,#646,.F.);
#879=ORIENTED_EDGE('',*,*,#684,.T.);
#880=ORIENTED_EDGE('',*,*,#647,.F.);
#881=ORIENTED_EDGE('',*,*,#640,.F.);
#882=ORIENTED_EDGE('',*,*,#685,.T.);
#883=ORIENTED_EDGE('',*,*,#686,.T.);
#884=ORIENTED_EDGE('',*,*,#687,.F.);
#885=ORIENTED_EDGE('',*,*,#686,.F.);
#886=ORIENTED_EDGE('',*,*,#687,.T.);
#887=ORIENTED_EDGE('',*,*,#688,.F.);
#888=ORIENTED_EDGE('',*,*,#689,.T.);
#889=ORIENTED_EDGE('',*,*,#633,.T.);
#890=ORIENTED_EDGE('',*,*,#690,.T.);
#891=ORIENTED_EDGE('',*,*,#691,.F.);
#892=ORIENTED_EDGE('',*,*,#692,.T.);
#893=ORIENTED_EDGE('',*,*,#637,.T.);
#894=ORIENTED_EDGE('',*,*,#693,.T.);
#895=ORIENTED_EDGE('',*,*,#635,.T.);
#896=ORIENTED_EDGE('',*,*,#694,.T.);
#897=ORIENTED_EDGE('',*,*,#695,.F.);
#898=ORIENTED_EDGE('',*,*,#696,.T.);
#899=ORIENTED_EDGE('',*,*,#697,.F.);
#900=ORIENTED_EDGE('',*,*,#698,.F.);
#901=ORIENTED_EDGE('',*,*,#699,.F.);
#902=ORIENTED_EDGE('',*,*,#700,.F.);
#903=ORIENTED_EDGE('',*,*,#701,.F.);
#904=ORIENTED_EDGE('',*,*,#702,.F.);
#905=ORIENTED_EDGE('',*,*,#703,.F.);
#906=ORIENTED_EDGE('',*,*,#704,.F.);
#907=ORIENTED_EDGE('',*,*,#695,.T.);
#908=ORIENTED_EDGE('',*,*,#705,.T.);
#909=ORIENTED_EDGE('',*,*,#688,.T.);
#910=ORIENTED_EDGE('',*,*,#706,.T.);
#911=ORIENTED_EDGE('',*,*,#615,.T.);
#912=ORIENTED_EDGE('',*,*,#707,.T.);
#913=ORIENTED_EDGE('',*,*,#691,.T.);
#914=ORIENTED_EDGE('',*,*,#708,.T.);
#915=ORIENTED_EDGE('',*,*,#599,.F.);
#916=ORIENTED_EDGE('',*,*,#628,.F.);
#917=ORIENTED_EDGE('',*,*,#607,.F.);
#918=ORIENTED_EDGE('',*,*,#709,.T.);
#919=ORIENTED_EDGE('',*,*,#710,.F.);
#920=ORIENTED_EDGE('',*,*,#711,.T.);
#921=ORIENTED_EDGE('',*,*,#612,.F.);
#922=ORIENTED_EDGE('',*,*,#712,.T.);
#923=ORIENTED_EDGE('',*,*,#710,.T.);
#924=ORIENTED_EDGE('',*,*,#713,.T.);
#925=ORIENTED_EDGE('',*,*,#714,.T.);
#926=ORIENTED_EDGE('',*,*,#715,.T.);
#927=ORIENTED_EDGE('',*,*,#716,.T.);
#928=ORIENTED_EDGE('',*,*,#717,.T.);
#929=ORIENTED_EDGE('',*,*,#718,.T.);
#930=ORIENTED_EDGE('',*,*,#719,.T.);
#931=ORIENTED_EDGE('',*,*,#720,.T.);
#932=ORIENTED_EDGE('',*,*,#721,.T.);
#933=ORIENTED_EDGE('',*,*,#702,.T.);
#934=ORIENTED_EDGE('',*,*,#722,.F.);
#935=ORIENTED_EDGE('',*,*,#719,.F.);
#936=ORIENTED_EDGE('',*,*,#723,.T.);
#937=ORIENTED_EDGE('',*,*,#703,.T.);
#938=ORIENTED_EDGE('',*,*,#723,.F.);
#939=ORIENTED_EDGE('',*,*,#718,.F.);
#940=ORIENTED_EDGE('',*,*,#724,.T.);
#941=ORIENTED_EDGE('',*,*,#704,.T.);
#942=ORIENTED_EDGE('',*,*,#724,.F.);
#943=ORIENTED_EDGE('',*,*,#721,.F.);
#944=ORIENTED_EDGE('',*,*,#725,.T.);
#945=ORIENTED_EDGE('',*,*,#701,.T.);
#946=ORIENTED_EDGE('',*,*,#725,.F.);
#947=ORIENTED_EDGE('',*,*,#720,.F.);
#948=ORIENTED_EDGE('',*,*,#722,.T.);
#949=ORIENTED_EDGE('',*,*,#698,.T.);
#950=ORIENTED_EDGE('',*,*,#726,.F.);
#951=ORIENTED_EDGE('',*,*,#715,.F.);
#952=ORIENTED_EDGE('',*,*,#727,.T.);
#953=ORIENTED_EDGE('',*,*,#699,.T.);
#954=ORIENTED_EDGE('',*,*,#727,.F.);
#955=ORIENTED_EDGE('',*,*,#714,.F.);
#956=ORIENTED_EDGE('',*,*,#728,.T.);
#957=ORIENTED_EDGE('',*,*,#700,.T.);
#958=ORIENTED_EDGE('',*,*,#728,.F.);
#959=ORIENTED_EDGE('',*,*,#717,.F.);
#960=ORIENTED_EDGE('',*,*,#729,.T.);
#961=ORIENTED_EDGE('',*,*,#697,.T.);
#962=ORIENTED_EDGE('',*,*,#729,.F.);
#963=ORIENTED_EDGE('',*,*,#716,.F.);
#964=ORIENTED_EDGE('',*,*,#726,.T.);
#965=ORIENTED_EDGE('',*,*,#623,.F.);
#966=ORIENTED_EDGE('',*,*,#730,.F.);
#967=ORIENTED_EDGE('',*,*,#731,.T.);
#968=ORIENTED_EDGE('',*,*,#732,.T.);
#969=ORIENTED_EDGE('',*,*,#624,.F.);
#970=ORIENTED_EDGE('',*,*,#732,.F.);
#971=ORIENTED_EDGE('',*,*,#733,.T.);
#972=ORIENTED_EDGE('',*,*,#734,.T.);
#973=ORIENTED_EDGE('',*,*,#625,.F.);
#974=ORIENTED_EDGE('',*,*,#734,.F.);
#975=ORIENTED_EDGE('',*,*,#735,.T.);
#976=ORIENTED_EDGE('',*,*,#736,.T.);
#977=ORIENTED_EDGE('',*,*,#626,.F.);
#978=ORIENTED_EDGE('',*,*,#736,.F.);
#979=ORIENTED_EDGE('',*,*,#737,.T.);
#980=ORIENTED_EDGE('',*,*,#730,.T.);
#981=ORIENTED_EDGE('',*,*,#619,.F.);
#982=ORIENTED_EDGE('',*,*,#738,.F.);
#983=ORIENTED_EDGE('',*,*,#739,.T.);
#984=ORIENTED_EDGE('',*,*,#740,.T.);
#985=ORIENTED_EDGE('',*,*,#620,.F.);
#986=ORIENTED_EDGE('',*,*,#740,.F.);
#987=ORIENTED_EDGE('',*,*,#741,.T.);
#988=ORIENTED_EDGE('',*,*,#742,.T.);
#989=ORIENTED_EDGE('',*,*,#621,.F.);
#990=ORIENTED_EDGE('',*,*,#742,.F.);
#991=ORIENTED_EDGE('',*,*,#743,.T.);
#992=ORIENTED_EDGE('',*,*,#744,.T.);
#993=ORIENTED_EDGE('',*,*,#622,.F.);
#994=ORIENTED_EDGE('',*,*,#744,.F.);
#995=ORIENTED_EDGE('',*,*,#745,.T.);
#996=ORIENTED_EDGE('',*,*,#738,.T.);
#997=ORIENTED_EDGE('',*,*,#739,.F.);
#998=ORIENTED_EDGE('',*,*,#745,.F.);
#999=ORIENTED_EDGE('',*,*,#743,.F.);
#1000=ORIENTED_EDGE('',*,*,#741,.F.);
#1001=ORIENTED_EDGE('',*,*,#731,.F.);
#1002=ORIENTED_EDGE('',*,*,#737,.F.);
#1003=ORIENTED_EDGE('',*,*,#735,.F.);
#1004=ORIENTED_EDGE('',*,*,#733,.F.);
#1005=ORIENTED_EDGE('',*,*,#614,.T.);
#1006=ORIENTED_EDGE('',*,*,#610,.F.);
#1007=ORIENTED_EDGE('',*,*,#746,.F.);
#1008=ORIENTED_EDGE('',*,*,#602,.T.);
#1009=ORIENTED_EDGE('',*,*,#603,.T.);
#1010=ORIENTED_EDGE('',*,*,#746,.T.);
#1011=ORIENTED_EDGE('',*,*,#609,.T.);
#1012=ORIENTED_EDGE('',*,*,#627,.T.);
#1013=ORIENTED_EDGE('',*,*,#665,.F.);
#1014=ORIENTED_EDGE('',*,*,#747,.T.);
#1015=ORIENTED_EDGE('',*,*,#748,.F.);
#1016=ORIENTED_EDGE('',*,*,#632,.F.);
#1017=ORIENTED_EDGE('',*,*,#749,.F.);
#1018=ORIENTED_EDGE('',*,*,#750,.T.);
#1019=ORIENTED_EDGE('',*,*,#751,.F.);
#1020=ORIENTED_EDGE('',*,*,#752,.T.);
#1021=ORIENTED_EDGE('',*,*,#650,.F.);
#1022=ORIENTED_EDGE('',*,*,#753,.T.);
#1023=ORIENTED_EDGE('',*,*,#749,.T.);
#1024=ORIENTED_EDGE('',*,*,#631,.F.);
#1025=ORIENTED_EDGE('',*,*,#660,.F.);
#1026=ORIENTED_EDGE('',*,*,#754,.T.);
#1027=ORIENTED_EDGE('',*,*,#755,.F.);
#1028=ORIENTED_EDGE('',*,*,#629,.F.);
#1029=ORIENTED_EDGE('',*,*,#748,.T.);
#1030=ORIENTED_EDGE('',*,*,#756,.T.);
#1031=ORIENTED_EDGE('',*,*,#755,.T.);
#1032=ORIENTED_EDGE('',*,*,#757,.T.);
#1033=ORIENTED_EDGE('',*,*,#667,.F.);
#1034=ORIENTED_EDGE('',*,*,#758,.T.);
#1035=ORIENTED_EDGE('',*,*,#751,.T.);
#1036=ORIENTED_EDGE('',*,*,#630,.F.);
#1037=ORIENTED_EDGE('',*,*,#759,.F.);
#1038=ORIENTED_EDGE('',*,*,#760,.T.);
#1039=ORIENTED_EDGE('',*,*,#658,.F.);
#1040=ORIENTED_EDGE('',*,*,#648,.F.);
#1041=ORIENTED_EDGE('',*,*,#684,.F.);
#1042=ORIENTED_EDGE('',*,*,#645,.F.);
#1043=ORIENTED_EDGE('',*,*,#662,.F.);
#1044=ORIENTED_EDGE('',*,*,#761,.T.);
#1045=ORIENTED_EDGE('',*,*,#762,.F.);
#1046=ORIENTED_EDGE('',*,*,#678,.F.);
#1047=ORIENTED_EDGE('',*,*,#669,.F.);
#1048=ORIENTED_EDGE('',*,*,#763,.T.);
#1049=ORIENTED_EDGE('',*,*,#759,.T.);
#1050=ORIENTED_EDGE('',*,*,#681,.F.);
#1051=ORIENTED_EDGE('',*,*,#764,.F.);
#1052=ORIENTED_EDGE('',*,*,#765,.T.);
#1053=ORIENTED_EDGE('',*,*,#762,.T.);
#1054=ORIENTED_EDGE('',*,*,#766,.T.);
#1055=ORIENTED_EDGE('',*,*,#663,.F.);
#1056=ORIENTED_EDGE('',*,*,#767,.T.);
#1057=ORIENTED_EDGE('',*,*,#768,.F.);
#1058=ORIENTED_EDGE('',*,*,#679,.F.);
#1059=ORIENTED_EDGE('',*,*,#652,.F.);
#1060=ORIENTED_EDGE('',*,*,#769,.T.);
#1061=ORIENTED_EDGE('',*,*,#764,.T.);
#1062=ORIENTED_EDGE('',*,*,#680,.F.);
#1063=ORIENTED_EDGE('',*,*,#768,.T.);
#1064=ORIENTED_EDGE('',*,*,#770,.T.);
#1065=ORIENTED_EDGE('',*,*,#656,.F.);
#1066=ORIENTED_EDGE('',*,*,#675,.F.);
#1067=ORIENTED_EDGE('',*,*,#683,.F.);
#1068=ORIENTED_EDGE('',*,*,#676,.F.);
#1069=ORIENTED_EDGE('',*,*,#706,.F.);
#1070=ORIENTED_EDGE('',*,*,#690,.F.);
#1071=ORIENTED_EDGE('',*,*,#639,.F.);
#1072=ORIENTED_EDGE('',*,*,#616,.F.);
#1073=ORIENTED_EDGE('',*,*,#707,.F.);
#1074=ORIENTED_EDGE('',*,*,#618,.F.);
#1075=ORIENTED_EDGE('',*,*,#638,.F.);
#1076=ORIENTED_EDGE('',*,*,#692,.F.);
#1077=ORIENTED_EDGE('',*,*,#613,.F.);
#1078=ORIENTED_EDGE('',*,*,#713,.F.);
#1079=ORIENTED_EDGE('',*,*,#709,.F.);
#1080=ORIENTED_EDGE('',*,*,#606,.F.);
#1081=ORIENTED_EDGE('',*,*,#708,.F.);
#1082=ORIENTED_EDGE('',*,*,#693,.F.);
#1083=ORIENTED_EDGE('',*,*,#636,.F.);
#1084=ORIENTED_EDGE('',*,*,#696,.F.);
#1085=ORIENTED_EDGE('',*,*,#611,.F.);
#1086=ORIENTED_EDGE('',*,*,#600,.F.);
#1087=ORIENTED_EDGE('',*,*,#711,.F.);
#1088=ORIENTED_EDGE('',*,*,#712,.F.);
#1089=ORIENTED_EDGE('',*,*,#705,.F.);
#1090=ORIENTED_EDGE('',*,*,#694,.F.);
#1091=ORIENTED_EDGE('',*,*,#634,.F.);
#1092=ORIENTED_EDGE('',*,*,#689,.F.);
#1093=ORIENTED_EDGE('',*,*,#754,.F.);
#1094=ORIENTED_EDGE('',*,*,#659,.F.);
#1095=ORIENTED_EDGE('',*,*,#760,.F.);
#1096=ORIENTED_EDGE('',*,*,#763,.F.);
#1097=ORIENTED_EDGE('',*,*,#668,.F.);
#1098=ORIENTED_EDGE('',*,*,#757,.F.);
#1099=ORIENTED_EDGE('',*,*,#747,.F.);
#1100=ORIENTED_EDGE('',*,*,#664,.F.);
#1101=ORIENTED_EDGE('',*,*,#766,.F.);
#1102=ORIENTED_EDGE('',*,*,#761,.F.);
#1103=ORIENTED_EDGE('',*,*,#661,.F.);
#1104=ORIENTED_EDGE('',*,*,#756,.F.);
#1105=ORIENTED_EDGE('',*,*,#758,.F.);
#1106=ORIENTED_EDGE('',*,*,#670,.F.);
#1107=ORIENTED_EDGE('',*,*,#765,.F.);
#1108=ORIENTED_EDGE('',*,*,#769,.F.);
#1109=ORIENTED_EDGE('',*,*,#651,.F.);
#1110=ORIENTED_EDGE('',*,*,#752,.F.);
#1111=ORIENTED_EDGE('',*,*,#753,.F.);
#1112=ORIENTED_EDGE('',*,*,#657,.F.);
#1113=ORIENTED_EDGE('',*,*,#770,.F.);
#1114=ORIENTED_EDGE('',*,*,#767,.F.);
#1115=ORIENTED_EDGE('',*,*,#666,.F.);
#1116=ORIENTED_EDGE('',*,*,#750,.F.);
#1117=ORIENTED_EDGE('',*,*,#771,.T.);
#1118=ORIENTED_EDGE('',*,*,#772,.T.);
#1119=ORIENTED_EDGE('',*,*,#773,.T.);
#1120=ORIENTED_EDGE('',*,*,#682,.T.);
#1121=ORIENTED_EDGE('',*,*,#773,.F.);
#1122=ORIENTED_EDGE('',*,*,#771,.F.);
#1123=ORIENTED_EDGE('',*,*,#772,.F.);
#1124=ORIENTED_EDGE('',*,*,#774,.T.);
#1125=ORIENTED_EDGE('',*,*,#685,.F.);
#1126=ORIENTED_EDGE('',*,*,#774,.F.);
#1127=PLANE('',#1318);
#1128=PLANE('',#1319);
#1129=PLANE('',#1320);
#1130=PLANE('',#1323);
#1131=PLANE('',#1324);
#1132=PLANE('',#1325);
#1133=PLANE('',#1335);
#1134=PLANE('',#1336);
#1135=PLANE('',#1337);
#1136=PLANE('',#1339);
#1137=PLANE('',#1348);
#1138=PLANE('',#1349);
#1139=PLANE('',#1350);
#1140=PLANE('',#1354);
#1141=PLANE('',#1355);
#1142=PLANE('',#1359);
#1143=PLANE('',#1360);
#1144=PLANE('',#1361);
#1145=PLANE('',#1362);
#1146=PLANE('',#1363);
#1147=PLANE('',#1370);
#1148=PLANE('',#1371);
#1149=PLANE('',#1372);
#1150=PLANE('',#1373);
#1151=PLANE('',#1374);
#1152=PLANE('',#1375);
#1153=PLANE('',#1376);
#1154=PLANE('',#1377);
#1155=PLANE('',#1378);
#1156=PLANE('',#1379);
#1157=PLANE('',#1380);
#1158=PLANE('',#1381);
#1159=PLANE('',#1382);
#1160=PLANE('',#1383);
#1161=PLANE('',#1384);
#1162=PLANE('',#1385);
#1163=PLANE('',#1386);
#1164=PLANE('',#1387);
#1165=PLANE('',#1388);
#1166=PLANE('',#1389);
#1167=PLANE('',#1390);
#1168=PLANE('',#1394);
#1169=PLANE('',#1398);
#1170=PLANE('',#1403);
#1171=PLANE('',#1412);
#1172=STYLED_ITEM('',(#2184),#1238);
#1173=STYLED_ITEM('',(#2184),#1239);
#1174=STYLED_ITEM('',(#2184),#1240);
#1175=STYLED_ITEM('',(#2184),#1241);
#1176=STYLED_ITEM('',(#2184),#1242);
#1177=STYLED_ITEM('',(#2185),#1243);
#1178=STYLED_ITEM('',(#2185),#1244);
#1179=STYLED_ITEM('',(#2185),#1245);
#1180=STYLED_ITEM('',(#2185),#1246);
#1181=STYLED_ITEM('',(#2185),#1247);
#1182=STYLED_ITEM('',(#2185),#1248);
#1183=STYLED_ITEM('',(#2185),#1249);
#1184=STYLED_ITEM('',(#2185),#1250);
#1185=STYLED_ITEM('',(#2185),#1251);
#1186=STYLED_ITEM('',(#2185),#1252);
#1187=STYLED_ITEM('',(#2185),#1253);
#1188=STYLED_ITEM('',(#2186),#1254);
#1189=STYLED_ITEM('',(#2186),#1255);
#1190=STYLED_ITEM('',(#2186),#1256);
#1191=STYLED_ITEM('',(#2185),#1257);
#1192=STYLED_ITEM('',(#2184),#1259);
#1193=STYLED_ITEM('',(#2184),#1260);
#1194=STYLED_ITEM('',(#2184),#1261);
#1195=STYLED_ITEM('',(#2184),#1262);
#1196=STYLED_ITEM('',(#2184),#1263);
#1197=STYLED_ITEM('',(#2187),#1264);
#1198=STYLED_ITEM('',(#2187),#1265);
#1199=STYLED_ITEM('',(#2187),#1266);
#1200=STYLED_ITEM('',(#2187),#1267);
#1201=STYLED_ITEM('',(#2187),#1268);
#1202=STYLED_ITEM('',(#2187),#1269);
#1203=STYLED_ITEM('',(#2187),#1270);
#1204=STYLED_ITEM('',(#2187),#1271);
#1205=STYLED_ITEM('',(#2187),#1272);
#1206=STYLED_ITEM('',(#2187),#1273);
#1207=STYLED_ITEM('',(#2187),#1274);
#1208=STYLED_ITEM('',(#2187),#1275);
#1209=STYLED_ITEM('',(#2187),#1276);
#1210=STYLED_ITEM('',(#2187),#1277);
#1211=STYLED_ITEM('',(#2187),#1278);
#1212=STYLED_ITEM('',(#2187),#1279);
#1213=STYLED_ITEM('',(#2188),#1280);
#1214=STYLED_ITEM('',(#2188),#1281);
#1215=STYLED_ITEM('',(#2188),#1282);
#1216=STYLED_ITEM('',(#2188),#1283);
#1217=STYLED_ITEM('',(#2189),#1284);
#1218=STYLED_ITEM('',(#2189),#1285);
#1219=STYLED_ITEM('',(#2189),#1286);
#1220=STYLED_ITEM('',(#2189),#1287);
#1221=STYLED_ITEM('',(#2186),#1288);
#1222=STYLED_ITEM('',(#2186),#1289);
#1223=STYLED_ITEM('',(#2186),#1290);
#1224=STYLED_ITEM('',(#2186),#1291);
#1225=STYLED_ITEM('',(#2190),#1292);
#1226=STYLED_ITEM('',(#2190),#1293);
#1227=STYLED_ITEM('',(#2190),#1294);
#1228=STYLED_ITEM('',(#2190),#1295);
#1229=STYLED_ITEM('',(#2190),#1296);
#1230=STYLED_ITEM('',(#2190),#1297);
#1231=STYLED_ITEM('',(#2189),#1298);
#1232=STYLED_ITEM('',(#2189),#1299);
#1233=STYLED_ITEM('',(#2189),#1300);
#1234=STYLED_ITEM('',(#2189),#1301);
#1235=STYLED_ITEM('',(#2185),#1302);
#1236=STYLED_ITEM('',(#2185),#1303);
#1237=STYLED_ITEM('',(#2183),#13);
#1238=ADVANCED_FACE('',(#99),#1127,.F.);
#1239=ADVANCED_FACE('',(#100),#1128,.F.);
#1240=ADVANCED_FACE('',(#101),#1129,.T.);
#1241=ADVANCED_FACE('',(#102,#51,#52),#1130,.F.);
#1242=ADVANCED_FACE('',(#103),#1131,.F.);
#1243=ADVANCED_FACE('',(#104,#53),#1132,.F.);
#1244=ADVANCED_FACE('',(#105),#36,.F.);
#1245=ADVANCED_FACE('',(#106),#1133,.T.);
#1246=ADVANCED_FACE('',(#107),#1134,.F.);
#1247=ADVANCED_FACE('',(#108),#1135,.T.);
#1248=ADVANCED_FACE('',(#109),#1136,.F.);
#1249=ADVANCED_FACE('',(#110),#37,.T.);
#1250=ADVANCED_FACE('',(#111),#38,.T.);
#1251=ADVANCED_FACE('',(#112),#39,.F.);
#1252=ADVANCED_FACE('',(#113),#1137,.T.);
#1253=ADVANCED_FACE('',(#114),#1138,.F.);
#1254=ADVANCED_FACE('',(#115,#54),#1139,.T.);
#1255=ADVANCED_FACE('',(#116),#1140,.T.);
#1256=ADVANCED_FACE('',(#117),#1141,.F.);
#1257=ADVANCED_FACE('',(#118),#40,.F.);
#1258=ADVANCED_FACE('',(#119),#1142,.T.);
#1259=ADVANCED_FACE('',(#120),#1143,.F.);
#1260=ADVANCED_FACE('',(#121),#1144,.F.);
#1261=ADVANCED_FACE('',(#122,#55,#56),#1145,.F.);
#1262=ADVANCED_FACE('',(#123,#57),#1146,.T.);
#1263=ADVANCED_FACE('',(#124,#58,#59),#1147,.F.);
#1264=ADVANCED_FACE('',(#125),#1148,.F.);
#1265=ADVANCED_FACE('',(#126),#1149,.F.);
#1266=ADVANCED_FACE('',(#127),#1150,.F.);
#1267=ADVANCED_FACE('',(#128),#1151,.F.);
#1268=ADVANCED_FACE('',(#129),#1152,.F.);
#1269=ADVANCED_FACE('',(#130),#1153,.F.);
#1270=ADVANCED_FACE('',(#131),#1154,.F.);
#1271=ADVANCED_FACE('',(#132),#1155,.F.);
#1272=ADVANCED_FACE('',(#133),#1156,.T.);
#1273=ADVANCED_FACE('',(#134),#1157,.T.);
#1274=ADVANCED_FACE('',(#135),#1158,.T.);
#1275=ADVANCED_FACE('',(#136),#1159,.T.);
#1276=ADVANCED_FACE('',(#137),#1160,.T.);
#1277=ADVANCED_FACE('',(#138),#1161,.T.);
#1278=ADVANCED_FACE('',(#139),#1162,.T.);
#1279=ADVANCED_FACE('',(#140),#1163,.T.);
#1280=ADVANCED_FACE('',(#141),#1164,.F.);
#1281=ADVANCED_FACE('',(#142),#1165,.F.);
#1282=ADVANCED_FACE('',(#143),#1166,.F.);
#1283=ADVANCED_FACE('',(#144),#1167,.T.);
#1284=ADVANCED_FACE('',(#145),#32,.T.);
#1285=ADVANCED_FACE('',(#146),#1168,.T.);
#1286=ADVANCED_FACE('',(#147),#1169,.F.);
#1287=ADVANCED_FACE('',(#148),#33,.T.);
#1288=ADVANCED_FACE('',(#149),#1170,.T.);
#1289=ADVANCED_FACE('',(#150),#34,.T.);
#1290=ADVANCED_FACE('',(#151),#35,.T.);
#1291=ADVANCED_FACE('',(#152),#1171,.F.);
#1292=ADVANCED_FACE('',(#153),#41,.T.);
#1293=ADVANCED_FACE('',(#154),#42,.T.);
#1294=ADVANCED_FACE('',(#155),#43,.F.);
#1295=ADVANCED_FACE('',(#156),#44,.T.);
#1296=ADVANCED_FACE('',(#157),#45,.F.);
#1297=ADVANCED_FACE('',(#158),#46,.T.);
#1298=ADVANCED_FACE('',(#159),#47,.T.);
#1299=ADVANCED_FACE('',(#160),#48,.T.);
#1300=ADVANCED_FACE('',(#161),#49,.T.);
#1301=ADVANCED_FACE('',(#162),#50,.T.);
#1302=ADVANCED_FACE('',(#163),#14,.T.);
#1303=ADVANCED_FACE('',(#164),#15,.T.);
#1304=CLOSED_SHELL('',(#1238,#1239,#1240,#1241,#1242,#1243,#1244,#1245,
#1246,#1247,#1248,#1249,#1250,#1251,#1252,#1253,#1254,#1255,#1256,#1257,
#1258,#1259,#1260,#1261,#1262,#1263,#1264,#1265,#1266,#1267,#1268,#1269,
#1270,#1271,#1272,#1273,#1274,#1275,#1276,#1277,#1278,#1279,#1280,#1281,
#1282,#1283,#1284,#1285,#1286,#1287,#1288,#1289,#1290,#1291,#1292,#1293,
#1294,#1295,#1296,#1297,#1298,#1299,#1300,#1301,#1302,#1303));
#1305=DERIVED_UNIT_ELEMENT(#1307,1.);
#1306=DERIVED_UNIT_ELEMENT(#2169,-3.);
#1307=(
MASS_UNIT()
NAMED_UNIT(*)
SI_UNIT(.KILO.,.GRAM.)
);
#1308=DERIVED_UNIT((#1305,#1306));
#1309=MEASURE_REPRESENTATION_ITEM('density measure',
POSITIVE_RATIO_MEASURE(7850.),#1308);
#1310=PROPERTY_DEFINITION_REPRESENTATION(#1315,#1312);
#1311=PROPERTY_DEFINITION_REPRESENTATION(#1316,#1313);
#1312=REPRESENTATION('material name',(#1314),#2166);
#1313=REPRESENTATION('density',(#1309),#2166);
#1314=DESCRIPTIVE_REPRESENTATION_ITEM('Steel','Steel');
#1315=PROPERTY_DEFINITION('material property','material name',#2176);
#1316=PROPERTY_DEFINITION('material property','density of part',#2176);
#1317=AXIS2_PLACEMENT_3D('',#1780,#1431,#1432);
#1318=AXIS2_PLACEMENT_3D('',#1781,#1433,#1434);
#1319=AXIS2_PLACEMENT_3D('',#1794,#1441,#1442);
#1320=AXIS2_PLACEMENT_3D('',#1807,#1449,#1450);
#1321=AXIS2_PLACEMENT_3D('',#1809,#1451,#1452);
#1322=AXIS2_PLACEMENT_3D('',#1812,#1454,#1455);
#1323=AXIS2_PLACEMENT_3D('',#1814,#1457,#1458);
#1324=AXIS2_PLACEMENT_3D('',#1839,#1471,#1472);
#1325=AXIS2_PLACEMENT_3D('',#1842,#1475,#1476);
#1326=AXIS2_PLACEMENT_3D('',#1847,#1478,#1479);
#1327=AXIS2_PLACEMENT_3D('',#1850,#1481,#1482);
#1328=AXIS2_PLACEMENT_3D('',#1855,#1484,#1485);
#1329=AXIS2_PLACEMENT_3D('',#1859,#1487,#1488);
#1330=AXIS2_PLACEMENT_3D('',#1862,#1490,#1491);
#1331=AXIS2_PLACEMENT_3D('',#1863,#1492,#1493);
#1332=AXIS2_PLACEMENT_3D('',#1864,#1494,#1495);
#1333=AXIS2_PLACEMENT_3D('',#1867,#1496,#1497);
#1334=AXIS2_PLACEMENT_3D('',#1871,#1499,#1500);
#1335=AXIS2_PLACEMENT_3D('',#1873,#1502,#1503);
#1336=AXIS2_PLACEMENT_3D('',#1879,#1507,#1508);
#1337=AXIS2_PLACEMENT_3D('',#1885,#1512,#1513);
#1338=AXIS2_PLACEMENT_3D('',#1896,#1518,#1519);
#1339=AXIS2_PLACEMENT_3D('',#1902,#1523,#1524);
#1340=AXIS2_PLACEMENT_3D('',#1912,#1530,#1531);
#1341=AXIS2_PLACEMENT_3D('',#1915,#1532,#1533);
#1342=AXIS2_PLACEMENT_3D('',#1919,#1535,#1536);
#1343=AXIS2_PLACEMENT_3D('',#1921,#1538,#1539);
#1344=AXIS2_PLACEMENT_3D('',#1924,#1540,#1541);
#1345=AXIS2_PLACEMENT_3D('',#1928,#1543,#1544);
#1346=AXIS2_PLACEMENT_3D('',#1930,#1546,#1547);
#1347=AXIS2_PLACEMENT_3D('',#1934,#1549,#1550);
#1348=AXIS2_PLACEMENT_3D('',#1936,#1552,#1553);
#1349=AXIS2_PLACEMENT_3D('',#1940,#1556,#1557);
#1350=AXIS2_PLACEMENT_3D('',#1944,#1560,#1561);
#1351=AXIS2_PLACEMENT_3D('',#1949,#1563,#1564);
#1352=AXIS2_PLACEMENT_3D('',#1952,#1566,#1567);
#1353=AXIS2_PLACEMENT_3D('',#1954,#1568,#1569);
#1354=AXIS2_PLACEMENT_3D('',#1955,#1570,#1571);
#1355=AXIS2_PLACEMENT_3D('',#1957,#1573,#1574);
#1356=AXIS2_PLACEMENT_3D('',#1959,#1576,#1577);
#1357=AXIS2_PLACEMENT_3D('',#1961,#1578,#1579);
#1358=AXIS2_PLACEMENT_3D('',#1964,#1581,#1582);
#1359=AXIS2_PLACEMENT_3D('',#1965,#1583,#1584);
#1360=AXIS2_PLACEMENT_3D('',#1966,#1585,#1586);
#1361=AXIS2_PLACEMENT_3D('',#1972,#1590,#1591);
#1362=AXIS2_PLACEMENT_3D('',#1978,#1595,#1596);
#1363=AXIS2_PLACEMENT_3D('',#2000,#1608,#1609);
#1364=AXIS2_PLACEMENT_3D('',#2001,#1610,#1611);
#1365=AXIS2_PLACEMENT_3D('',#2002,#1612,#1613);
#1366=AXIS2_PLACEMENT_3D('',#2003,#1614,#1615);
#1367=AXIS2_PLACEMENT_3D('',#2004,#1616,#1617);
#1368=AXIS2_PLACEMENT_3D('',#2006,#1618,#1619);
#1369=AXIS2_PLACEMENT_3D('',#2009,#1621,#1622);
#1370=AXIS2_PLACEMENT_3D('',#2010,#1623,#1624);
#1371=AXIS2_PLACEMENT_3D('',#2029,#1635,#1636);
#1372=AXIS2_PLACEMENT_3D('',#2032,#1639,#1640);
#1373=AXIS2_PLACEMENT_3D('',#2034,#1642,#1643);
#1374=AXIS2_PLACEMENT_3D('',#2036,#1645,#1646);
#1375=AXIS2_PLACEMENT_3D('',#2037,#1647,#1648);
#1376=AXIS2_PLACEMENT_3D('',#2040,#1651,#1652);
#1377=AXIS2_PLACEMENT_3D('',#2042,#1654,#1655);
#1378=AXIS2_PLACEMENT_3D('',#2044,#1657,#1658);
#1379=AXIS2_PLACEMENT_3D('',#2045,#1659,#1660);
#1380=AXIS2_PLACEMENT_3D('',#2051,#1664,#1665);
#1381=AXIS2_PLACEMENT_3D('',#2055,#1668,#1669);
#1382=AXIS2_PLACEMENT_3D('',#2059,#1672,#1673);
#1383=AXIS2_PLACEMENT_3D('',#2061,#1675,#1676);
#1384=AXIS2_PLACEMENT_3D('',#2067,#1680,#1681);
#1385=AXIS2_PLACEMENT_3D('',#2071,#1684,#1685);
#1386=AXIS2_PLACEMENT_3D('',#2075,#1688,#1689);
#1387=AXIS2_PLACEMENT_3D('',#2077,#1691,#1692);
#1388=AXIS2_PLACEMENT_3D('',#2078,#1693,#1694);
#1389=AXIS2_PLACEMENT_3D('',#2079,#1695,#1696);
#1390=AXIS2_PLACEMENT_3D('',#2081,#1698,#1699);
#1391=AXIS2_PLACEMENT_3D('',#2082,#1700,#1701);
#1392=AXIS2_PLACEMENT_3D('',#2088,#1702,#1703);
#1393=AXIS2_PLACEMENT_3D('',#2090,#1704,#1705);
#1394=AXIS2_PLACEMENT_3D('',#2095,#1706,#1707);
#1395=AXIS2_PLACEMENT_3D('',#2097,#1708,#1709);
#1396=AXIS2_PLACEMENT_3D('',#2098,#1710,#1711);
#1397=AXIS2_PLACEMENT_3D('',#2099,#1712,#1713);
#1398=AXIS2_PLACEMENT_3D('',#2100,#1714,#1715);
#1399=AXIS2_PLACEMENT_3D('',#2102,#1716,#1717);
#1400=AXIS2_PLACEMENT_3D('',#2103,#1718,#1719);
#1401=AXIS2_PLACEMENT_3D('',#2104,#1720,#1721);
#1402=AXIS2_PLACEMENT_3D('',#2105,#1722,#1723);
#1403=AXIS2_PLACEMENT_3D('',#2114,#1724,#1725);
#1404=AXIS2_PLACEMENT_3D('',#2116,#1726,#1727);
#1405=AXIS2_PLACEMENT_3D('',#2117,#1728,#1729);
#1406=AXIS2_PLACEMENT_3D('',#2119,#1730,#1731);
#1407=AXIS2_PLACEMENT_3D('',#2120,#1732,#1733);
#1408=AXIS2_PLACEMENT_3D('',#2121,#1734,#1735);
#1409=AXIS2_PLACEMENT_3D('',#2127,#1736,#1737);
#1410=AXIS2_PLACEMENT_3D('',#2132,#1738,#1739);
#1411=AXIS2_PLACEMENT_3D('',#2142,#1740,#1741);
#1412=AXIS2_PLACEMENT_3D('',#2143,#1742,#1743);
#1413=AXIS2_PLACEMENT_3D('',#2144,#1744,#1745);
#1414=AXIS2_PLACEMENT_3D('',#2145,#1746,#1747);
#1415=AXIS2_PLACEMENT_3D('',#2146,#1748,#1749);
#1416=AXIS2_PLACEMENT_3D('',#2147,#1750,#1751);
#1417=AXIS2_PLACEMENT_3D('',#2148,#1752,#1753);
#1418=AXIS2_PLACEMENT_3D('',#2149,#1754,#1755);
#1419=AXIS2_PLACEMENT_3D('',#2150,#1756,#1757);
#1420=AXIS2_PLACEMENT_3D('',#2151,#1758,#1759);
#1421=AXIS2_PLACEMENT_3D('',#2152,#1760,#1761);
#1422=AXIS2_PLACEMENT_3D('',#2153,#1762,#1763);
#1423=AXIS2_PLACEMENT_3D('',#2154,#1764,#1765);
#1424=AXIS2_PLACEMENT_3D('',#2155,#1766,#1767);
#1425=AXIS2_PLACEMENT_3D('',#2156,#1768,#1769);
#1426=AXIS2_PLACEMENT_3D('',#2159,#1770,#1771);
#1427=AXIS2_PLACEMENT_3D('',#2160,#1772,#1773);
#1428=AXIS2_PLACEMENT_3D('',#2161,#1774,#1775);
#1429=AXIS2_PLACEMENT_3D('',#2162,#1776,#1777);
#1430=AXIS2_PLACEMENT_3D('',#2163,#1778,#1779);
#1431=DIRECTION('axis',(0.,0.,1.));
#1432=DIRECTION('refdir',(1.,0.,0.));
#1433=DIRECTION('center_axis',(1.,0.,0.));
#1434=DIRECTION('ref_axis',(0.,0.,-1.));
#1435=DIRECTION('',(0.,1.,0.));
#1436=DIRECTION('',(0.,0.,1.));
#1437=DIRECTION('',(0.,1.,0.));
#1438=DIRECTION('',(0.,0.,-1.));
#1439=DIRECTION('',(0.,1.,0.));
#1440=DIRECTION('',(0.,0.,1.));
#1441=DIRECTION('center_axis',(-1.,0.,0.));
#1442=DIRECTION('ref_axis',(0.,0.,1.));
#1443=DIRECTION('',(0.,-1.,0.));
#1444=DIRECTION('',(0.,0.,1.));
#1445=DIRECTION('',(0.,-1.,0.));
#1446=DIRECTION('',(0.,0.,1.));
#1447=DIRECTION('',(0.,-1.,0.));
#1448=DIRECTION('',(0.,0.,-1.));
#1449=DIRECTION('center_axis',(0.,0.,1.));
#1450=DIRECTION('ref_axis',(1.,0.,0.));
#1451=DIRECTION('center_axis',(0.,0.,1.));
#1452=DIRECTION('ref_axis',(1.,0.,0.));
#1453=DIRECTION('',(-1.,0.,0.));
#1454=DIRECTION('center_axis',(0.,0.,1.));
#1455=DIRECTION('ref_axis',(1.,0.,0.));
#1456=DIRECTION('',(-1.,0.,0.));
#1457=DIRECTION('center_axis',(-7.2280144832367E-17,1.,0.));
#1458=DIRECTION('ref_axis',(0.,0.,1.));
#1459=DIRECTION('',(1.,7.17816610749024E-17,0.));
#1460=DIRECTION('',(0.,0.,-1.));
#1461=DIRECTION('',(1.,7.17816610749024E-17,0.));
#1462=DIRECTION('',(0.,0.,-1.));
#1463=DIRECTION('',(0.,0.,1.));
#1464=DIRECTION('',(1.,0.,0.));
#1465=DIRECTION('',(-2.08166817117217E-16,0.,-1.));
#1466=DIRECTION('',(-1.,0.,0.));
#1467=DIRECTION('',(1.38777878078144E-16,0.,1.));
#1468=DIRECTION('',(1.,0.,0.));
#1469=DIRECTION('',(0.,0.,-1.));
#1470=DIRECTION('',(-1.,0.,0.));
#1471=DIRECTION('center_axis',(0.,-1.,0.));
#1472=DIRECTION('ref_axis',(0.,0.,-1.));
#1473=DIRECTION('',(1.,0.,0.));
#1474=DIRECTION('',(1.,0.,0.));
#1475=DIRECTION('center_axis',(0.,0.,-1.));
#1476=DIRECTION('ref_axis',(-1.,0.,0.));
#1477=DIRECTION('',(1.,0.,0.));
#1478=DIRECTION('center_axis',(0.,0.,-1.));
#1479=DIRECTION('ref_axis',(-1.,0.,0.));
#1480=DIRECTION('',(-1.,0.,0.));
#1481=DIRECTION('center_axis',(0.,0.,-1.));
#1482=DIRECTION('ref_axis',(-1.,0.,0.));
#1483=DIRECTION('',(0.,-1.,0.));
#1484=DIRECTION('center_axis',(0.,0.,-1.));
#1485=DIRECTION('ref_axis',(-1.,0.,0.));
#1486=DIRECTION('',(-1.,0.,0.));
#1487=DIRECTION('center_axis',(0.,0.,-1.));
#1488=DIRECTION('ref_axis',(-1.,0.,0.));
#1489=DIRECTION('',(0.,1.,0.));
#1490=DIRECTION('center_axis',(0.,0.,-1.));
#1491=DIRECTION('ref_axis',(-1.,0.,0.));
#1492=DIRECTION('center_axis',(0.,0.,-1.));
#1493=DIRECTION('ref_axis',(-1.,0.,0.));
#1494=DIRECTION('center_axis',(0.,1.,0.));
#1495=DIRECTION('ref_axis',(0.,0.,1.));
#1496=DIRECTION('center_axis',(0.,1.,0.));
#1497=DIRECTION('ref_axis',(0.,0.,1.));
#1498=DIRECTION('',(0.,1.,0.));
#1499=DIRECTION('center_axis',(0.,1.,0.));
#1500=DIRECTION('ref_axis',(0.,0.,1.));
#1501=DIRECTION('',(0.,1.,0.));
#1502=DIRECTION('center_axis',(1.,0.,0.));
#1503=DIRECTION('ref_axis',(0.,0.,-1.));
#1504=DIRECTION('',(0.,0.,-1.));
#1505=DIRECTION('',(0.,0.707106781186547,-0.707106781186548));
#1506=DIRECTION('',(0.,0.,1.));
#1507=DIRECTION('center_axis',(1.,0.,0.));
#1508=DIRECTION('ref_axis',(0.,0.,-1.));
#1509=DIRECTION('',(0.,0.,-1.));
#1510=DIRECTION('',(0.,-0.707106781186548,0.707106781186548));
#1511=DIRECTION('',(0.,0.,-1.));
#1512=DIRECTION('center_axis',(0.,1.,0.));
#1513=DIRECTION('ref_axis',(0.,0.,1.));
#1514=DIRECTION('',(1.,0.,0.));
#1515=DIRECTION('',(0.,0.,-1.));
#1516=DIRECTION('',(-1.,0.,0.));
#1517=DIRECTION('',(0.,0.,-1.));
#1518=DIRECTION('center_axis',(0.,1.,0.));
#1519=DIRECTION('ref_axis',(0.,0.,1.));
#1520=DIRECTION('',(0.,0.,-1.));
#1521=DIRECTION('',(-1.,0.,0.));
#1522=DIRECTION('',(0.,0.,1.));
#1523=DIRECTION('center_axis',(0.,1.,0.));
#1524=DIRECTION('ref_axis',(0.,0.,1.));
#1525=DIRECTION('',(1.,0.,0.));
#1526=DIRECTION('',(0.,0.,1.));
#1527=DIRECTION('',(-1.,0.,0.));
#1528=DIRECTION('',(0.,0.,-1.));
#1529=DIRECTION('',(1.,0.,0.));
#1530=DIRECTION('center_axis',(0.,0.,-1.));
#1531=DIRECTION('ref_axis',(-1.,0.,0.));
#1532=DIRECTION('center_axis',(0.,0.,-1.));
#1533=DIRECTION('ref_axis',(-1.,0.,0.));
#1534=DIRECTION('',(0.,0.,-1.));
#1535=DIRECTION('center_axis',(0.,0.,-1.));
#1536=DIRECTION('ref_axis',(-1.,0.,0.));
#1537=DIRECTION('',(0.,0.,-1.));
#1538=DIRECTION('center_axis',(0.,0.,-1.));
#1539=DIRECTION('ref_axis',(1.,1.22464679914735E-16,0.));
#1540=DIRECTION('center_axis',(0.,0.,-1.));
#1541=DIRECTION('ref_axis',(-1.,0.,0.));
#1542=DIRECTION('',(0.,0.,-1.));
#1543=DIRECTION('center_axis',(0.,0.,-1.));
#1544=DIRECTION('ref_axis',(-1.,0.,0.));
#1545=DIRECTION('',(0.,0.,-1.));
#1546=DIRECTION('center_axis',(0.,1.,0.));
#1547=DIRECTION('ref_axis',(0.,0.,1.));
#1548=DIRECTION('',(0.,1.,0.));
#1549=DIRECTION('center_axis',(0.,1.,0.));
#1550=DIRECTION('ref_axis',(0.,0.,1.));
#1551=DIRECTION('',(0.,1.,0.));
#1552=DIRECTION('center_axis',(1.,0.,0.));
#1553=DIRECTION('ref_axis',(0.,0.,-1.));
#1554=DIRECTION('',(-1.50538715203411E-16,0.,-1.));
#1555=DIRECTION('',(0.,-0.707106781186548,-0.707106781186547));
#1556=DIRECTION('center_axis',(1.,0.,0.));
#1557=DIRECTION('ref_axis',(0.,0.,-1.));
#1558=DIRECTION('',(0.,0.707106781186548,0.707106781186548));
#1559=DIRECTION('',(0.,0.,1.));
#1560=DIRECTION('center_axis',(0.,0.,-1.));
#1561=DIRECTION('ref_axis',(-1.,0.,0.));
#1562=DIRECTION('',(-1.,0.,0.));
#1563=DIRECTION('center_axis',(0.,0.,-1.));
#1564=DIRECTION('ref_axis',(-1.,0.,0.));
#1565=DIRECTION('',(1.,0.,0.));
#1566=DIRECTION('center_axis',(0.,0.,-1.));
#1567=DIRECTION('ref_axis',(-1.,0.,0.));
#1568=DIRECTION('center_axis',(0.,0.,-1.));
#1569=DIRECTION('ref_axis',(-1.,0.,0.));
#1570=DIRECTION('center_axis',(0.,1.,0.));
#1571=DIRECTION('ref_axis',(0.,0.,1.));
#1572=DIRECTION('',(1.,0.,0.));
#1573=DIRECTION('center_axis',(0.,1.,0.));
#1574=DIRECTION('ref_axis',(0.,0.,1.));
#1575=DIRECTION('',(1.,0.,0.));
#1576=DIRECTION('center_axis',(0.,0.,1.));
#1577=DIRECTION('ref_axis',(1.,0.,0.));
#1578=DIRECTION('center_axis',(0.,0.,1.));
#1579=DIRECTION('ref_axis',(1.,0.,0.));
#1580=DIRECTION('',(0.,0.,1.));
#1581=DIRECTION('center_axis',(0.,0.,-1.));
#1582=DIRECTION('ref_axis',(-1.,0.,0.));
#1583=DIRECTION('center_axis',(0.,0.,-1.));
#1584=DIRECTION('ref_axis',(-1.,0.,0.));
#1585=DIRECTION('center_axis',(1.,0.,0.));
#1586=DIRECTION('ref_axis',(0.,0.,-1.));
#1587=DIRECTION('',(0.,-1.,0.));
#1588=DIRECTION('',(0.,0.,-1.));
#1589=DIRECTION('',(0.,0.,-1.));
#1590=DIRECTION('center_axis',(-1.,0.,0.));
#1591=DIRECTION('ref_axis',(0.,0.,1.));
#1592=DIRECTION('',(0.,1.,0.));
#1593=DIRECTION('',(0.,0.,-1.));
#1594=DIRECTION('',(0.,0.,-1.));
#1595=DIRECTION('center_axis',(0.,-1.,0.));
#1596=DIRECTION('ref_axis',(0.,0.,-1.));
#1597=DIRECTION('',(0.,0.,-1.));
#1598=DIRECTION('',(-1.,0.,0.));
#1599=DIRECTION('',(0.,0.,-1.));
#1600=DIRECTION('',(1.,0.,0.));
#1601=DIRECTION('',(0.,0.,1.));
#1602=DIRECTION('',(-1.,0.,0.));
#1603=DIRECTION('',(-2.08166817117217E-16,0.,-1.));
#1604=DIRECTION('',(1.,0.,0.));
#1605=DIRECTION('',(1.38777878078144E-16,0.,1.));
#1606=DIRECTION('',(-1.,0.,0.));
#1607=DIRECTION('',(0.,0.,-1.));
#1608=DIRECTION('center_axis',(0.,0.,1.));
#1609=DIRECTION('ref_axis',(1.,0.,0.));
#1610=DIRECTION('center_axis',(0.,0.,1.));
#1611=DIRECTION('ref_axis',(1.,0.,0.));
#1612=DIRECTION('center_axis',(0.,0.,1.));
#1613=DIRECTION('ref_axis',(1.,0.,0.));
#1614=DIRECTION('center_axis',(0.,0.,1.));
#1615=DIRECTION('ref_axis',(1.,0.,0.));
#1616=DIRECTION('center_axis',(0.,0.,1.));
#1617=DIRECTION('ref_axis',(1.,0.,0.));
#1618=DIRECTION('center_axis',(0.,0.,1.));
#1619=DIRECTION('ref_axis',(1.,0.,0.));
#1620=DIRECTION('',(-1.,0.,0.));
#1621=DIRECTION('center_axis',(0.,0.,1.));
#1622=DIRECTION('ref_axis',(1.,0.,0.));
#1623=DIRECTION('center_axis',(0.,1.,0.));
#1624=DIRECTION('ref_axis',(0.,0.,1.));
#1625=DIRECTION('',(0.,0.,1.));
#1626=DIRECTION('',(0.,0.,1.));
#1627=DIRECTION('',(-1.,0.,0.));
#1628=DIRECTION('',(0.,0.,1.));
#1629=DIRECTION('',(1.,0.,0.));
#1630=DIRECTION('',(-2.08166817117217E-16,0.,-1.));
#1631=DIRECTION('',(-1.,0.,0.));
#1632=DIRECTION('',(1.38777878078144E-16,0.,1.));
#1633=DIRECTION('',(1.,0.,0.));
#1634=DIRECTION('',(0.,0.,-1.));
#1635=DIRECTION('center_axis',(-1.,0.,1.0842021724855E-16));
#1636=DIRECTION('ref_axis',(1.0842021724855E-16,0.,1.));
#1637=DIRECTION('',(0.,1.,0.));
#1638=DIRECTION('',(0.,1.,0.));
#1639=DIRECTION('center_axis',(0.,0.,-1.));
#1640=DIRECTION('ref_axis',(-1.,0.,0.));
#1641=DIRECTION('',(0.,1.,0.));
#1642=DIRECTION('center_axis',(1.,0.,0.));
#1643=DIRECTION('ref_axis',(0.,0.,-1.));
#1644=DIRECTION('',(0.,1.,0.));
#1645=DIRECTION('center_axis',(0.,0.,1.));
#1646=DIRECTION('ref_axis',(1.,0.,0.));
#1647=DIRECTION('center_axis',(-1.,0.,0.));
#1648=DIRECTION('ref_axis',(0.,0.,1.));
#1649=DIRECTION('',(0.,1.,0.));
#1650=DIRECTION('',(0.,1.,0.));
#1651=DIRECTION('center_axis',(0.,0.,-1.));
#1652=DIRECTION('ref_axis',(-1.,0.,0.));
#1653=DIRECTION('',(0.,1.,0.));
#1654=DIRECTION('center_axis',(1.,0.,-2.16840434497101E-16));
#1655=DIRECTION('ref_axis',(-2.16840434497101E-16,0.,-1.));
#1656=DIRECTION('',(0.,1.,0.));
#1657=DIRECTION('center_axis',(0.,0.,1.));
#1658=DIRECTION('ref_axis',(1.,0.,0.));
#1659=DIRECTION('center_axis',(1.,0.,-1.0842021724855E-16));
#1660=DIRECTION('ref_axis',(-1.0842021724855E-16,0.,-1.));
#1661=DIRECTION('',(0.,-1.,0.));
#1662=DIRECTION('',(1.38777878078144E-16,0.,1.));
#1663=DIRECTION('',(0.,-1.,0.));
#1664=DIRECTION('center_axis',(0.,0.,-1.));
#1665=DIRECTION('ref_axis',(-1.,0.,0.));
#1666=DIRECTION('',(1.,0.,0.));
#1667=DIRECTION('',(0.,-1.,0.));
#1668=DIRECTION('center_axis',(-1.,0.,0.));
#1669=DIRECTION('ref_axis',(0.,0.,1.));
#1670=DIRECTION('',(0.,0.,-1.));
#1671=DIRECTION('',(0.,-1.,0.));
#1672=DIRECTION('center_axis',(0.,0.,1.));
#1673=DIRECTION('ref_axis',(1.,0.,0.));
#1674=DIRECTION('',(-1.,0.,0.));
#1675=DIRECTION('center_axis',(1.,0.,0.));
#1676=DIRECTION('ref_axis',(0.,0.,-1.));
#1677=DIRECTION('',(0.,-1.,0.));
#1678=DIRECTION('',(0.,0.,1.));
#1679=DIRECTION('',(0.,-1.,0.));
#1680=DIRECTION('center_axis',(0.,0.,-1.));
#1681=DIRECTION('ref_axis',(-1.,0.,0.));
#1682=DIRECTION('',(1.,0.,0.));
#1683=DIRECTION('',(0.,-1.,0.));
#1684=DIRECTION('center_axis',(-1.,0.,2.16840434497101E-16));
#1685=DIRECTION('ref_axis',(2.16840434497101E-16,0.,1.));
#1686=DIRECTION('',(-2.08166817117217E-16,0.,-1.));
#1687=DIRECTION('',(0.,-1.,0.));
#1688=DIRECTION('center_axis',(0.,0.,1.));
#1689=DIRECTION('ref_axis',(1.,0.,0.));
#1690=DIRECTION('',(-1.,0.,0.));
#1691=DIRECTION('center_axis',(0.,1.,0.));
#1692=DIRECTION('ref_axis',(0.,0.,1.));
#1693=DIRECTION('center_axis',(0.,1.,0.));
#1694=DIRECTION('ref_axis',(0.,0.,1.));
#1695=DIRECTION('center_axis',(5.74259625257153E-19,-1.,0.));
#1696=DIRECTION('ref_axis',(0.,0.,-1.));
#1697=DIRECTION('',(-1.,0.,0.));
#1698=DIRECTION('center_axis',(0.,0.,1.));
#1699=DIRECTION('ref_axis',(1.,0.,0.));
#1700=DIRECTION('center_axis',(0.,0.,-1.));
#1701=DIRECTION('ref_axis',(-1.,0.,0.));
#1702=DIRECTION('center_axis',(7.19140449710712E-13,0.707106781186488,-0.707106781186607));
#1703=DIRECTION('ref_axis',(-0.99424677960513,0.0757408121324759,0.0757408121315121));
#1704=DIRECTION('center_axis',(-3.59570224855594E-12,0.707106781186274,
0.707106781186821));
#1705=DIRECTION('ref_axis',(-0.994246779605161,-0.0757408121343964,0.075740812129192));
#1706=DIRECTION('center_axis',(0.,0.707106781186543,0.707106781186552));
#1707=DIRECTION('ref_axis',(1.,0.,0.));
#1708=DIRECTION('center_axis',(2.99641854019959E-13,0.707106781186072,0.707106781187023));
#1709=DIRECTION('ref_axis',(0.994912728528496,-0.0712343407775976,0.0712343407772179));
#1710=DIRECTION('center_axis',(0.,0.707106781186543,0.707106781186552));
#1711=DIRECTION('ref_axis',(0.,0.707106781186553,-0.707106781186543));
#1712=DIRECTION('center_axis',(0.,0.707106781186543,0.707106781186552));
#1713=DIRECTION('ref_axis',(0.,0.707106781186553,-0.707106781186543));
#1714=DIRECTION('center_axis',(0.,0.707106781186543,-0.707106781186552));
#1715=DIRECTION('ref_axis',(-1.,0.,0.));
#1716=DIRECTION('center_axis',(0.,0.707106781186543,-0.707106781186552));
#1717=DIRECTION('ref_axis',(0.,-0.707106781186553,-0.707106781186543));
#1718=DIRECTION('center_axis',(9.82825281273066E-12,-0.707106781185821,
0.707106781187274));
#1719=DIRECTION('ref_axis',(0.994246779605113,0.0757408121390905,0.0757408121251159));
#1720=DIRECTION('center_axis',(0.,0.707106781186543,-0.707106781186552));
#1721=DIRECTION('ref_axis',(0.,-0.707106781186553,-0.707106781186543));
#1722=DIRECTION('center_axis',(0.,0.,-1.));
#1723=DIRECTION('ref_axis',(1.,-1.64435472324438E-13,0.));
#1724=DIRECTION('center_axis',(0.,-0.707106781186547,-0.707106781186548));
#1725=DIRECTION('ref_axis',(-1.,0.,0.));
#1726=DIRECTION('center_axis',(-3.23613202370782E-12,0.707106781186304,
0.707106781186791));
#1727=DIRECTION('ref_axis',(0.994246779605136,0.0757408121343143,-0.0757408121295919));
#1728=DIRECTION('center_axis',(0.,-0.707106781186547,-0.707106781186548));
#1729=DIRECTION('ref_axis',(0.,0.707106781186548,-0.707106781186547));
#1730=DIRECTION('center_axis',(0.,-0.707106781186547,-0.707106781186548));
#1731=DIRECTION('ref_axis',(0.,0.707106781186548,-0.707106781186547));
#1732=DIRECTION('center_axis',(-3.59570224823849E-13,0.70710678118657,0.707106781186525));
#1733=DIRECTION('ref_axis',(-0.994912728528541,0.0712343407768541,-0.071234340777336));
#1734=DIRECTION('center_axis',(0.,0.,1.));
#1735=DIRECTION('ref_axis',(1.,0.,0.));
#1736=DIRECTION('center_axis',(3.59570224854876E-13,0.707106781186518,-0.707106781186578));
#1737=DIRECTION('ref_axis',(0.994246779605172,-0.0757408121319589,-0.075740812131477));
#1738=DIRECTION('center_axis',(0.,0.,1.));
#1739=DIRECTION('ref_axis',(-1.,1.65966899804009E-13,0.));
#1740=DIRECTION('center_axis',(1.43828089942687E-12,-0.707106781186431,
0.707106781186664));
#1741=DIRECTION('ref_axis',(-0.99424677960518,-0.0757408121326767,-0.0757408121306527));
#1742=DIRECTION('center_axis',(0.,-0.707106781186547,0.707106781186548));
#1743=DIRECTION('ref_axis',(1.,0.,0.));
#1744=DIRECTION('center_axis',(0.,-0.707106781186547,0.707106781186548));
#1745=DIRECTION('ref_axis',(0.,-0.707106781186548,-0.707106781186547));
#1746=DIRECTION('center_axis',(0.,-0.707106781186547,0.707106781186548));
#1747=DIRECTION('ref_axis',(0.,-0.707106781186548,-0.707106781186547));
#1748=DIRECTION('center_axis',(0.,0.,-1.));
#1749=DIRECTION('ref_axis',(-1.,0.,0.));
#1750=DIRECTION('center_axis',(0.,0.,-1.));
#1751=DIRECTION('ref_axis',(-1.,0.,0.));
#1752=DIRECTION('center_axis',(0.,0.,-1.));
#1753=DIRECTION('ref_axis',(-1.,0.,0.));
#1754=DIRECTION('center_axis',(0.,0.,-1.));
#1755=DIRECTION('ref_axis',(-1.,0.,0.));
#1756=DIRECTION('center_axis',(0.,0.,-1.));
#1757=DIRECTION('ref_axis',(-1.,0.,0.));
#1758=DIRECTION('center_axis',(0.,0.,-1.));
#1759=DIRECTION('ref_axis',(-1.,0.,0.));
#1760=DIRECTION('center_axis',(0.,0.,-1.));
#1761=DIRECTION('ref_axis',(-1.,0.,0.));
#1762=DIRECTION('center_axis',(0.,0.,-1.));
#1763=DIRECTION('ref_axis',(-1.,0.,0.));
#1764=DIRECTION('center_axis',(0.,0.,-1.));
#1765=DIRECTION('ref_axis',(-1.,0.,0.));
#1766=DIRECTION('center_axis',(0.,0.,-1.));
#1767=DIRECTION('ref_axis',(-1.,0.,0.));
#1768=DIRECTION('center_axis',(0.,0.,-1.));
#1769=DIRECTION('ref_axis',(-1.,0.,0.));
#1770=DIRECTION('center_axis',(0.,0.,1.));
#1771=DIRECTION('ref_axis',(1.,0.,0.));
#1772=DIRECTION('center_axis',(0.,0.,1.));
#1773=DIRECTION('ref_axis',(1.,0.,0.));
#1774=DIRECTION('center_axis',(-1.22464679914735E-16,-1.,0.));
#1775=DIRECTION('ref_axis',(1.,-1.22464679914735E-16,0.));
#1776=DIRECTION('center_axis',(0.,0.,1.));
#1777=DIRECTION('ref_axis',(1.,0.,0.));
#1778=DIRECTION('center_axis',(1.22464679914735E-16,-1.,0.));
#1779=DIRECTION('ref_axis',(-1.,-1.22464679914735E-16,0.));
#1780=CARTESIAN_POINT('',(0.,0.,0.));
#1781=CARTESIAN_POINT('Origin',(5.9,-1.4,26.5));
#1782=CARTESIAN_POINT('',(5.9,-1.4,40.));
#1783=CARTESIAN_POINT('',(5.9,1.2,40.));
#1784=CARTESIAN_POINT('',(5.9,-1.4,40.));
#1785=CARTESIAN_POINT('',(5.9,1.2,26.5));
#1786=CARTESIAN_POINT('',(5.9,1.2,26.5));
#1787=CARTESIAN_POINT('',(5.9,-0.0500000000000003,26.5));
#1788=CARTESIAN_POINT('',(5.9,-0.0500000000000003,26.5));
#1789=CARTESIAN_POINT('',(5.9,-0.0500000000000003,39.4));
#1790=CARTESIAN_POINT('',(5.9,-0.0500000000000003,39.4));
#1791=CARTESIAN_POINT('',(5.9,-1.4,39.4));
#1792=CARTESIAN_POINT('',(5.9,-1.4,39.4));
#1793=CARTESIAN_POINT('',(5.9,-1.4,39.4));
#1794=CARTESIAN_POINT('Origin',(-5.9,1.4,26.5));
#1795=CARTESIAN_POINT('',(-5.9,1.2,26.5));
#1796=CARTESIAN_POINT('',(-5.9,-0.0500000000000003,26.5));
#1797=CARTESIAN_POINT('',(-5.9,1.2,26.5));
#1798=CARTESIAN_POINT('',(-5.9,1.2,40.));
#1799=CARTESIAN_POINT('',(-5.9,1.2,26.5));
#1800=CARTESIAN_POINT('',(-5.9,-1.4,40.));
#1801=CARTESIAN_POINT('',(-5.9,1.2,40.));
#1802=CARTESIAN_POINT('',(-5.9,-1.4,39.4));
#1803=CARTESIAN_POINT('',(-5.9,-1.4,39.4));
#1804=CARTESIAN_POINT('',(-5.9,-0.0500000000000003,39.4));
#1805=CARTESIAN_POINT('',(-5.9,-0.0500000000000003,39.4));
#1806=CARTESIAN_POINT('',(-5.9,-0.0500000000000003,39.4));
#1807=CARTESIAN_POINT('Origin',(0.,0.,26.5));
#1808=CARTESIAN_POINT('',(5.7,1.4,26.5));
#1809=CARTESIAN_POINT('Origin',(5.7,1.2,26.5));
#1810=CARTESIAN_POINT('',(-5.7,1.4,26.5));
#1811=CARTESIAN_POINT('',(5.7,1.4,26.5));
#1812=CARTESIAN_POINT('Origin',(-5.7,1.2,26.5));
#1813=CARTESIAN_POINT('',(5.9,-0.0500000000000003,26.5));
#1814=CARTESIAN_POINT('Origin',(-6.,-1.5,40.));
#1815=CARTESIAN_POINT('',(-5.8,-1.5,40.));
#1816=CARTESIAN_POINT('',(5.8,-1.5,40.));
#1817=CARTESIAN_POINT('',(-5.8,-1.5,40.));
#1818=CARTESIAN_POINT('',(-5.8,-1.5,27.));
#1819=CARTESIAN_POINT('',(-5.8,-1.5,40.));
#1820=CARTESIAN_POINT('',(5.8,-1.5,27.));
#1821=CARTESIAN_POINT('',(-5.8,-1.5,27.));
#1822=CARTESIAN_POINT('',(5.8,-1.5,40.));
#1823=CARTESIAN_POINT('',(-4.,-1.5,33.));
#1824=CARTESIAN_POINT('',(-4.,-1.5,35.));
#1825=CARTESIAN_POINT('',(-4.,-1.5,33.));
#1826=CARTESIAN_POINT('',(-1.,-1.5,35.));
#1827=CARTESIAN_POINT('',(-4.,-1.5,35.));
#1828=CARTESIAN_POINT('',(-1.,-1.5,33.));
#1829=CARTESIAN_POINT('',(-1.,-1.5,35.));
#1830=CARTESIAN_POINT('',(-1.,-1.5,33.));
#1831=CARTESIAN_POINT('',(1.,-1.5,33.));
#1832=CARTESIAN_POINT('',(1.,-1.5,35.));
#1833=CARTESIAN_POINT('',(1.,-1.5,33.));
#1834=CARTESIAN_POINT('',(4.,-1.5,35.));
#1835=CARTESIAN_POINT('',(1.,-1.5,35.));
#1836=CARTESIAN_POINT('',(4.,-1.5,33.));
#1837=CARTESIAN_POINT('',(4.,-1.5,35.));
#1838=CARTESIAN_POINT('',(4.,-1.5,33.));
#1839=CARTESIAN_POINT('Origin',(-5.9,-1.4,26.5));
#1840=CARTESIAN_POINT('',(-5.9,-1.4,39.4));
#1841=CARTESIAN_POINT('',(-5.9,-1.4,40.));
#1842=CARTESIAN_POINT('Origin',(5.83333333333333,0.,27.));
#1843=CARTESIAN_POINT('',(-6.92623975405228,-3.49999999999939,27.));
#1844=CARTESIAN_POINT('',(6.92623975405228,-3.49999999999999,27.));
#1845=CARTESIAN_POINT('',(-6.92623975405228,-3.49999999999999,27.));
#1846=CARTESIAN_POINT('',(6.92623975405227,3.49999999999999,27.));
#1847=CARTESIAN_POINT('Origin',(5.83333333333333,0.,27.));
#1848=CARTESIAN_POINT('',(-6.92623975405227,3.49999999999999,27.));
#1849=CARTESIAN_POINT('',(6.92623975405228,3.49999999999999,27.));
#1850=CARTESIAN_POINT('Origin',(-5.83333333333333,0.,27.));
#1851=CARTESIAN_POINT('',(-6.,1.3,27.));
#1852=CARTESIAN_POINT('',(-6.,-1.3,27.));
#1853=CARTESIAN_POINT('',(-6.,1.3,27.));
#1854=CARTESIAN_POINT('',(-5.8,1.5,27.));
#1855=CARTESIAN_POINT('Origin',(-5.8,1.3,27.));
#1856=CARTESIAN_POINT('',(5.8,1.5,27.));
#1857=CARTESIAN_POINT('',(5.8,1.5,27.));
#1858=CARTESIAN_POINT('',(6.,1.3,27.));
#1859=CARTESIAN_POINT('Origin',(5.8,1.3,27.));
#1860=CARTESIAN_POINT('',(6.,-1.3,27.));
#1861=CARTESIAN_POINT('',(6.,-1.3,27.));
#1862=CARTESIAN_POINT('Origin',(5.8,-1.3,27.));
#1863=CARTESIAN_POINT('Origin',(-5.8,-1.3,27.));
#1864=CARTESIAN_POINT('Origin',(0.,-7.,10.));
#1865=CARTESIAN_POINT('',(-4.,-3.75,10.));
#1866=CARTESIAN_POINT('',(4.,-3.75,10.));
#1867=CARTESIAN_POINT('Origin',(0.,-3.75,10.));
#1868=CARTESIAN_POINT('',(4.,-4.,10.));
#1869=CARTESIAN_POINT('',(4.,-4.,10.));
#1870=CARTESIAN_POINT('',(-4.,-4.,10.));
#1871=CARTESIAN_POINT('Origin',(0.,-4.,10.));
#1872=CARTESIAN_POINT('',(-4.,-4.,10.));
#1873=CARTESIAN_POINT('Origin',(-4.,-7.,10.));
#1874=CARTESIAN_POINT('',(-4.,-4.,-4.49999999999999));
#1875=CARTESIAN_POINT('',(-4.,-4.,10.));
#1876=CARTESIAN_POINT('',(-4.,-3.75,-4.74999999999999));
#1877=CARTESIAN_POINT('',(-4.,-4.,-4.49999999999999));
#1878=CARTESIAN_POINT('',(-4.,-3.75,-4.74999999999999));
#1879=CARTESIAN_POINT('Origin',(4.,-7.,10.));
#1880=CARTESIAN_POINT('',(4.,-3.75,-4.75));
#1881=CARTESIAN_POINT('',(4.,-3.75,10.));
#1882=CARTESIAN_POINT('',(4.,-4.,-4.5));
#1883=CARTESIAN_POINT('',(4.,-3.75,-4.75));
#1884=CARTESIAN_POINT('',(4.,-4.,10.));
#1885=CARTESIAN_POINT('Origin',(-7.,4.,27.));
#1886=CARTESIAN_POINT('',(-6.66666666666667,4.,26.5));
#1887=CARTESIAN_POINT('',(6.66666666666667,4.,26.5));
#1888=CARTESIAN_POINT('',(-6.66666666666667,4.,26.5));
#1889=CARTESIAN_POINT('',(6.66666666666667,4.,-4.5));
#1890=CARTESIAN_POINT('',(6.66666666666667,4.,26.5));
#1891=CARTESIAN_POINT('',(4.,4.,-4.5));
#1892=CARTESIAN_POINT('',(6.66666666666667,4.,-4.5));
#1893=CARTESIAN_POINT('',(4.,4.,10.));
#1894=CARTESIAN_POINT('',(4.,4.,10.));
#1895=CARTESIAN_POINT('',(-4.,4.,10.));
#1896=CARTESIAN_POINT('Origin',(0.,4.,10.));
#1897=CARTESIAN_POINT('',(-4.,4.,-4.49999999999999));
#1898=CARTESIAN_POINT('',(-4.,4.,10.));
#1899=CARTESIAN_POINT('',(-6.66666666666667,4.,-4.49999999999999));
#1900=CARTESIAN_POINT('',(-4.,4.,-4.49999999999999));
#1901=CARTESIAN_POINT('',(-6.66666666666667,4.,-4.49999999999999));
#1902=CARTESIAN_POINT('Origin',(-7.,-4.,27.));
#1903=CARTESIAN_POINT('',(6.66666666666667,-4.,-4.5));
#1904=CARTESIAN_POINT('',(4.,-4.,-4.5));
#1905=CARTESIAN_POINT('',(6.66666666666667,-4.,26.5));
#1906=CARTESIAN_POINT('',(6.66666666666667,-4.,-4.5));
#1907=CARTESIAN_POINT('',(-6.66666666666667,-4.,26.5));
#1908=CARTESIAN_POINT('',(6.66666666666667,-4.,26.5));
#1909=CARTESIAN_POINT('',(-6.66666666666667,-4.,-4.49999999999999));
#1910=CARTESIAN_POINT('',(-6.66666666666667,-4.,26.5));
#1911=CARTESIAN_POINT('',(-6.66666666666667,-4.,-4.49999999999999));
#1912=CARTESIAN_POINT('Origin',(-5.83333333333333,0.,27.));
#1913=CARTESIAN_POINT('',(-7.43589743589744,3.84615384615385,-4.49999999999999));
#1914=CARTESIAN_POINT('',(-7.43589743589744,-3.84615384615385,-4.49999999999999));
#1915=CARTESIAN_POINT('Origin',(-5.83333333333333,0.,-4.49999999999999));
#1916=CARTESIAN_POINT('',(-7.43589743589744,-3.84615384615385,26.5));
#1917=CARTESIAN_POINT('',(-7.43589743589744,-3.84615384615385,26.5));
#1918=CARTESIAN_POINT('',(-7.43589743589744,3.84615384615385,26.5));
#1919=CARTESIAN_POINT('Origin',(-5.83333333333333,0.,26.5));
#1920=CARTESIAN_POINT('',(-7.43589743589744,3.84615384615385,26.5));
#1921=CARTESIAN_POINT('Origin',(5.83333333333333,0.,27.));
#1922=CARTESIAN_POINT('',(7.43589743589744,3.84615384615385,26.5));
#1923=CARTESIAN_POINT('',(7.43589743589744,-3.84615384615385,26.5));
#1924=CARTESIAN_POINT('Origin',(5.83333333333333,0.,26.5));
#1925=CARTESIAN_POINT('',(7.43589743589744,-3.84615384615385,-4.5));
#1926=CARTESIAN_POINT('',(7.43589743589744,-3.84615384615385,26.5));
#1927=CARTESIAN_POINT('',(7.43589743589744,3.84615384615385,-4.5));
#1928=CARTESIAN_POINT('Origin',(5.83333333333333,0.,-4.5));
#1929=CARTESIAN_POINT('',(7.43589743589744,3.84615384615385,26.5));
#1930=CARTESIAN_POINT('Origin',(0.,-7.,10.));
#1931=CARTESIAN_POINT('',(4.,3.75,10.));
#1932=CARTESIAN_POINT('',(4.,3.75,10.));
#1933=CARTESIAN_POINT('',(-4.,3.75,10.));
#1934=CARTESIAN_POINT('Origin',(0.,3.75,10.));
#1935=CARTESIAN_POINT('',(-4.,3.75,10.));
#1936=CARTESIAN_POINT('Origin',(-4.,-7.,10.));
#1937=CARTESIAN_POINT('',(-4.,3.75,-4.74999999999999));
#1938=CARTESIAN_POINT('',(-4.,3.75,10.));
#1939=CARTESIAN_POINT('',(-4.,4.,-4.49999999999999));
#1940=CARTESIAN_POINT('Origin',(4.,-7.,10.));
#1941=CARTESIAN_POINT('',(4.,3.75,-4.75));
#1942=CARTESIAN_POINT('',(4.,3.75,-4.75));
#1943=CARTESIAN_POINT('',(4.,3.75,-4.75));
#1944=CARTESIAN_POINT('Origin',(-4.,3.75,-5.));
#1945=CARTESIAN_POINT('',(6.92623975405228,-3.49999999999939,-5.));
#1946=CARTESIAN_POINT('',(-6.92623975405228,-3.49999999999999,-5.));
#1947=CARTESIAN_POINT('',(6.92623975405228,-3.5,-5.));
#1948=CARTESIAN_POINT('',(-6.92623975405228,3.49999999999999,-5.));
#1949=CARTESIAN_POINT('Origin',(-5.83333333333333,0.,-5.));
#1950=CARTESIAN_POINT('',(6.92623975405228,3.5,-5.));
#1951=CARTESIAN_POINT('',(-6.92623975405228,3.5,-5.));
#1952=CARTESIAN_POINT('Origin',(5.83333333333333,0.,-5.));
#1953=CARTESIAN_POINT('',(2.25,-2.75545529808154E-16,-5.));
#1954=CARTESIAN_POINT('Origin',(0.,0.,-5.));
#1955=CARTESIAN_POINT('Origin',(0.,3.75,10.));
#1956=CARTESIAN_POINT('',(-4.,3.75,-4.75));
#1957=CARTESIAN_POINT('Origin',(0.,-3.75,10.));
#1958=CARTESIAN_POINT('',(-4.,-3.75,-4.75));
#1959=CARTESIAN_POINT('Origin',(0.,0.,-5.5));
#1960=CARTESIAN_POINT('',(-1.75,-2.14313189850787E-16,-5.22360679774998));
#1961=CARTESIAN_POINT('Origin',(0.,0.,-5.22360679774998));
#1962=CARTESIAN_POINT('',(-1.75,0.,6.5));
#1963=CARTESIAN_POINT('',(-1.75,-2.14313189850787E-16,-5.5));
#1964=CARTESIAN_POINT('Origin',(0.,0.,6.5));
#1965=CARTESIAN_POINT('Origin',(0.,0.,6.5));
#1966=CARTESIAN_POINT('Origin',(-6.,1.5,40.));
#1967=CARTESIAN_POINT('',(-6.,1.3,40.));
#1968=CARTESIAN_POINT('',(-6.,-1.3,40.));
#1969=CARTESIAN_POINT('',(-6.,1.3,40.));
#1970=CARTESIAN_POINT('',(-6.,1.3,40.));
#1971=CARTESIAN_POINT('',(-6.,-1.3,40.));
#1972=CARTESIAN_POINT('Origin',(6.,1.5,40.));
#1973=CARTESIAN_POINT('',(6.,-1.3,40.));
#1974=CARTESIAN_POINT('',(6.,1.3,40.));
#1975=CARTESIAN_POINT('',(6.,-1.3,40.));
#1976=CARTESIAN_POINT('',(6.,-1.3,40.));
#1977=CARTESIAN_POINT('',(6.,1.3,40.));
#1978=CARTESIAN_POINT('Origin',(-6.,1.5,40.));
#1979=CARTESIAN_POINT('',(-5.8,1.5,40.));
#1980=CARTESIAN_POINT('',(-5.8,1.5,40.));
#1981=CARTESIAN_POINT('',(5.8,1.5,40.));
#1982=CARTESIAN_POINT('',(5.8,1.5,40.));
#1983=CARTESIAN_POINT('',(5.8,1.5,40.));
#1984=CARTESIAN_POINT('',(-4.,1.5,35.));
#1985=CARTESIAN_POINT('',(-1.,1.5,35.));
#1986=CARTESIAN_POINT('',(-4.,1.5,35.));
#1987=CARTESIAN_POINT('',(-4.,1.5,33.));
#1988=CARTESIAN_POINT('',(-4.,1.5,33.));
#1989=CARTESIAN_POINT('',(-1.,1.5,33.));
#1990=CARTESIAN_POINT('',(-1.,1.5,33.));
#1991=CARTESIAN_POINT('',(-1.,1.5,35.));
#1992=CARTESIAN_POINT('',(1.,1.5,35.));
#1993=CARTESIAN_POINT('',(4.,1.5,35.));
#1994=CARTESIAN_POINT('',(1.,1.5,35.));
#1995=CARTESIAN_POINT('',(1.,1.5,33.));
#1996=CARTESIAN_POINT('',(1.,1.5,33.));
#1997=CARTESIAN_POINT('',(4.,1.5,33.));
#1998=CARTESIAN_POINT('',(4.,1.5,33.));
#1999=CARTESIAN_POINT('',(4.,1.5,35.));
#2000=CARTESIAN_POINT('Origin',(0.,0.,40.));
#2001=CARTESIAN_POINT('Origin',(-5.8,1.3,40.));
#2002=CARTESIAN_POINT('Origin',(-5.8,-1.3,40.));
#2003=CARTESIAN_POINT('Origin',(5.8,-1.3,40.));
#2004=CARTESIAN_POINT('Origin',(5.8,1.3,40.));
#2005=CARTESIAN_POINT('',(-5.7,1.4,40.));
#2006=CARTESIAN_POINT('Origin',(-5.7,1.2,40.));
#2007=CARTESIAN_POINT('',(5.7,1.4,40.));
#2008=CARTESIAN_POINT('',(5.7,1.4,40.));
#2009=CARTESIAN_POINT('Origin',(5.7,1.2,40.));
#2010=CARTESIAN_POINT('Origin',(5.9,1.4,26.5));
#2011=CARTESIAN_POINT('',(5.7,1.4,26.5));
#2012=CARTESIAN_POINT('',(-5.7,1.4,26.5));
#2013=CARTESIAN_POINT('',(-1.,1.4,33.));
#2014=CARTESIAN_POINT('',(-4.,1.4,33.));
#2015=CARTESIAN_POINT('',(-1.,1.4,33.));
#2016=CARTESIAN_POINT('',(-4.,1.4,35.));
#2017=CARTESIAN_POINT('',(-4.,1.4,33.));
#2018=CARTESIAN_POINT('',(-0.999999999999999,1.4,35.));
#2019=CARTESIAN_POINT('',(-4.,1.4,35.));
#2020=CARTESIAN_POINT('',(-1.,1.4,35.));
#2021=CARTESIAN_POINT('',(4.,1.4,33.));
#2022=CARTESIAN_POINT('',(1.,1.4,33.));
#2023=CARTESIAN_POINT('',(4.,1.4,33.));
#2024=CARTESIAN_POINT('',(1.,1.4,35.));
#2025=CARTESIAN_POINT('',(1.,1.4,33.));
#2026=CARTESIAN_POINT('',(4.,1.4,35.));
#2027=CARTESIAN_POINT('',(1.,1.4,35.));
#2028=CARTESIAN_POINT('',(4.,1.4,35.));
#2029=CARTESIAN_POINT('Origin',(1.,1.4,33.));
#2030=CARTESIAN_POINT('',(1.,1.4,35.));
#2031=CARTESIAN_POINT('',(1.,1.4,33.));
#2032=CARTESIAN_POINT('Origin',(1.,1.4,33.));
#2033=CARTESIAN_POINT('',(4.,1.4,33.));
#2034=CARTESIAN_POINT('Origin',(4.,1.4,33.));
#2035=CARTESIAN_POINT('',(4.,1.4,35.));
#2036=CARTESIAN_POINT('Origin',(1.,1.4,35.));
#2037=CARTESIAN_POINT('Origin',(-4.,1.4,33.));
#2038=CARTESIAN_POINT('',(-4.,1.4,35.));
#2039=CARTESIAN_POINT('',(-4.,1.4,33.));
#2040=CARTESIAN_POINT('Origin',(-4.,1.4,33.));
#2041=CARTESIAN_POINT('',(-1.,1.4,33.));
#2042=CARTESIAN_POINT('Origin',(-1.,1.4,33.));
#2043=CARTESIAN_POINT('',(-1.,1.4,35.));
#2044=CARTESIAN_POINT('Origin',(-4.,1.4,35.));
#2045=CARTESIAN_POINT('Origin',(1.,-1.4,33.));
#2046=CARTESIAN_POINT('',(1.,-1.4,33.));
#2047=CARTESIAN_POINT('',(1.,-1.4,33.));
#2048=CARTESIAN_POINT('',(1.,-1.4,35.));
#2049=CARTESIAN_POINT('',(1.,-1.4,33.));
#2050=CARTESIAN_POINT('',(1.,-1.4,35.));
#2051=CARTESIAN_POINT('Origin',(1.,-1.4,35.));
#2052=CARTESIAN_POINT('',(4.,-1.4,35.));
#2053=CARTESIAN_POINT('',(1.,-1.4,35.));
#2054=CARTESIAN_POINT('',(4.,-1.4,35.));
#2055=CARTESIAN_POINT('Origin',(4.,-1.4,33.));
#2056=CARTESIAN_POINT('',(4.,-1.4,33.));
#2057=CARTESIAN_POINT('',(4.,-1.4,35.));
#2058=CARTESIAN_POINT('',(4.,-1.4,33.));
#2059=CARTESIAN_POINT('Origin',(1.,-1.4,33.));
#2060=CARTESIAN_POINT('',(4.,-1.4,33.));
#2061=CARTESIAN_POINT('Origin',(-4.,-1.4,33.));
#2062=CARTESIAN_POINT('',(-4.,-1.4,33.));
#2063=CARTESIAN_POINT('',(-4.,-1.4,33.));
#2064=CARTESIAN_POINT('',(-4.,-1.4,35.));
#2065=CARTESIAN_POINT('',(-4.,-1.4,33.));
#2066=CARTESIAN_POINT('',(-4.,-1.4,35.));
#2067=CARTESIAN_POINT('Origin',(-4.,-1.4,35.));
#2068=CARTESIAN_POINT('',(-1.,-1.4,35.));
#2069=CARTESIAN_POINT('',(-4.,-1.4,35.));
#2070=CARTESIAN_POINT('',(-1.,-1.4,35.));
#2071=CARTESIAN_POINT('Origin',(-1.,-1.4,33.));
#2072=CARTESIAN_POINT('',(-1.,-1.4,33.));
#2073=CARTESIAN_POINT('',(-1.,-1.4,35.));
#2074=CARTESIAN_POINT('',(-1.,-1.4,33.));
#2075=CARTESIAN_POINT('Origin',(-4.,-1.4,33.));
#2076=CARTESIAN_POINT('',(-1.,-1.4,33.));
#2077=CARTESIAN_POINT('Origin',(0.,-1.4,39.4));
#2078=CARTESIAN_POINT('Origin',(0.,-1.4,39.4));
#2079=CARTESIAN_POINT('Origin',(2.87129812628578E-20,-0.0500000000000003,
39.4));
#2080=CARTESIAN_POINT('',(5.9,-0.0500000000000003,39.4));
#2081=CARTESIAN_POINT('Origin',(0.,0.,39.4));
#2082=CARTESIAN_POINT('Origin',(-5.83333333333333,0.,27.));
#2083=CARTESIAN_POINT('',(-6.99609107160093,-3.97268334037022,26.5273166596298));
#2084=CARTESIAN_POINT('Ctrl Pts',(-7.43589743589744,-3.84615384615385,26.5));
#2085=CARTESIAN_POINT('Ctrl Pts',(-7.299345381628,-3.90305053543278,26.5));
#2086=CARTESIAN_POINT('Ctrl Pts',(-7.14972276679056,-3.94702791524387,26.5087834207627));
#2087=CARTESIAN_POINT('Ctrl Pts',(-6.99609107160167,-3.97268334038518,26.5273166596152));
#2088=CARTESIAN_POINT('Origin',(97.3602078761274,-11.4444463889114,19.0555536111897));
#2089=CARTESIAN_POINT('',(-6.99609107160093,3.97268334037022,26.5273166596298));
#2090=CARTESIAN_POINT('Origin',(97.3602078764071,11.4444463891336,19.0555536114123));
#2091=CARTESIAN_POINT('Ctrl Pts',(-6.99609107160168,3.97268334038518,26.5273166596152));
#2092=CARTESIAN_POINT('Ctrl Pts',(-7.14972276679056,3.94702791524387,26.5087834207627));
#2093=CARTESIAN_POINT('Ctrl Pts',(-7.299345381628,3.90305053543278,26.5));
#2094=CARTESIAN_POINT('Ctrl Pts',(-7.43589743589744,3.84615384615385,26.5));
#2095=CARTESIAN_POINT('Origin',(-7.,4.,26.5));
#2096=CARTESIAN_POINT('',(6.99609107160304,3.97268334038495,26.5273166596151));
#2097=CARTESIAN_POINT('Origin',(-97.3602078769652,11.444446388975,19.0555536110648));
#2098=CARTESIAN_POINT('Origin',(6.66666666666667,2.,28.5));
#2099=CARTESIAN_POINT('Origin',(-6.66666666666667,2.,28.5));
#2100=CARTESIAN_POINT('Origin',(5.83333333333333,-3.49999999999999,27.));
#2101=CARTESIAN_POINT('',(6.99609107160097,-3.97268334037044,26.5273166596296));
#2102=CARTESIAN_POINT('Origin',(6.66666666666667,-2.,28.5));
#2103=CARTESIAN_POINT('Origin',(-97.3602078766653,-11.444446389646,19.0555536118198));
#2104=CARTESIAN_POINT('Origin',(-6.66666666666667,-2.,28.5));
#2105=CARTESIAN_POINT('Origin',(5.83333333333333,0.,26.5));
#2106=CARTESIAN_POINT('Ctrl Pts',(6.99609107160169,-3.97268334038517,26.5273166596152));
#2107=CARTESIAN_POINT('Ctrl Pts',(7.14972276679058,-3.94702791524387,26.5087834207627));
#2108=CARTESIAN_POINT('Ctrl Pts',(7.29934538162801,-3.90305053543277,26.5));
#2109=CARTESIAN_POINT('Ctrl Pts',(7.43589743589744,-3.84615384615385,26.5));
#2110=CARTESIAN_POINT('Ctrl Pts',(7.43589743589744,3.84615384615385,26.5));
#2111=CARTESIAN_POINT('Ctrl Pts',(7.29934538162841,3.90305053543261,26.5));
#2112=CARTESIAN_POINT('Ctrl Pts',(7.14972276679145,3.94702791524361,26.5087834207627));
#2113=CARTESIAN_POINT('Ctrl Pts',(6.99609107160304,3.97268334038495,26.5273166596151));
#2114=CARTESIAN_POINT('Origin',(-4.,-3.5,-5.));
#2115=CARTESIAN_POINT('',(6.99609107160093,-3.97268334037022,-4.52731665962978));
#2116=CARTESIAN_POINT('Origin',(-97.3602078764355,-11.4444463891276,2.94444638863229));
#2117=CARTESIAN_POINT('Origin',(6.66666666666667,-2.,-6.5));
#2118=CARTESIAN_POINT('',(-6.99609107160302,-3.97268334038495,-4.52731665961505));
#2119=CARTESIAN_POINT('Origin',(-6.66666666666667,-2.,-6.5));
#2120=CARTESIAN_POINT('Origin',(97.3602078767346,-11.4444463888802,2.94444638893076));
#2121=CARTESIAN_POINT('Origin',(5.83333333333333,0.,-5.));
#2122=CARTESIAN_POINT('Ctrl Pts',(7.43589743589744,-3.84615384615385,-4.5));
#2123=CARTESIAN_POINT('Ctrl Pts',(7.299345381628,-3.90305053543278,-4.5));
#2124=CARTESIAN_POINT('Ctrl Pts',(7.14972276679056,-3.94702791524387,-4.50878342076272));
#2125=CARTESIAN_POINT('Ctrl Pts',(6.99609107160168,-3.97268334038518,-4.52731665961522));
#2126=CARTESIAN_POINT('',(6.9960910716009,3.97268334037,-4.52731665963));
#2127=CARTESIAN_POINT('Origin',(-97.3602078760523,11.4444463888508,2.94444638880022));
#2128=CARTESIAN_POINT('Ctrl Pts',(6.99609107160165,3.97268334038518,-4.52731665961522));
#2129=CARTESIAN_POINT('Ctrl Pts',(7.14972276679055,3.94702791524387,-4.50878342076272));
#2130=CARTESIAN_POINT('Ctrl Pts',(7.299345381628,3.90305053543278,-4.5));
#2131=CARTESIAN_POINT('Ctrl Pts',(7.43589743589744,3.84615384615385,-4.5));
#2132=CARTESIAN_POINT('Origin',(-5.83333333333333,0.,-5.));
#2133=CARTESIAN_POINT('Ctrl Pts',(-6.99609107160302,-3.97268334038495,-4.52731665961505));
#2134=CARTESIAN_POINT('Ctrl Pts',(-7.14972276679144,-3.94702791524361,-4.50878342076266));
#2135=CARTESIAN_POINT('Ctrl Pts',(-7.2993453816284,-3.90305053543261,-4.49999999999999));
#2136=CARTESIAN_POINT('Ctrl Pts',(-7.43589743589744,-3.84615384615385,-4.49999999999999));
#2137=CARTESIAN_POINT('',(-6.99609107160092,3.97268334037034,-4.52731665962966));
#2138=CARTESIAN_POINT('Ctrl Pts',(-7.43589743589744,3.84615384615385,-4.49999999999999));
#2139=CARTESIAN_POINT('Ctrl Pts',(-7.299345381628,3.90305053543278,-4.49999999999999));
#2140=CARTESIAN_POINT('Ctrl Pts',(-7.14972276679055,3.94702791524387,-4.50878342076271));
#2141=CARTESIAN_POINT('Ctrl Pts',(-6.99609107160166,3.97268334038518,-4.52731665961521));
#2142=CARTESIAN_POINT('Origin',(97.3602078766007,11.4444463889681,2.94444638875579));
#2143=CARTESIAN_POINT('Origin',(-4.,3.5,-5.));
#2144=CARTESIAN_POINT('Origin',(6.66666666666667,2.,-6.5));
#2145=CARTESIAN_POINT('Origin',(-6.66666666666667,2.,-6.5));
#2146=CARTESIAN_POINT('Origin',(-5.8,-1.3,40.));
#2147=CARTESIAN_POINT('Origin',(5.8,-1.3,40.));
#2148=CARTESIAN_POINT('Origin',(-5.7,1.2,26.5));
#2149=CARTESIAN_POINT('Origin',(5.8,1.3,40.));
#2150=CARTESIAN_POINT('Origin',(5.7,1.2,26.5));
#2151=CARTESIAN_POINT('Origin',(-5.8,1.3,40.));
#2152=CARTESIAN_POINT('Origin',(6.66666666666667,-2.,27.));
#2153=CARTESIAN_POINT('Origin',(-6.66666666666667,-2.,27.));
#2154=CARTESIAN_POINT('Origin',(6.66666666666667,2.,27.));
#2155=CARTESIAN_POINT('Origin',(-6.66666666666667,2.,27.));
#2156=CARTESIAN_POINT('Origin',(0.,0.,-5.));
#2157=CARTESIAN_POINT('',(2.08333333333333,0.,-5.37267799624996));
#2158=CARTESIAN_POINT('',(-2.08333333333333,-2.55134749822365E-16,-5.37267799624996));
#2159=CARTESIAN_POINT('Origin',(0.,0.,-5.37267799624996));
#2160=CARTESIAN_POINT('Origin',(0.,0.,-5.37267799624996));
#2161=CARTESIAN_POINT('Origin',(1.75,-2.14313189850787E-16,-5.));
#2162=CARTESIAN_POINT('Origin',(0.,0.,-5.22360679774998));
#2163=CARTESIAN_POINT('Origin',(-1.95,-2.38806125833734E-16,-5.22360679774998));
#2164=UNCERTAINTY_MEASURE_WITH_UNIT(LENGTH_MEASURE(0.01),#2168,
'DISTANCE_ACCURACY_VALUE',
'Maximum model space distance between geometric entities at asserted c
onnectivities');
#2165=UNCERTAINTY_MEASURE_WITH_UNIT(LENGTH_MEASURE(0.01),#2168,
'DISTANCE_ACCURACY_VALUE',
'Maximum model space distance between geometric entities at asserted c
onnectivities');
#2166=(
GEOMETRIC_REPRESENTATION_CONTEXT(3)
GLOBAL_UNCERTAINTY_ASSIGNED_CONTEXT((#2164))
GLOBAL_UNIT_ASSIGNED_CONTEXT((#2168,#2170,#2171))
REPRESENTATION_CONTEXT('','3D')
);
#2167=(
GEOMETRIC_REPRESENTATION_CONTEXT(3)
GLOBAL_UNCERTAINTY_ASSIGNED_CONTEXT((#2165))
GLOBAL_UNIT_ASSIGNED_CONTEXT((#2168,#2170,#2171))
REPRESENTATION_CONTEXT('','3D')
);
#2168=(
LENGTH_UNIT()
NAMED_UNIT(*)
SI_UNIT(.MILLI.,.METRE.)
);
#2169=(
LENGTH_UNIT()
NAMED_UNIT(*)
SI_UNIT($,.METRE.)
);
#2170=(
NAMED_UNIT(*)
PLANE_ANGLE_UNIT()
SI_UNIT($,.RADIAN.)
);
#2171=(
NAMED_UNIT(*)
SI_UNIT($,.STERADIAN.)
SOLID_ANGLE_UNIT()
);
#2172=SHAPE_DEFINITION_REPRESENTATION(#2173,#2174);
#2173=PRODUCT_DEFINITION_SHAPE('',$,#2176);
#2174=SHAPE_REPRESENTATION('',(#1317),#2166);
#2175=PRODUCT_DEFINITION_CONTEXT('part definition',#2180,'design');
#2176=PRODUCT_DEFINITION('2025-08-16-21-48-14-091','Part1',#2177,#2175);
#2177=PRODUCT_DEFINITION_FORMATION('',$,#2182);
#2178=PRODUCT_RELATED_PRODUCT_CATEGORY('Part1','Part1',(#2182));
#2179=APPLICATION_PROTOCOL_DEFINITION('international standard',
'automotive_design',2009,#2180);
#2180=APPLICATION_CONTEXT(
'Core Data for Automotive Mechanical Design Process');
#2181=PRODUCT_CONTEXT('part definition',#2180,'mechanical');
#2182=PRODUCT('2025-08-16-21-48-14-091','Part1',$,(#2181));
#2183=PRESENTATION_STYLE_ASSIGNMENT((#2191));
#2184=PRESENTATION_STYLE_ASSIGNMENT((#2192));
#2185=PRESENTATION_STYLE_ASSIGNMENT((#2193));
#2186=PRESENTATION_STYLE_ASSIGNMENT((#2194));
#2187=PRESENTATION_STYLE_ASSIGNMENT((#2195));
#2188=PRESENTATION_STYLE_ASSIGNMENT((#2196));
#2189=PRESENTATION_STYLE_ASSIGNMENT((#2197));
#2190=PRESENTATION_STYLE_ASSIGNMENT((#2198));
#2191=SURFACE_STYLE_USAGE(.BOTH.,#2199);
#2192=SURFACE_STYLE_USAGE(.BOTH.,#2200);
#2193=SURFACE_STYLE_USAGE(.BOTH.,#2201);
#2194=SURFACE_STYLE_USAGE(.BOTH.,#2202);
#2195=SURFACE_STYLE_USAGE(.BOTH.,#2203);
#2196=SURFACE_STYLE_USAGE(.BOTH.,#2204);
#2197=SURFACE_STYLE_USAGE(.BOTH.,#2205);
#2198=SURFACE_STYLE_USAGE(.BOTH.,#2206);
#2199=SURFACE_SIDE_STYLE('',(#2207));
#2200=SURFACE_SIDE_STYLE('',(#2208));
#2201=SURFACE_SIDE_STYLE('',(#2209));
#2202=SURFACE_SIDE_STYLE('',(#2210));
#2203=SURFACE_SIDE_STYLE('',(#2211));
#2204=SURFACE_SIDE_STYLE('',(#2212));
#2205=SURFACE_SIDE_STYLE('',(#2213));
#2206=SURFACE_SIDE_STYLE('',(#2214));
#2207=SURFACE_STYLE_FILL_AREA(#2215);
#2208=SURFACE_STYLE_FILL_AREA(#2216);
#2209=SURFACE_STYLE_FILL_AREA(#2217);
#2210=SURFACE_STYLE_FILL_AREA(#2218);
#2211=SURFACE_STYLE_FILL_AREA(#2219);
#2212=SURFACE_STYLE_FILL_AREA(#2220);
#2213=SURFACE_STYLE_FILL_AREA(#2221);
#2214=SURFACE_STYLE_FILL_AREA(#2222);
#2215=FILL_AREA_STYLE('Steel - Satin',(#2223));
#2216=FILL_AREA_STYLE('Opaque(186,153,132)',(#2224));
#2217=FILL_AREA_STYLE('Opaque(255,43,43)',(#2225));
#2218=FILL_AREA_STYLE('Opaque(255,255,255)',(#2226));
#2219=FILL_AREA_STYLE('Opaque(255,0,128)',(#2227));
#2220=FILL_AREA_STYLE('Opaque(76,76,76)',(#2228));
#2221=FILL_AREA_STYLE('Opaque(177,124,0)',(#2229));
#2222=FILL_AREA_STYLE('Opaque(10,125,181)',(#2230));
#2223=FILL_AREA_STYLE_COLOUR('Steel - Satin',#2231);
#2224=FILL_AREA_STYLE_COLOUR('Opaque(186,153,132)',#2232);
#2225=FILL_AREA_STYLE_COLOUR('Opaque(255,43,43)',#2233);
#2226=FILL_AREA_STYLE_COLOUR('Opaque(255,255,255)',#2234);
#2227=FILL_AREA_STYLE_COLOUR('Opaque(255,0,128)',#2235);
#2228=FILL_AREA_STYLE_COLOUR('Opaque(76,76,76)',#2236);
#2229=FILL_AREA_STYLE_COLOUR('Opaque(177,124,0)',#2237);
#2230=FILL_AREA_STYLE_COLOUR('Opaque(10,125,181)',#2238);
#2231=COLOUR_RGB('Steel - Satin',0.627450980392157,0.627450980392157,0.627450980392157);
#2232=COLOUR_RGB('Opaque(186,153,132)',0.729411764705882,0.6,0.517647058823529);
#2233=COLOUR_RGB('Opaque(255,43,43)',1.,0.168627450980392,0.168627450980392);
#2234=COLOUR_RGB('Opaque(255,255,255)',1.,1.,1.);
#2235=COLOUR_RGB('Opaque(255,0,128)',1.,0.,0.501960784313725);
#2236=COLOUR_RGB('Opaque(76,76,76)',0.298039215686275,0.298039215686275,
0.298039215686275);
#2237=COLOUR_RGB('Opaque(177,124,0)',0.698039215686274,0.490196078431373,
0.);
#2238=COLOUR_RGB('Opaque(10,125,181)',0.0392156862745098,0.490196078431373,
0.709803921568627);
ENDSEC;
END-ISO-10303-21;
