ISO-10303-21;
HEADER;
/* Generated by software containing ST-Developer
 * from STEP Tools, Inc. (www.steptools.com) 
 */

FILE_DESCRIPTION(
/* description */ (''),
/* implementation_level */ '2;1');

FILE_NAME(
/* name */ 'back_lid2.step',
/* time_stamp */ '2025-06-17T03:41:29+05:30',
/* author */ (''),
/* organization */ (''),
/* preprocessor_version */ 'ST-DEVELOPER v20.1',
/* originating_system */ 'Autodesk Translation Framework v14.10.0.0',
/* authorisation */ '');

FILE_SCHEMA (('AUTOMOTIVE_DESIGN { 1 0 10303 214 3 1 1 }'));
ENDSEC;

DATA;
#10=MECHANICAL_DESIGN_GEOMETRIC_PRESENTATION_REPRESENTATION('',(#13),#429);
#11=SHAPE_REPRESENTATION_RELATIONSHIP('SRR','None',#436,#12);
#12=ADVANCED_BREP_SHAPE_REPRESENTATION('',(#14),#428);
#13=STYLED_ITEM('',(#445),#14);
#14=MANIFOLD_SOLID_BREP('back_lid2',#257);
#15=FACE_OUTER_BOUND('',#35,.T.);
#16=FACE_OUTER_BOUND('',#36,.T.);
#17=FACE_OUTER_BOUND('',#37,.T.);
#18=FACE_OUTER_BOUND('',#38,.T.);
#19=FACE_OUTER_BOUND('',#39,.T.);
#20=FACE_OUTER_BOUND('',#40,.T.);
#21=FACE_OUTER_BOUND('',#41,.T.);
#22=FACE_OUTER_BOUND('',#42,.T.);
#23=FACE_OUTER_BOUND('',#43,.T.);
#24=FACE_OUTER_BOUND('',#44,.T.);
#25=FACE_OUTER_BOUND('',#45,.T.);
#26=FACE_OUTER_BOUND('',#46,.T.);
#27=FACE_OUTER_BOUND('',#47,.T.);
#28=FACE_OUTER_BOUND('',#48,.T.);
#29=FACE_OUTER_BOUND('',#49,.T.);
#30=FACE_OUTER_BOUND('',#50,.T.);
#31=FACE_OUTER_BOUND('',#51,.T.);
#32=FACE_OUTER_BOUND('',#52,.T.);
#33=FACE_OUTER_BOUND('',#53,.T.);
#34=FACE_OUTER_BOUND('',#54,.T.);
#35=EDGE_LOOP('',(#157,#158,#159));
#36=EDGE_LOOP('',(#160,#161,#162));
#37=EDGE_LOOP('',(#163,#164,#165));
#38=EDGE_LOOP('',(#166,#167,#168));
#39=EDGE_LOOP('',(#169,#170,#171));
#40=EDGE_LOOP('',(#172,#173,#174));
#41=EDGE_LOOP('',(#175,#176,#177));
#42=EDGE_LOOP('',(#178,#179,#180));
#43=EDGE_LOOP('',(#181,#182,#183));
#44=EDGE_LOOP('',(#184,#185,#186));
#45=EDGE_LOOP('',(#187,#188,#189));
#46=EDGE_LOOP('',(#190,#191,#192));
#47=EDGE_LOOP('',(#193,#194,#195));
#48=EDGE_LOOP('',(#196,#197,#198));
#49=EDGE_LOOP('',(#199,#200,#201));
#50=EDGE_LOOP('',(#202,#203,#204));
#51=EDGE_LOOP('',(#205,#206,#207));
#52=EDGE_LOOP('',(#208,#209,#210));
#53=EDGE_LOOP('',(#211,#212,#213));
#54=EDGE_LOOP('',(#214,#215,#216));
#55=LINE('',#367,#85);
#56=LINE('',#369,#86);
#57=LINE('',#370,#87);
#58=LINE('',#373,#88);
#59=LINE('',#374,#89);
#60=LINE('',#377,#90);
#61=LINE('',#378,#91);
#62=LINE('',#381,#92);
#63=LINE('',#382,#93);
#64=LINE('',#385,#94);
#65=LINE('',#386,#95);
#66=LINE('',#389,#96);
#67=LINE('',#390,#97);
#68=LINE('',#393,#98);
#69=LINE('',#394,#99);
#70=LINE('',#397,#100);
#71=LINE('',#398,#101);
#72=LINE('',#401,#102);
#73=LINE('',#402,#103);
#74=LINE('',#405,#104);
#75=LINE('',#406,#105);
#76=LINE('',#408,#106);
#77=LINE('',#409,#107);
#78=LINE('',#411,#108);
#79=LINE('',#413,#109);
#80=LINE('',#415,#110);
#81=LINE('',#417,#111);
#82=LINE('',#420,#112);
#83=LINE('',#422,#113);
#84=LINE('',#424,#114);
#85=VECTOR('',#295,10.);
#86=VECTOR('',#296,10.);
#87=VECTOR('',#297,10.);
#88=VECTOR('',#300,10.);
#89=VECTOR('',#301,10.);
#90=VECTOR('',#304,10.);
#91=VECTOR('',#305,10.);
#92=VECTOR('',#308,10.);
#93=VECTOR('',#309,10.);
#94=VECTOR('',#312,10.);
#95=VECTOR('',#313,10.);
#96=VECTOR('',#316,10.);
#97=VECTOR('',#317,10.);
#98=VECTOR('',#320,10.);
#99=VECTOR('',#321,10.);
#100=VECTOR('',#324,10.);
#101=VECTOR('',#325,10.);
#102=VECTOR('',#328,10.);
#103=VECTOR('',#329,10.);
#104=VECTOR('',#332,10.);
#105=VECTOR('',#333,10.);
#106=VECTOR('',#336,10.);
#107=VECTOR('',#337,10.);
#108=VECTOR('',#340,10.);
#109=VECTOR('',#343,10.);
#110=VECTOR('',#346,10.);
#111=VECTOR('',#349,10.);
#112=VECTOR('',#354,10.);
#113=VECTOR('',#357,10.);
#114=VECTOR('',#360,10.);
#115=VERTEX_POINT('',#365);
#116=VERTEX_POINT('',#366);
#117=VERTEX_POINT('',#368);
#118=VERTEX_POINT('',#372);
#119=VERTEX_POINT('',#376);
#120=VERTEX_POINT('',#380);
#121=VERTEX_POINT('',#384);
#122=VERTEX_POINT('',#388);
#123=VERTEX_POINT('',#392);
#124=VERTEX_POINT('',#396);
#125=VERTEX_POINT('',#400);
#126=VERTEX_POINT('',#404);
#127=EDGE_CURVE('',#115,#116,#55,.T.);
#128=EDGE_CURVE('',#117,#116,#56,.T.);
#129=EDGE_CURVE('',#115,#117,#57,.T.);
#130=EDGE_CURVE('',#118,#116,#58,.T.);
#131=EDGE_CURVE('',#115,#118,#59,.T.);
#132=EDGE_CURVE('',#118,#119,#60,.T.);
#133=EDGE_CURVE('',#115,#119,#61,.T.);
#134=EDGE_CURVE('',#118,#120,#62,.T.);
#135=EDGE_CURVE('',#119,#120,#63,.T.);
#136=EDGE_CURVE('',#120,#121,#64,.T.);
#137=EDGE_CURVE('',#119,#121,#65,.T.);
#138=EDGE_CURVE('',#120,#122,#66,.T.);
#139=EDGE_CURVE('',#121,#122,#67,.T.);
#140=EDGE_CURVE('',#123,#122,#68,.T.);
#141=EDGE_CURVE('',#123,#121,#69,.T.);
#142=EDGE_CURVE('',#124,#122,#70,.T.);
#143=EDGE_CURVE('',#123,#124,#71,.T.);
#144=EDGE_CURVE('',#125,#124,#72,.T.);
#145=EDGE_CURVE('',#125,#123,#73,.T.);
#146=EDGE_CURVE('',#126,#124,#74,.T.);
#147=EDGE_CURVE('',#125,#126,#75,.T.);
#148=EDGE_CURVE('',#117,#126,#76,.T.);
#149=EDGE_CURVE('',#117,#125,#77,.T.);
#150=EDGE_CURVE('',#116,#126,#78,.T.);
#151=EDGE_CURVE('',#116,#120,#79,.T.);
#152=EDGE_CURVE('',#116,#122,#80,.T.);
#153=EDGE_CURVE('',#126,#122,#81,.T.);
#154=EDGE_CURVE('',#115,#121,#82,.T.);
#155=EDGE_CURVE('',#117,#121,#83,.T.);
#156=EDGE_CURVE('',#117,#123,#84,.T.);
#157=ORIENTED_EDGE('',*,*,#127,.T.);
#158=ORIENTED_EDGE('',*,*,#128,.F.);
#159=ORIENTED_EDGE('',*,*,#129,.F.);
#160=ORIENTED_EDGE('',*,*,#130,.T.);
#161=ORIENTED_EDGE('',*,*,#127,.F.);
#162=ORIENTED_EDGE('',*,*,#131,.T.);
#163=ORIENTED_EDGE('',*,*,#132,.F.);
#164=ORIENTED_EDGE('',*,*,#131,.F.);
#165=ORIENTED_EDGE('',*,*,#133,.T.);
#166=ORIENTED_EDGE('',*,*,#134,.F.);
#167=ORIENTED_EDGE('',*,*,#132,.T.);
#168=ORIENTED_EDGE('',*,*,#135,.T.);
#169=ORIENTED_EDGE('',*,*,#136,.F.);
#170=ORIENTED_EDGE('',*,*,#135,.F.);
#171=ORIENTED_EDGE('',*,*,#137,.T.);
#172=ORIENTED_EDGE('',*,*,#138,.F.);
#173=ORIENTED_EDGE('',*,*,#136,.T.);
#174=ORIENTED_EDGE('',*,*,#139,.T.);
#175=ORIENTED_EDGE('',*,*,#140,.T.);
#176=ORIENTED_EDGE('',*,*,#139,.F.);
#177=ORIENTED_EDGE('',*,*,#141,.F.);
#178=ORIENTED_EDGE('',*,*,#142,.T.);
#179=ORIENTED_EDGE('',*,*,#140,.F.);
#180=ORIENTED_EDGE('',*,*,#143,.T.);
#181=ORIENTED_EDGE('',*,*,#144,.T.);
#182=ORIENTED_EDGE('',*,*,#143,.F.);
#183=ORIENTED_EDGE('',*,*,#145,.F.);
#184=ORIENTED_EDGE('',*,*,#146,.T.);
#185=ORIENTED_EDGE('',*,*,#144,.F.);
#186=ORIENTED_EDGE('',*,*,#147,.T.);
#187=ORIENTED_EDGE('',*,*,#148,.T.);
#188=ORIENTED_EDGE('',*,*,#147,.F.);
#189=ORIENTED_EDGE('',*,*,#149,.F.);
#190=ORIENTED_EDGE('',*,*,#150,.T.);
#191=ORIENTED_EDGE('',*,*,#148,.F.);
#192=ORIENTED_EDGE('',*,*,#128,.T.);
#193=ORIENTED_EDGE('',*,*,#151,.F.);
#194=ORIENTED_EDGE('',*,*,#130,.F.);
#195=ORIENTED_EDGE('',*,*,#134,.T.);
#196=ORIENTED_EDGE('',*,*,#152,.F.);
#197=ORIENTED_EDGE('',*,*,#151,.T.);
#198=ORIENTED_EDGE('',*,*,#138,.T.);
#199=ORIENTED_EDGE('',*,*,#153,.F.);
#200=ORIENTED_EDGE('',*,*,#150,.F.);
#201=ORIENTED_EDGE('',*,*,#152,.T.);
#202=ORIENTED_EDGE('',*,*,#146,.F.);
#203=ORIENTED_EDGE('',*,*,#153,.T.);
#204=ORIENTED_EDGE('',*,*,#142,.F.);
#205=ORIENTED_EDGE('',*,*,#154,.T.);
#206=ORIENTED_EDGE('',*,*,#137,.F.);
#207=ORIENTED_EDGE('',*,*,#133,.F.);
#208=ORIENTED_EDGE('',*,*,#155,.T.);
#209=ORIENTED_EDGE('',*,*,#154,.F.);
#210=ORIENTED_EDGE('',*,*,#129,.T.);
#211=ORIENTED_EDGE('',*,*,#156,.T.);
#212=ORIENTED_EDGE('',*,*,#141,.T.);
#213=ORIENTED_EDGE('',*,*,#155,.F.);
#214=ORIENTED_EDGE('',*,*,#145,.T.);
#215=ORIENTED_EDGE('',*,*,#156,.F.);
#216=ORIENTED_EDGE('',*,*,#149,.T.);
#217=PLANE('',#271);
#218=PLANE('',#272);
#219=PLANE('',#273);
#220=PLANE('',#274);
#221=PLANE('',#275);
#222=PLANE('',#276);
#223=PLANE('',#277);
#224=PLANE('',#278);
#225=PLANE('',#279);
#226=PLANE('',#280);
#227=PLANE('',#281);
#228=PLANE('',#282);
#229=PLANE('',#283);
#230=PLANE('',#284);
#231=PLANE('',#285);
#232=PLANE('',#286);
#233=PLANE('',#287);
#234=PLANE('',#288);
#235=PLANE('',#289);
#236=PLANE('',#290);
#237=ADVANCED_FACE('',(#15),#217,.T.);
#238=ADVANCED_FACE('',(#16),#218,.T.);
#239=ADVANCED_FACE('',(#17),#219,.T.);
#240=ADVANCED_FACE('',(#18),#220,.T.);
#241=ADVANCED_FACE('',(#19),#221,.T.);
#242=ADVANCED_FACE('',(#20),#222,.T.);
#243=ADVANCED_FACE('',(#21),#223,.T.);
#244=ADVANCED_FACE('',(#22),#224,.T.);
#245=ADVANCED_FACE('',(#23),#225,.T.);
#246=ADVANCED_FACE('',(#24),#226,.T.);
#247=ADVANCED_FACE('',(#25),#227,.T.);
#248=ADVANCED_FACE('',(#26),#228,.T.);
#249=ADVANCED_FACE('',(#27),#229,.T.);
#250=ADVANCED_FACE('',(#28),#230,.T.);
#251=ADVANCED_FACE('',(#29),#231,.T.);
#252=ADVANCED_FACE('',(#30),#232,.T.);
#253=ADVANCED_FACE('',(#31),#233,.T.);
#254=ADVANCED_FACE('',(#32),#234,.T.);
#255=ADVANCED_FACE('',(#33),#235,.T.);
#256=ADVANCED_FACE('',(#34),#236,.T.);
#257=CLOSED_SHELL('',(#237,#238,#239,#240,#241,#242,#243,#244,#245,#246,
#247,#248,#249,#250,#251,#252,#253,#254,#255,#256));
#258=DERIVED_UNIT_ELEMENT(#260,1.);
#259=DERIVED_UNIT_ELEMENT(#431,-3.);
#260=(
MASS_UNIT()
NAMED_UNIT(*)
SI_UNIT(.KILO.,.GRAM.)
);
#261=DERIVED_UNIT((#258,#259));
#262=MEASURE_REPRESENTATION_ITEM('density measure',
POSITIVE_RATIO_MEASURE(7850.),#261);
#263=PROPERTY_DEFINITION_REPRESENTATION(#268,#265);
#264=PROPERTY_DEFINITION_REPRESENTATION(#269,#266);
#265=REPRESENTATION('material name',(#267),#428);
#266=REPRESENTATION('density',(#262),#428);
#267=DESCRIPTIVE_REPRESENTATION_ITEM('Steel','Steel');
#268=PROPERTY_DEFINITION('material property','material name',#438);
#269=PROPERTY_DEFINITION('material property','density of part',#438);
#270=AXIS2_PLACEMENT_3D('',#363,#291,#292);
#271=AXIS2_PLACEMENT_3D('',#364,#293,#294);
#272=AXIS2_PLACEMENT_3D('',#371,#298,#299);
#273=AXIS2_PLACEMENT_3D('',#375,#302,#303);
#274=AXIS2_PLACEMENT_3D('',#379,#306,#307);
#275=AXIS2_PLACEMENT_3D('',#383,#310,#311);
#276=AXIS2_PLACEMENT_3D('',#387,#314,#315);
#277=AXIS2_PLACEMENT_3D('',#391,#318,#319);
#278=AXIS2_PLACEMENT_3D('',#395,#322,#323);
#279=AXIS2_PLACEMENT_3D('',#399,#326,#327);
#280=AXIS2_PLACEMENT_3D('',#403,#330,#331);
#281=AXIS2_PLACEMENT_3D('',#407,#334,#335);
#282=AXIS2_PLACEMENT_3D('',#410,#338,#339);
#283=AXIS2_PLACEMENT_3D('',#412,#341,#342);
#284=AXIS2_PLACEMENT_3D('',#414,#344,#345);
#285=AXIS2_PLACEMENT_3D('',#416,#347,#348);
#286=AXIS2_PLACEMENT_3D('',#418,#350,#351);
#287=AXIS2_PLACEMENT_3D('',#419,#352,#353);
#288=AXIS2_PLACEMENT_3D('',#421,#355,#356);
#289=AXIS2_PLACEMENT_3D('',#423,#358,#359);
#290=AXIS2_PLACEMENT_3D('',#425,#361,#362);
#291=DIRECTION('axis',(0.,0.,1.));
#292=DIRECTION('refdir',(1.,0.,0.));
#293=DIRECTION('center_axis',(-1.,0.,0.));
#294=DIRECTION('ref_axis',(0.,0.,1.));
#295=DIRECTION('',(0.,0.999943613886248,0.0106192771933829));
#296=DIRECTION('',(0.,0.,1.));
#297=DIRECTION('',(0.,1.,0.));
#298=DIRECTION('center_axis',(-1.,0.,0.));
#299=DIRECTION('ref_axis',(0.,0.,1.));
#300=DIRECTION('',(0.,1.,0.));
#301=DIRECTION('',(0.,0.,1.));
#302=DIRECTION('center_axis',(0.,-1.,0.));
#303=DIRECTION('ref_axis',(0.,0.,-1.));
#304=DIRECTION('',(0.999990816453039,0.,-0.00428567492765588));
#305=DIRECTION('',(1.,0.,0.));
#306=DIRECTION('center_axis',(0.,-1.,0.));
#307=DIRECTION('ref_axis',(0.,0.,-1.));
#308=DIRECTION('',(1.,0.,0.));
#309=DIRECTION('',(0.,0.,1.));
#310=DIRECTION('center_axis',(1.,0.,0.));
#311=DIRECTION('ref_axis',(0.,0.,-1.));
#312=DIRECTION('',(0.,0.999943613886248,-0.0106192771933829));
#313=DIRECTION('',(0.,1.,0.));
#314=DIRECTION('center_axis',(1.,0.,0.));
#315=DIRECTION('ref_axis',(0.,0.,-1.));
#316=DIRECTION('',(0.,1.,0.));
#317=DIRECTION('',(0.,0.,1.));
#318=DIRECTION('center_axis',(0.816496434030334,0.577350476933854,0.));
#319=DIRECTION('ref_axis',(0.,0.,-1.));
#320=DIRECTION('',(0.575197513971876,-0.813451686253576,0.0862796270957814));
#321=DIRECTION('',(0.577350476933854,-0.816496434030334,0.));
#322=DIRECTION('center_axis',(0.816496434030334,0.577350476933854,0.));
#323=DIRECTION('ref_axis',(0.,0.,-1.));
#324=DIRECTION('',(0.577350476933854,-0.816496434030334,0.));
#325=DIRECTION('',(0.,0.,1.));
#326=DIRECTION('center_axis',(0.,1.,0.));
#327=DIRECTION('ref_axis',(0.,0.,1.));
#328=DIRECTION('',(0.999989669581566,0.,0.00454540758900712));
#329=DIRECTION('',(1.,0.,0.));
#330=DIRECTION('center_axis',(0.,1.,0.));
#331=DIRECTION('ref_axis',(0.,0.,1.));
#332=DIRECTION('',(1.,0.,0.));
#333=DIRECTION('',(0.,0.,1.));
#334=DIRECTION('center_axis',(-0.816496434030334,0.577350476933854,0.));
#335=DIRECTION('ref_axis',(0.,0.,1.));
#336=DIRECTION('',(0.575197513971876,0.813451686253576,0.0862796270957814));
#337=DIRECTION('',(0.577350476933854,0.816496434030334,0.));
#338=DIRECTION('center_axis',(-0.816496434030334,0.577350476933854,0.));
#339=DIRECTION('ref_axis',(0.,0.,1.));
#340=DIRECTION('',(0.577350476933854,0.816496434030334,0.));
#341=DIRECTION('center_axis',(0.,0.,1.));
#342=DIRECTION('ref_axis',(1.,0.,0.));
#343=DIRECTION('',(0.927335246108465,-0.37423166798783,0.));
#344=DIRECTION('center_axis',(0.,0.,1.));
#345=DIRECTION('ref_axis',(1.,0.,0.));
#346=DIRECTION('',(1.,0.,0.));
#347=DIRECTION('center_axis',(0.,0.,1.));
#348=DIRECTION('ref_axis',(1.,0.,0.));
#349=DIRECTION('',(0.999136069884576,-0.0415585593542803,0.));
#350=DIRECTION('center_axis',(0.,0.,1.));
#351=DIRECTION('ref_axis',(1.,0.,0.));
#352=DIRECTION('center_axis',(0.,0.,-1.));
#353=DIRECTION('ref_axis',(-1.,0.,0.));
#354=DIRECTION('',(0.927335246108465,0.37423166798783,0.));
#355=DIRECTION('center_axis',(0.,0.,-1.));
#356=DIRECTION('ref_axis',(-1.,0.,0.));
#357=DIRECTION('',(1.,0.,0.));
#358=DIRECTION('center_axis',(0.,0.,-1.));
#359=DIRECTION('ref_axis',(-1.,0.,0.));
#360=DIRECTION('',(0.999136069884576,0.0415585593542803,0.));
#361=DIRECTION('center_axis',(0.,0.,-1.));
#362=DIRECTION('ref_axis',(-1.,0.,0.));
#363=CARTESIAN_POINT('',(0.,0.,0.));
#364=CARTESIAN_POINT('Origin',(-7000.,3942.93029785156,259.436264038086));
#365=CARTESIAN_POINT('',(-7000.,-1706.85317993164,259.436264038086));
#366=CARTESIAN_POINT('',(-7000.,3942.93029785156,319.436264038086));
#367=CARTESIAN_POINT('',(-7000.,-1706.85317993164,259.436264038086));
#368=CARTESIAN_POINT('',(-7000.,3942.93029785156,259.436264038086));
#369=CARTESIAN_POINT('',(-7000.,3942.93029785156,259.436264038086));
#370=CARTESIAN_POINT('',(-7000.,-1706.85317993164,259.436264038086));
#371=CARTESIAN_POINT('Origin',(-7000.,-1706.85317993164,259.436264038086));
#372=CARTESIAN_POINT('',(-7000.,-1706.85317993164,319.436264038086));
#373=CARTESIAN_POINT('',(-7000.,-1706.85317993164,319.436264038086));
#374=CARTESIAN_POINT('',(-7000.,-1706.85317993164,259.436264038086));
#375=CARTESIAN_POINT('Origin',(-7000.,-1706.85317993164,259.436264038086));
#376=CARTESIAN_POINT('',(7000.,-1706.85317993164,259.436264038086));
#377=CARTESIAN_POINT('',(-7000.,-1706.85317993164,319.436264038086));
#378=CARTESIAN_POINT('',(-7000.,-1706.85317993164,259.436264038086));
#379=CARTESIAN_POINT('Origin',(7000.,-1706.85317993164,259.436264038086));
#380=CARTESIAN_POINT('',(7000.,-1706.85317993164,319.436264038086));
#381=CARTESIAN_POINT('',(-7000.,-1706.85317993164,319.436264038086));
#382=CARTESIAN_POINT('',(7000.,-1706.85317993164,259.436264038086));
#383=CARTESIAN_POINT('Origin',(7000.,-1706.85317993164,259.436264038086));
#384=CARTESIAN_POINT('',(7000.,3942.93029785156,259.436264038086));
#385=CARTESIAN_POINT('',(7000.,-1706.85317993164,319.436264038086));
#386=CARTESIAN_POINT('',(7000.,-1706.85317993164,259.436264038086));
#387=CARTESIAN_POINT('Origin',(7000.,3942.93029785156,259.436264038086));
#388=CARTESIAN_POINT('',(7000.,3942.93029785156,319.436264038086));
#389=CARTESIAN_POINT('',(7000.,-1706.85317993164,319.436264038086));
#390=CARTESIAN_POINT('',(7000.,3942.93029785156,259.436264038086));
#391=CARTESIAN_POINT('Origin',(7000.,3942.93029785156,259.436264038086));
#392=CARTESIAN_POINT('',(6600.,4508.61541748047,259.436264038086));
#393=CARTESIAN_POINT('',(6600.,4508.61541748047,259.436264038086));
#394=CARTESIAN_POINT('',(6600.,4508.61541748047,259.436264038086));
#395=CARTESIAN_POINT('Origin',(6600.,4508.61541748047,259.436264038086));
#396=CARTESIAN_POINT('',(6600.,4508.61541748047,319.436264038086));
#397=CARTESIAN_POINT('',(6600.,4508.61541748047,319.436264038086));
#398=CARTESIAN_POINT('',(6600.,4508.61541748047,259.436264038086));
#399=CARTESIAN_POINT('Origin',(6600.,4508.61541748047,259.436264038086));
#400=CARTESIAN_POINT('',(-6600.,4508.61541748047,259.436264038086));
#401=CARTESIAN_POINT('',(-6600.,4508.61541748047,259.436264038086));
#402=CARTESIAN_POINT('',(-6600.,4508.61541748047,259.436264038086));
#403=CARTESIAN_POINT('Origin',(-6600.,4508.61541748047,259.436264038086));
#404=CARTESIAN_POINT('',(-6600.,4508.61541748047,319.436264038086));
#405=CARTESIAN_POINT('',(-6600.,4508.61541748047,319.436264038086));
#406=CARTESIAN_POINT('',(-6600.,4508.61541748047,259.436264038086));
#407=CARTESIAN_POINT('Origin',(-6600.,4508.61541748047,259.436264038086));
#408=CARTESIAN_POINT('',(-7000.,3942.93029785156,259.436264038086));
#409=CARTESIAN_POINT('',(-7000.,3942.93029785156,259.436264038086));
#410=CARTESIAN_POINT('Origin',(-7000.,3942.93029785156,259.436264038086));
#411=CARTESIAN_POINT('',(-7000.,3942.93029785156,319.436264038086));
#412=CARTESIAN_POINT('Origin',(-7000.,-1706.85317993164,319.436264038086));
#413=CARTESIAN_POINT('',(-7000.,3942.93029785156,319.436264038086));
#414=CARTESIAN_POINT('Origin',(7000.,-1706.85317993164,319.436264038086));
#415=CARTESIAN_POINT('',(-7000.,3942.93029785156,319.436264038086));
#416=CARTESIAN_POINT('Origin',(-7000.,3942.93029785156,319.436264038086));
#417=CARTESIAN_POINT('',(-6600.,4508.61541748047,319.436264038086));
#418=CARTESIAN_POINT('Origin',(7000.,3942.93029785156,319.436264038086));
#419=CARTESIAN_POINT('Origin',(7000.,-1706.85317993164,259.436264038086));
#420=CARTESIAN_POINT('',(-7000.,-1706.85317993164,259.436264038086));
#421=CARTESIAN_POINT('Origin',(-7000.,-1706.85317993164,259.436264038086));
#422=CARTESIAN_POINT('',(-7000.,3942.93029785156,259.436264038086));
#423=CARTESIAN_POINT('Origin',(7000.,3942.93029785156,259.436264038086));
#424=CARTESIAN_POINT('',(-7000.,3942.93029785156,259.436264038086));
#425=CARTESIAN_POINT('Origin',(-7000.,3942.93029785156,259.436264038086));
#426=UNCERTAINTY_MEASURE_WITH_UNIT(LENGTH_MEASURE(0.01),#430,
'DISTANCE_ACCURACY_VALUE',
'Maximum model space distance between geometric entities at asserted c
onnectivities');
#427=UNCERTAINTY_MEASURE_WITH_UNIT(LENGTH_MEASURE(0.01),#430,
'DISTANCE_ACCURACY_VALUE',
'Maximum model space distance between geometric entities at asserted c
onnectivities');
#428=(
GEOMETRIC_REPRESENTATION_CONTEXT(3)
GLOBAL_UNCERTAINTY_ASSIGNED_CONTEXT((#426))
GLOBAL_UNIT_ASSIGNED_CONTEXT((#430,#432,#433))
REPRESENTATION_CONTEXT('','3D')
);
#429=(
GEOMETRIC_REPRESENTATION_CONTEXT(3)
GLOBAL_UNCERTAINTY_ASSIGNED_CONTEXT((#427))
GLOBAL_UNIT_ASSIGNED_CONTEXT((#430,#432,#433))
REPRESENTATION_CONTEXT('','3D')
);
#430=(
LENGTH_UNIT()
NAMED_UNIT(*)
SI_UNIT(.MILLI.,.METRE.)
);
#431=(
LENGTH_UNIT()
NAMED_UNIT(*)
SI_UNIT($,.METRE.)
);
#432=(
NAMED_UNIT(*)
PLANE_ANGLE_UNIT()
SI_UNIT($,.RADIAN.)
);
#433=(
NAMED_UNIT(*)
SI_UNIT($,.STERADIAN.)
SOLID_ANGLE_UNIT()
);
#434=SHAPE_DEFINITION_REPRESENTATION(#435,#436);
#435=PRODUCT_DEFINITION_SHAPE('',$,#438);
#436=SHAPE_REPRESENTATION('',(#270),#428);
#437=PRODUCT_DEFINITION_CONTEXT('part definition',#442,'design');
#438=PRODUCT_DEFINITION('2025-06-17-03-40-25-945','(Unsaved)',#439,#437);
#439=PRODUCT_DEFINITION_FORMATION('',$,#444);
#440=PRODUCT_RELATED_PRODUCT_CATEGORY('(Unsaved)','(Unsaved)',(#444));
#441=APPLICATION_PROTOCOL_DEFINITION('international standard',
'automotive_design',2009,#442);
#442=APPLICATION_CONTEXT(
'Core Data for Automotive Mechanical Design Process');
#443=PRODUCT_CONTEXT('part definition',#442,'mechanical');
#444=PRODUCT('2025-06-17-03-40-25-945','(Unsaved)',$,(#443));
#445=PRESENTATION_STYLE_ASSIGNMENT((#446));
#446=SURFACE_STYLE_USAGE(.BOTH.,#447);
#447=SURFACE_SIDE_STYLE('',(#448));
#448=SURFACE_STYLE_FILL_AREA(#449);
#449=FILL_AREA_STYLE('Steel - Satin',(#450));
#450=FILL_AREA_STYLE_COLOUR('Steel - Satin',#451);
#451=COLOUR_RGB('Steel - Satin',0.627450980392157,0.627450980392157,0.627450980392157);
ENDSEC;
END-ISO-10303-21;
